<svg width="64" height="64" viewBox="0 0 64 64" fill="none" xmlns="http://www.w3.org/2000/svg">
<path d="M62.125 0H54.625C53.5894 0 52.75 0.839355 52.75 1.875V3.75H11.25V1.875C11.25 0.839355 10.4106 0 9.375 0H1.875C0.839355 0 0 0.839355 0 1.875V62.125C0 63.1606 0.839355 64 1.875 64H9.375C10.4106 64 11.25 63.1606 11.25 62.125V60.25H52.75V62.125C52.75 63.1606 53.5894 64 54.625 64H62.125C63.1606 64 64 63.1606 64 62.125V1.875C64 0.839355 63.1606 0 62.125 0ZM41.0527 45.125C40.2783 42.9429 38.1943 41.375 35.75 41.375C34.3105 41.375 32.9961 41.9194 32 42.812C31.0039 41.9194 29.6895 41.375 28.25 41.375C26.8105 41.375 25.4961 41.9194 24.5 42.812C23.5039 41.9194 22.1895 41.375 20.75 41.375C18.3057 41.375 16.2217 42.9429 15.4473 45.125H11.25V33.875H22.9473C23.7217 36.0571 25.8057 37.625 28.25 37.625C29.6895 37.625 31.0039 37.0806 32 36.188C32.9961 37.0811 34.3105 37.625 35.75 37.625C37.1895 37.625 38.5039 37.0806 39.5 36.188C40.4961 37.0811 41.8105 37.625 43.25 37.625C45.6943 37.625 47.7783 36.0571 48.5527 33.875H52.75V45.125H41.0527ZM37.625 47C37.625 48.0337 36.7837 48.875 35.75 48.875C34.7163 48.875 33.875 48.0337 33.875 47C33.875 45.9663 34.7163 45.125 35.75 45.125C36.7837 45.125 37.625 45.9663 37.625 47ZM30.125 47C30.125 48.0337 29.2837 48.875 28.25 48.875C27.2163 48.875 26.375 48.0337 26.375 47C26.375 45.9663 27.2163 45.125 28.25 45.125C29.2837 45.125 30.125 45.9663 30.125 47ZM22.625 47C22.625 48.0337 21.7837 48.875 20.75 48.875C19.7163 48.875 18.875 48.0337 18.875 47C18.875 45.9663 19.7163 45.125 20.75 45.125C21.7837 45.125 22.625 45.9663 22.625 47ZM15.4473 18.875C16.2217 21.0571 18.3057 22.625 20.75 22.625C22.1895 22.625 23.5039 22.0806 24.5 21.188C25.4961 22.0811 26.8105 22.625 28.25 22.625C29.6895 22.625 31.0039 22.0806 32 21.188C32.9961 22.0811 34.3105 22.625 35.75 22.625C38.1943 22.625 40.2783 21.0571 41.0527 18.875H52.75V30.125H48.5527C47.7783 27.9429 45.6943 26.375 43.25 26.375C41.8105 26.375 40.4961 26.9194 39.5 27.812C38.5039 26.9194 37.1895 26.375 35.75 26.375C34.3105 26.375 32.9961 26.9194 32 27.812C31.0039 26.9194 29.6895 26.375 28.25 26.375C25.8057 26.375 23.7217 27.9429 22.9473 30.125H11.25V18.875H15.4473ZM18.875 17C18.875 15.9663 19.7163 15.125 20.75 15.125C21.7837 15.125 22.625 15.9663 22.625 17C22.625 18.0337 21.7837 18.875 20.75 18.875C19.7163 18.875 18.875 18.0337 18.875 17ZM26.375 17C26.375 15.9663 27.2163 15.125 28.25 15.125C29.2837 15.125 30.125 15.9663 30.125 17C30.125 18.0337 29.2837 18.875 28.25 18.875C27.2163 18.875 26.375 18.0337 26.375 17ZM33.875 17C33.875 15.9663 34.7163 15.125 35.75 15.125C36.7837 15.125 37.625 15.9663 37.625 17C37.625 18.0337 36.7837 18.875 35.75 18.875C34.7163 18.875 33.875 18.0337 33.875 17ZM45.125 32C45.125 33.0337 44.2837 33.875 43.25 33.875C42.2163 33.875 41.375 33.0337 41.375 32C41.375 30.9663 42.2163 30.125 43.25 30.125C44.2837 30.125 45.125 30.9663 45.125 32ZM37.625 32C37.625 33.0337 36.7837 33.875 35.75 33.875C34.7163 33.875 33.875 33.0337 33.875 32C33.875 30.9663 34.7163 30.125 35.75 30.125C36.7837 30.125 37.625 30.9663 37.625 32ZM30.125 32C30.125 33.0337 29.2837 33.875 28.25 33.875C27.2163 33.875 26.375 33.0337 26.375 32C26.375 30.9663 27.2163 30.125 28.25 30.125C29.2837 30.125 30.125 30.9663 30.125 32ZM52.75 7.5V15.125H41.0527C40.2783 12.9429 38.1943 11.375 35.75 11.375C34.3105 11.375 32.9961 11.9194 32 12.812C31.0039 11.9194 29.6895 11.375 28.25 11.375C26.8105 11.375 25.4961 11.9194 24.5 12.812C23.5039 11.9194 22.1895 11.375 20.75 11.375C18.3057 11.375 16.2217 12.9429 15.4473 15.125H11.25V7.5H52.75ZM7.5 60.25H3.75V3.75H7.5V60.25ZM11.25 56.5V48.875H15.4473C16.2217 51.0571 18.3057 52.625 20.75 52.625C22.1895 52.625 23.5039 52.0806 24.5 51.188C25.4961 52.0811 26.8105 52.625 28.25 52.625C29.6895 52.625 31.0039 52.0806 32 51.188C32.9961 52.0811 34.3105 52.625 35.75 52.625C38.1943 52.625 40.2783 51.0571 41.0527 48.875H52.75V56.5H11.25ZM60.25 60.25H56.5V3.75H60.25V60.25Z" fill="#0073E6"/>
</svg>
