<svg width="96" height="96" viewBox="0 0 96 96" fill="none" xmlns="http://www.w3.org/2000/svg">
<mask id="mask0" mask-type="alpha" maskUnits="userSpaceOnUse" x="0" y="0" width="96" height="96">
<path fill-rule="evenodd" clip-rule="evenodd" d="M88.3404 80.6809H87.8299V4.59581C87.8299 2.06175 85.7683 0 83.2341 0C80.6998 0 78.6383 2.06175 78.6383 4.59581V10.7235H75.3806C74.6987 8.0835 72.2968 6.12769 69.4468 6.12769C67.6179 6.12769 65.9749 6.93413 64.851 8.20894C63.7271 6.93413 62.0843 6.12769 60.2552 6.12769C57.4052 6.12769 55.0033 8.0835 54.3214 10.7235H50.8697C50.1879 8.0835 47.7861 6.12769 44.9361 6.12769C43.1072 6.12769 41.4641 6.93413 40.3403 8.20894C39.2164 6.93413 37.5735 6.12769 35.7444 6.12769C33.9154 6.12769 32.2725 6.93413 31.1486 8.20894C30.0247 6.93413 28.3817 6.12769 26.5528 6.12769C23.7028 6.12769 21.3009 8.0835 20.619 10.7235H17.3617V4.59581C17.3617 2.06175 15.3002 0 12.7659 0C10.2317 0 8.17013 2.06175 8.17013 4.59581V80.6809H7.65956C3.43594 80.6809 0 84.1168 0 88.3404V94.4681C0 95.3143 0.685875 96 1.53188 96H94.4681C95.3141 96 96 95.3143 96 94.4681V88.3404C96 84.1168 92.5641 80.6809 88.3404 80.6809ZM75.5745 13.7872H78.6382V16.851H75.5745V13.7872ZM69.4468 9.19162C67.7574 9.19162 66.3831 10.566 66.3831 12.2554V18.3831C66.3831 20.0724 67.7574 21.4468 69.4468 21.4468C71.1362 21.4468 72.5106 20.0724 72.5106 18.3831V12.2554C72.5106 10.566 71.1362 9.19162 69.4468 9.19162ZM57.1914 12.2554C57.1914 10.566 58.5658 9.19162 60.2552 9.19162C61.9446 9.19162 63.3189 10.566 63.3189 12.2554V18.3831C63.3189 20.0724 61.9446 21.4468 60.2552 21.4468C58.5658 21.4468 57.1914 20.0724 57.1914 18.3831V12.2554ZM54.1275 13.7872H51.0638V16.851H54.1275V13.7872ZM41.8723 12.2554C41.8723 10.566 43.2467 9.19162 44.9361 9.19162C46.6254 9.19162 47.9998 10.566 47.9998 12.2554V18.3831C47.9998 20.0724 46.6254 21.4468 44.9361 21.4468C43.2467 21.4468 41.8723 20.0724 41.8723 18.3831V12.2554ZM35.7446 9.19162C34.0553 9.19162 32.6809 10.566 32.6809 12.2554V18.3831C32.6809 20.0724 34.0553 21.4468 35.7446 21.4468C37.434 21.4468 38.8084 20.0724 38.8084 18.3831V12.2554C38.8084 10.566 37.434 9.19162 35.7446 9.19162ZM23.4894 12.2554C23.4894 10.566 24.8638 9.19162 26.5532 9.19162C28.2426 9.19162 29.6169 10.566 29.6169 12.2554V18.3831C29.6169 20.0724 28.2426 21.4468 26.5532 21.4468C24.8638 21.4468 23.4894 20.0724 23.4894 18.3831V12.2554ZM20.4255 13.7872H17.3617V16.851H20.4255V13.7872ZM17.3617 19.9149H20.6194C21.3013 22.5549 23.7032 24.5107 26.5532 24.5107C28.3821 24.5107 30.0251 23.7043 31.149 22.4297C32.2729 23.7045 33.9157 24.5107 35.7448 24.5107C37.5739 24.5107 39.2167 23.7043 40.3406 22.4297C41.4645 23.7045 43.1076 24.5107 44.9364 24.5107C47.7864 24.5107 50.1883 22.5549 50.8702 19.9149H54.3219C55.0037 22.5549 57.4056 24.5107 60.2556 24.5107C62.0844 24.5107 63.7275 23.7043 64.8514 22.4297C65.9752 23.7045 67.6183 24.5107 69.4472 24.5107C72.2972 24.5107 74.6991 22.5549 75.381 19.9149H78.6386V34.2127H75.3806C74.6987 31.5727 72.2968 29.6169 69.4468 29.6169C67.6179 29.6169 65.9749 30.4234 64.851 31.698C63.7271 30.4232 62.0842 29.6169 60.2552 29.6169C58.4261 29.6169 56.7832 30.4234 55.6594 31.698C54.5355 30.4232 52.8926 29.6169 51.0636 29.6169C49.2345 29.6169 47.5916 30.4234 46.4677 31.698C45.3439 30.4232 43.701 29.6169 41.8719 29.6169C39.0219 29.6169 36.6201 31.5727 35.9381 34.2127H32.4864C31.8047 31.5727 29.4028 29.6169 26.5528 29.6169C23.7028 29.6169 21.3009 31.5727 20.619 34.2127H17.3617V19.9149ZM78.6382 40.3404V37.2767H75.5745V40.3404H78.6382ZM72.5106 35.7446V41.8723C72.5106 43.5617 71.1362 44.9361 69.4468 44.9361C67.7574 44.9361 66.3831 43.5617 66.3831 41.8723V35.7446C66.3831 34.0553 67.7574 32.6809 69.4468 32.6809C71.1362 32.6809 72.5106 34.0553 72.5106 35.7446ZM63.3191 41.8723V35.7446C63.3191 34.0553 61.9448 32.6809 60.2554 32.6809C58.566 32.6809 57.1916 34.0553 57.1916 35.7446V41.8723C57.1916 43.5617 58.566 44.9361 60.2554 44.9361C61.9448 44.9361 63.3191 43.5617 63.3191 41.8723ZM54.1277 35.7446V41.8723C54.1277 43.5617 52.7533 44.9361 51.0639 44.9361C49.3746 44.9361 48.0002 43.5617 48.0002 41.8723V35.7446C48.0002 34.0553 49.3746 32.6809 51.0639 32.6809C52.7533 32.6809 54.1277 34.0553 54.1277 35.7446ZM44.9362 41.8723V35.7446C44.9362 34.0553 43.5619 32.6809 41.8725 32.6809C40.1831 32.6809 38.8088 34.0553 38.8088 35.7446V41.8723C38.8088 43.5617 40.1831 44.9361 41.8725 44.9361C43.5619 44.9361 44.9362 43.5617 44.9362 41.8723ZM35.7446 37.2767V40.3404H32.6809V37.2767H35.7446ZM29.6169 41.8723V35.7446C29.6169 34.0553 28.2426 32.6809 26.5532 32.6809C24.8638 32.6809 23.4894 34.0553 23.4894 35.7446V41.8723C23.4894 43.5617 24.8638 44.9361 26.5532 44.9361C28.2426 44.9361 29.6169 43.5617 29.6169 41.8723ZM17.3617 37.2767H20.4255V40.3404H17.3617V37.2767ZM20.6194 43.4042H17.3617V57.702H20.619C21.3009 55.062 23.7028 53.1062 26.5528 53.1062C28.3817 53.1062 30.0247 53.9124 31.1486 55.1872C32.2725 53.9126 33.9156 53.1062 35.7444 53.1062C38.5944 53.1062 40.9963 55.062 41.6781 57.702H45.1297C45.8117 55.062 48.2136 53.1062 51.0636 53.1062C52.8926 53.1062 54.5355 53.9124 55.6594 55.1872C56.7832 53.9126 58.4261 53.1062 60.2552 53.1062C62.0842 53.1062 63.7271 53.9124 64.851 55.1872C65.9749 53.9126 67.6179 53.1062 69.4468 53.1062C72.2968 53.1062 74.6987 55.062 75.3806 57.702H78.6384V43.4042H75.3808C74.6989 46.0442 72.297 48 69.447 48C67.6181 48 65.9751 47.1937 64.8512 45.9189C63.7273 47.1936 62.0844 48 60.2554 48C58.4263 48 56.7834 47.1937 55.6596 45.9189C54.5357 47.1936 52.8926 48 51.0637 48C49.2349 48 47.5918 47.1936 46.4681 45.9189C45.3442 47.1936 43.7012 48 41.8723 48C39.0223 48 36.6204 46.0442 35.9387 43.4042H32.487C31.8051 46.0442 29.4032 48 26.5532 48C23.7032 48 21.3013 46.0442 20.6194 43.4042ZM78.6382 60.7659V63.8297H75.5745V60.7659H78.6382ZM72.5106 65.3617V59.2341C72.5106 57.5447 71.1362 56.1701 69.4468 56.1703C67.7574 56.1703 66.3831 57.5447 66.3831 59.2341V65.3617C66.3831 67.0511 67.7574 68.4255 69.4468 68.4255C71.1362 68.4255 72.5106 67.0511 72.5106 65.3617ZM63.3191 59.2341V65.3617C63.3191 67.0511 61.9448 68.4255 60.2554 68.4255C58.566 68.4255 57.1916 67.0511 57.1916 65.3617V59.2341C57.1916 57.5447 58.566 56.1703 60.2554 56.1703C61.9448 56.1701 63.3191 57.5447 63.3191 59.2341ZM54.1277 65.3617V59.2341C54.1277 57.5447 52.7533 56.1701 51.0639 56.1703C49.3746 56.1703 48.0002 57.5447 48.0002 59.2341V65.3617C48.0002 67.0511 49.3746 68.4255 51.0639 68.4255C52.7533 68.4255 54.1277 67.0511 54.1277 65.3617ZM44.9362 60.7659V63.8297H41.8725V60.7659H44.9362ZM38.8086 65.3617V59.2341C38.8086 57.5447 37.4342 56.1703 35.7448 56.1703C34.0554 56.1703 32.6811 57.5447 32.6811 59.2341V65.3617C32.6811 67.0511 34.0554 68.4255 35.7448 68.4255C37.4342 68.4255 38.8086 67.0511 38.8086 65.3617ZM29.6169 59.2341V65.3617C29.6169 67.0511 28.2426 68.4255 26.5532 68.4255C24.8638 68.4255 23.4894 67.0511 23.4894 65.3617V59.2341C23.4894 57.5447 24.8638 56.1703 26.5532 56.1703C28.2426 56.1701 29.6169 57.5447 29.6169 59.2341ZM20.4255 60.7659H17.3617V63.8297H20.4255V60.7659ZM11.2341 4.59581C11.2341 3.75094 11.9212 3.06394 12.7659 3.06394C13.6108 3.06394 14.2978 3.75113 14.2978 4.59581V76.0853C14.2978 76.9314 14.9837 77.6171 15.8297 77.6171C16.6757 77.6171 17.3616 76.9314 17.3616 76.0853V66.8938H20.6192C21.3011 69.5338 23.703 71.4896 26.553 71.4896C28.3819 71.4896 30.0249 70.6832 31.1488 69.4086C32.2727 70.6834 33.9156 71.4896 35.7446 71.4896C38.5946 71.4896 40.9965 69.5338 41.6784 66.8938H45.1301C45.8119 69.5338 48.2137 71.4896 51.0638 71.4896C52.8926 71.4896 54.5357 70.6832 55.6596 69.4086C56.7834 70.6834 58.4263 71.4896 60.2554 71.4896C62.0844 71.4896 63.7273 70.6832 64.8512 69.4086C65.9751 70.6834 67.6181 71.4896 69.447 71.4896C72.297 71.4896 74.6989 69.5338 75.3808 66.8938H78.6384V76.0853C78.6384 76.9314 79.3243 77.6171 80.1703 77.6171C81.0163 77.6171 81.7022 76.9314 81.7022 76.0853V4.59581C81.7022 3.75094 82.3894 3.06394 83.2341 3.06394C84.0789 3.06394 84.7659 3.75113 84.7659 4.59581V80.6809H11.2341V4.59581ZM3.06375 92.9362H92.9363V88.3404C92.9363 85.8064 90.8747 83.7446 88.3404 83.7446H7.65956C5.12531 83.7446 3.06375 85.8064 3.06375 88.3404V92.9362Z" fill="white"/>
</mask>
<g mask="url(#mask0)">
<rect x="-2.89355" y="-1.62573" width="111.2" height="106.4" fill="#0073E6"/>
</g>
</svg>
