<svg width="64" height="64" viewBox="0 0 64 64" fill="none" xmlns="http://www.w3.org/2000/svg">
<path d="M61.554 26.8312C59.1371 25.1746 55.9591 25.6791 54.1392 27.7558V9.375C54.1392 5.41887 50.1325 2.678 46.4403 4.14762C45.7896 1.76062 43.6037 0 41.0131 0C39.0236 0 37.2735 1.03887 36.273 2.60162C32.5471 0.493875 27.887 3.196 27.887 7.5V7.8225C24.2303 6.52575 20.3863 9.25463 20.3863 13.125V17.7645C19.0147 18.4827 17.9748 19.7498 17.5597 21.2726C13.8656 19.8022 9.86084 22.5469 9.86084 26.5V41.1306C8.03971 39.0528 4.86146 38.5505 2.44596 40.2062C-0.112912 41.9603 -0.770412 45.4707 0.980713 48.0316C6.69559 56.3894 6.28021 55.8343 6.56709 56.0711L13.6111 61.8836V62.125C13.6111 63.1605 14.4506 64 15.4862 64C16.5218 64 17.3613 63.1605 17.3613 62.125V61C17.3613 60.4404 17.1113 59.91 16.6797 59.5539L9.15871 53.3478L4.07646 45.9151C3.49109 45.0591 3.71084 43.8857 4.56609 43.2994C5.42546 42.7104 6.59759 42.9299 7.18559 43.7901L10.1876 48.1829C10.6515 48.8619 11.5043 49.1592 12.2895 48.9164C13.0752 48.6736 13.611 47.9473 13.611 47.125V26.5C13.611 25.4661 14.4521 24.625 15.4861 24.625C16.4623 24.625 17.3612 25.386 17.3612 26.5625V37.75C17.3612 38.7855 18.2007 39.625 19.2363 39.625C20.272 39.625 21.1115 38.7855 21.1115 37.75C21.1115 35.8556 21.1115 24.1485 21.1115 22.75C21.1115 21.7161 21.9526 20.875 22.9866 20.875C24.0206 20.875 24.8617 21.7161 24.8617 22.75V37.75C24.8617 38.7855 25.7012 39.625 26.7368 39.625C27.7725 39.625 28.612 38.7855 28.612 37.75C28.612 36.5116 28.612 25.9538 28.612 24.625C28.612 23.5911 29.4531 22.75 30.4871 22.75C31.5211 22.75 32.3622 23.5911 32.3622 24.625V37.75C32.3622 38.7855 33.2017 39.625 34.2373 39.625C35.273 39.625 36.1125 38.7855 36.1125 37.75C36.1125 36.5055 36.1125 32.8099 36.1125 31.5C36.1125 30.4661 36.9536 29.625 37.9876 29.625C39.0216 29.625 39.8627 30.4661 39.8627 31.5V49.3218C39.8627 52.2409 38.7258 54.9851 36.6616 57.0491C36.3098 57.4007 36.1123 57.8776 36.1123 58.375V62.125C36.1123 63.1605 36.9518 64 37.9875 64C39.0231 64 39.8626 63.1605 39.8626 62.125V59.1217C42.287 56.4253 43.6128 52.9755 43.6128 49.3218V31.5C43.6128 28.7922 41.6895 26.5257 39.1371 25.9935C39.1371 24.0928 39.1371 6.04325 39.1371 5.625C39.1371 4.59113 39.9782 3.75 41.0122 3.75C42.0462 3.75 42.8873 4.59113 42.8873 5.625V22.75C42.8873 23.7855 43.7268 24.625 44.7625 24.625C45.7981 24.625 46.6376 23.7855 46.6376 22.75V9.4375C46.6376 8.25275 47.5453 7.5 48.5127 7.5C49.5466 7.5 50.3878 8.34113 50.3878 9.375V33.75C50.3878 34.5723 50.9236 35.2986 51.7093 35.5414C52.4951 35.7841 53.3473 35.4868 53.8112 34.8079L56.8132 30.4151C57.4011 29.555 58.5732 29.3354 59.4326 29.9244C60.288 30.5107 60.5077 31.6841 59.9223 32.5401L54.8237 39.9969L48.0256 45.9661C47.6202 46.3221 47.3877 46.8355 47.3877 47.375V62.125C47.3877 63.1605 48.2272 64 49.2628 64C50.2985 64 51.138 63.1605 51.138 62.125V48.2239C58.0423 42.1614 57.5972 42.5849 57.7863 42.3084L63.0183 34.6567C64.7703 32.0957 64.113 28.5854 61.554 26.8312ZM24.1367 17.2435V13.125C24.1367 12.0911 24.9778 11.25 26.0118 11.25C27.0458 11.25 27.887 12.0911 27.887 13.125V19.6395C27.8331 19.6677 27.7798 19.6968 27.727 19.7266C26.9247 18.4734 25.6405 17.5571 24.1367 17.2435ZM31.6372 19.1185C31.6372 15.232 31.6372 11.3649 31.6372 7.5C31.6372 6.46613 32.4783 5.625 33.5123 5.625C34.5463 5.625 35.3875 6.46613 35.3875 7.5V21.8671C34.6026 20.4781 33.2453 19.4538 31.6372 19.1185Z" fill="#0073E6"/>
<path d="M8.92209 11.5758C9.65421 12.3081 10.8417 12.3082 11.574 11.5758C12.3063 10.8436 12.3063 9.65644 11.574 8.92419L8.94871 6.29919C8.21646 5.56694 7.02909 5.56694 6.29684 6.29919C5.56446 7.03144 5.56446 8.21856 6.29684 8.95081L8.92209 11.5758Z" fill="#0073E6"/>
<path d="M16.2827 6.20276C16.5508 7.20301 17.5789 7.79664 18.5794 7.52851C19.5798 7.26051 20.1733 6.23239 19.9053 5.23213L18.9453 1.64963C18.6772 0.649259 17.6494 0.0558841 16.6485 0.323884C15.6482 0.591884 15.0547 1.62001 15.3227 2.62026L16.2827 6.20276Z" fill="#0073E6"/>
<path d="M1.64706 18.9463L5.22993 19.9063C6.23068 20.1744 7.25868 19.5804 7.52668 18.5805C7.79468 17.5803 7.20106 16.5522 6.20081 16.2842L2.61793 15.3242C1.61806 15.056 0.589306 15.6497 0.321181 16.6499C0.0531815 17.6502 0.646806 18.6783 1.64706 18.9463Z" fill="#0073E6"/>
</svg>
