<svg width="96" height="96" viewBox="0 0 96 96" fill="none" xmlns="http://www.w3.org/2000/svg">
<g clip-path="url(#clip0)">
<path d="M70.4877 9.64255L61.4672 18.6207C60.9578 18.1113 60.4059 17.6655 59.8116 17.2835L59.6206 17.1774C57.9226 16.0949 55.9699 15.5218 53.9748 15.5218C52.6164 15.5218 51.2792 15.7765 50.0057 16.2859C49.4964 16.4982 49.0294 16.7316 48.5625 17.0288L48.138 17.2623L47.9257 17.4108C43.7444 14.5455 38.0986 15.0337 34.4904 18.5994L25.4698 9.6001L0 35.0699L8.95689 44.0905L11.8859 47.1681C12.7137 47.9959 14.0509 47.9959 14.8786 47.1681C15.7064 46.3403 15.7064 45.0032 14.8786 44.1754L24.6421 34.4119L28.3989 30.6552L35.8912 23.1628L37.3982 21.6558C39.3084 19.8093 42.1738 19.3423 44.5722 20.4884L34.4055 30.6552C31.9222 33.1385 31.9222 37.1712 34.4055 39.6545L35.8912 41.1615C38.3745 43.6448 42.4073 43.666 44.8906 41.1827C44.8906 41.1827 44.8906 41.1827 44.9118 41.1615L55.4181 30.6552L77.4919 52.729C79.6144 54.8515 79.954 57.1438 79.4234 57.6744L77.9164 59.1814C77.4283 59.4148 76.834 59.4148 76.3458 59.1814C75.0511 58.7781 73.9049 58.0564 72.9923 57.0589L65.6272 49.8212C64.7995 48.9934 63.4411 48.9934 62.6133 49.8212C61.7855 50.649 61.7855 52.0074 62.6133 52.8351L70.042 60.2638C72.1645 62.3863 72.5041 64.6786 71.9735 65.188L70.4877 66.6949C69.9783 66.9072 69.4265 66.9072 68.9171 66.6949C67.6224 66.2917 66.455 65.57 65.5423 64.5725L58.1136 57.1438C57.2859 56.316 55.9487 56.316 55.1209 57.1438C54.2932 57.9715 54.2932 59.3087 55.0997 60.1365C55.0997 60.1365 55.0997 60.1365 55.1209 60.1577L62.5284 67.5652C64.6509 69.6877 65.0117 71.9799 64.4811 72.5106L62.9741 74.0175C62.4435 74.5269 60.1725 74.2085 58.0287 72.0648L50.6 64.6574C49.7723 63.8296 48.4351 63.8296 47.6073 64.6574C47.48 64.7847 47.3739 64.9333 47.3102 65.1031L46.8432 64.9545C47.3951 62.8108 46.8008 60.5397 45.2726 58.9479L43.7656 57.4621C43.0228 56.7193 42.1101 56.1886 41.1125 55.8915C41.7493 53.6629 41.1338 51.2433 39.4782 49.6089L37.9713 48.1232C35.7426 45.9158 32.2193 45.6611 29.6936 47.5289C29.3752 46.8285 28.9507 46.213 28.4201 45.6611L26.9556 44.0905C24.4723 41.6072 20.4395 41.6072 17.9562 44.0905L14.9423 47.0832C12.459 49.5665 12.459 53.5992 14.9423 56.0825L16.4493 57.5895C17.5954 58.7144 19.1024 59.3511 20.6942 59.4148C20.7367 61.0067 21.3946 62.5349 22.5196 63.6598L24.0265 65.1455C25.1514 66.2705 26.6796 66.9284 28.2715 66.9921C28.3352 68.584 28.9719 70.0909 30.0968 71.2371L31.6038 72.744C32.7287 73.8689 34.2569 74.5269 35.8488 74.5694C35.8912 76.1612 36.5492 77.6894 37.6741 78.8143L39.1811 80.3213C40.3697 81.5099 42.004 82.1679 43.6807 82.1679C44.6146 82.1679 45.5485 81.9556 46.3975 81.5311L47.7347 82.8683C49.6025 84.8846 52.1919 86.1157 54.9299 86.2643C56.3095 86.243 57.6255 85.6912 58.5806 84.6936L60.0876 83.1867C61.2549 81.9344 61.7643 80.194 61.4459 78.5172C61.7431 78.5809 62.019 78.6021 62.3162 78.6233C63.717 78.6658 65.0754 78.1351 66.0942 77.18L67.5799 75.6731C68.7473 74.4208 69.2567 72.7016 68.9383 71.0248C69.2355 71.0885 69.5114 71.1097 69.8085 71.1309C71.1669 71.1309 72.4616 70.6215 73.438 69.6877L74.945 68.1807C76.1123 66.9284 76.6217 65.188 76.3033 63.5112C76.6005 63.5749 76.8764 63.5961 77.1736 63.6173C78.5744 63.6598 79.9328 63.1504 80.9516 62.1741L82.4373 60.6671C84.9631 58.1413 84.1141 53.3445 80.5059 49.7363L79.4446 48.675L58.5806 27.6624C59.4084 26.8347 59.4084 25.4975 58.6018 24.6697C58.6018 24.6697 58.6018 24.6697 58.5806 24.6485C57.7528 23.8207 56.4157 23.8207 55.5879 24.6485L42.0677 38.1687C41.2399 38.9965 39.9027 38.9965 39.075 38.1687L37.568 36.6618C36.7402 35.834 36.7402 34.4968 37.568 33.6691L49.5813 21.6558C52.0858 19.2362 56.0761 19.2362 58.5806 21.6558L60.0876 23.1628L67.5799 30.6552L71.3155 34.4119L81.0789 44.1754L79.572 45.6611C78.7442 46.4889 78.7442 47.8261 79.572 48.6538C80.3997 49.4816 81.7369 49.4816 82.5647 48.675L84.0716 47.1681L86.9794 44.0905L96 35.0699L70.4877 9.64255ZM5.94296 35.1124L25.4486 15.6067L31.4552 21.6134L21.713 31.3556L17.9562 35.1124L11.8859 41.1615L5.94296 35.1124ZM17.9562 53.1323C17.1285 52.3045 17.1285 50.9673 17.935 50.1396C17.935 50.1396 17.935 50.1396 17.9562 50.1183L20.9489 47.1256C21.7767 46.2979 23.1139 46.2979 23.9416 47.1044C23.9416 47.1044 23.9416 47.1044 23.9629 47.1256L25.4486 48.6326C26.2764 49.4604 26.2764 50.7975 25.4486 51.6253L22.4983 54.7029C21.6706 55.5307 20.3334 55.5307 19.5056 54.7029L17.9562 53.1323ZM25.4486 60.6246C24.6208 59.7969 24.6208 58.4597 25.4486 57.6319L28.4625 54.7029L32.0071 51.1584C32.8348 50.3306 34.172 50.3306 34.9998 51.1371C34.9998 51.1371 34.9998 51.1371 35.021 51.1584L36.5067 52.6653C37.3345 53.4931 37.3345 54.8303 36.5067 55.658L34.7663 57.4197L29.9483 62.2165C29.1205 63.0443 27.7833 63.0443 26.9556 62.2165L25.4486 60.6246ZM32.9622 68.1382C32.1344 67.3105 32.1344 65.9733 32.941 65.1455C32.941 65.1455 32.941 65.1455 32.9622 65.1243L37.759 60.3275C38.1623 59.9242 38.6929 59.712 39.266 59.712C39.839 59.712 40.3697 59.9242 40.7729 60.3275L42.2587 61.8345C43.0864 62.6622 43.0864 63.9994 42.2587 64.8272L40.4546 66.6313L37.4619 69.6452C36.6341 70.473 35.2969 70.473 34.4692 69.6452L32.9622 68.1382ZM41.9615 77.1376L40.4546 75.6306C39.6268 74.8028 39.6268 73.4657 40.4546 72.6379L43.4685 69.6452C44.2963 68.8174 45.6334 68.8174 46.4612 69.6452L47.9682 71.1309C48.7959 71.9587 48.7959 73.2959 47.9894 74.1236C47.9894 74.1236 47.9894 74.1236 47.9682 74.1449L44.9755 77.1376C44.1689 77.9866 42.8105 78.0078 41.9828 77.2012C41.9828 77.2012 41.9828 77.2012 41.9615 77.18V77.1376ZM55.036 75.2061C57.1585 77.3286 57.4981 79.6209 56.9675 80.1515L55.4818 81.6372C54.9936 81.8707 54.3993 81.8707 53.9111 81.6372C52.6164 81.2552 51.449 80.5123 50.5364 79.5148L49.4751 78.4535L50.9609 76.9465C52.0858 75.8216 52.7438 74.2934 52.8074 72.7016L54.9299 74.8241L55.036 75.2061ZM84.0504 41.1615L78.0438 35.1548L74.2233 31.3556L64.4811 21.6134L70.4877 15.6067L89.9934 35.1124L84.0504 41.1615Z" fill="#0073E6"/>
</g>
<defs>
<clipPath id="clip0">
<rect width="96" height="76.6642" fill="white" transform="translate(0 9.6001)"/>
</clipPath>
</defs>
</svg>
