<svg width="50" height="48" viewBox="0 0 50 48" fill="none" xmlns="http://www.w3.org/2000/svg">
<path d="M46.3654 42.1782H2.75684V46.3655H46.3654V42.1782Z" stroke="#0073E6" stroke-width="1.3401" stroke-miterlimit="10" stroke-linecap="round" stroke-linejoin="round"/>
<path d="M24.6124 1.63354L48.1018 12.6633V17.4633H24.6124H1.12305V12.6633L24.6124 1.63354Z" stroke="#0073E6" stroke-width="1.3401" stroke-miterlimit="10" stroke-linecap="round" stroke-linejoin="round"/>
<path d="M12.9701 17.4634V20.4251H5.31055V17.4634" stroke="#0073E6" stroke-width="1.3401" stroke-miterlimit="10" stroke-linecap="round" stroke-linejoin="round"/>
<path d="M5.31055 41.9739V39.0122H12.9701V41.9739" stroke="#0073E6" stroke-width="1.3401" stroke-miterlimit="10" stroke-linecap="round" stroke-linejoin="round"/>
<path d="M11.6426 20.425V38.7059" stroke="#0073E6" stroke-width="1.3401" stroke-miterlimit="10" stroke-linecap="round" stroke-linejoin="round"/>
<path d="M6.63867 38.7059V20.425" stroke="#0073E6" stroke-width="1.3401" stroke-miterlimit="10" stroke-linecap="round" stroke-linejoin="round"/>
<path d="M23.2846 17.4634V20.4251H15.625V17.4634" stroke="#0073E6" stroke-width="1.3401" stroke-miterlimit="10" stroke-linecap="round" stroke-linejoin="round"/>
<path d="M15.625 41.9739V39.0122H23.2846V41.9739" stroke="#0073E6" stroke-width="1.3401" stroke-miterlimit="10" stroke-linecap="round" stroke-linejoin="round"/>
<path d="M21.957 20.425V38.7059" stroke="#0073E6" stroke-width="1.3401" stroke-miterlimit="10" stroke-linecap="round" stroke-linejoin="round"/>
<path d="M16.9531 38.7059V20.425" stroke="#0073E6" stroke-width="1.3401" stroke-miterlimit="10" stroke-linecap="round" stroke-linejoin="round"/>
<path d="M33.6 17.4634V20.4251H25.9404V17.4634" stroke="#0073E6" stroke-width="1.3401" stroke-miterlimit="10" stroke-linecap="round" stroke-linejoin="round"/>
<path d="M25.9404 41.9739V39.0122H33.6V41.9739" stroke="#0073E6" stroke-width="1.3401" stroke-miterlimit="10" stroke-linecap="round" stroke-linejoin="round"/>
<path d="M32.2725 20.425V38.7059" stroke="#0073E6" stroke-width="1.3401" stroke-miterlimit="10" stroke-linecap="round" stroke-linejoin="round"/>
<path d="M27.2686 38.7059V20.425" stroke="#0073E6" stroke-width="1.3401" stroke-miterlimit="10" stroke-linecap="round" stroke-linejoin="round"/>
<path d="M43.8123 17.4634V20.4251H36.2549V17.4634" stroke="#0073E6" stroke-width="1.3401" stroke-miterlimit="10" stroke-linecap="round" stroke-linejoin="round"/>
<path d="M36.2549 41.9739V39.0122H43.8123V41.9739" stroke="#0073E6" stroke-width="1.3401" stroke-miterlimit="10" stroke-linecap="round" stroke-linejoin="round"/>
<path d="M42.4854 20.425V38.7059" stroke="#0073E6" stroke-width="1.3401" stroke-miterlimit="10" stroke-linecap="round" stroke-linejoin="round"/>
<path d="M37.583 38.7059V20.425" stroke="#0073E6" stroke-width="1.3401" stroke-miterlimit="10" stroke-linecap="round" stroke-linejoin="round"/>
<path d="M17.4639 12.6633H17.8724" stroke="#0073E6" stroke-width="1.3401" stroke-miterlimit="10" stroke-linecap="round" stroke-linejoin="round"/>
<path d="M31.251 12.6633H31.6595" stroke="#0073E6" stroke-width="1.3401" stroke-miterlimit="10" stroke-linecap="round" stroke-linejoin="round"/>
<path d="M15.1151 12.6633H1.73633" stroke="#0073E6" stroke-width="1.3401" stroke-miterlimit="10" stroke-linecap="round" stroke-linejoin="round"/>
<path d="M34.0088 12.6633H47.4897" stroke="#0073E6" stroke-width="1.3401" stroke-miterlimit="10" stroke-linecap="round" stroke-linejoin="round"/>
<path d="M27.8804 13.174C27.2677 13.6846 26.4506 13.991 25.5315 13.991C23.4889 13.991 21.957 12.3569 21.957 10.4165C21.957 8.37396 23.5911 6.84204 25.5315 6.84204C26.3485 6.84204 27.1655 7.14843 27.7783 7.55694" stroke="#0073E6" stroke-width="1.3401" stroke-miterlimit="10" stroke-linecap="round" stroke-linejoin="round"/>
<path d="M21.2422 9.19092H25.5316" stroke="#0073E6" stroke-width="1.3401" stroke-miterlimit="10" stroke-linecap="round" stroke-linejoin="round"/>
<path d="M21.2422 11.4377H25.5316" stroke="#0073E6" stroke-width="1.3401" stroke-miterlimit="10" stroke-linecap="round" stroke-linejoin="round"/>
</svg>
