<svg width="96" height="96" viewBox="0 0 96 96" fill="none" xmlns="http://www.w3.org/2000/svg">
<mask id="mask0" mask-type="alpha" maskUnits="userSpaceOnUse" x="4" y="12" width="88" height="75">
<path fill-rule="evenodd" clip-rule="evenodd" d="M91.1998 12H4.7998V80.6769H7.6798V86.4H22.0798V80.6769H73.9198V86.4H88.3198V80.6769H91.1998V12ZM19.1998 83.5385H10.5598V80.6769H19.1998V83.5385ZM76.7998 80.6769V83.5385H85.4398V80.6769H76.7998ZM88.3198 77.8154H73.9198H22.0798H7.6798V14.8615H88.3198V77.8154ZM13.4513 74.9538H82.5483C84.1438 74.9538 85.4398 73.6662 85.4398 72.0809V67.8C86.2361 67.8 86.8798 67.1604 86.8798 66.3692C86.8798 65.578 86.2361 64.9385 85.4398 64.9385V63.5077C86.2361 63.5077 86.8798 62.8681 86.8798 62.0769C86.8798 61.2857 86.2361 60.6461 85.4398 60.6461V32.0308C86.2361 32.0308 86.8798 31.3912 86.8798 30.6C86.8798 29.8088 86.2361 29.1692 85.4398 29.1692V27.7385C86.2361 27.7385 86.8798 27.0989 86.8798 26.3077C86.8798 25.5165 86.2361 24.8769 85.4398 24.8769V20.5961C85.4398 19.0108 84.1438 17.7231 82.5483 17.7231H13.4513C11.8558 17.7231 10.5598 19.0108 10.5598 20.5961V72.0809C10.5598 73.6662 11.8558 74.9538 13.4513 74.9538ZM13.4513 20.5846L82.5598 20.5961V24.8769H81.1198C80.3235 24.8769 79.6798 25.5165 79.6798 26.3077C79.6798 27.0989 80.3235 27.7385 81.1198 27.7385H82.5584V29.1692H81.1198C80.3235 29.1692 79.6798 29.8088 79.6798 30.6C79.6798 31.3912 80.3235 32.0308 81.1198 32.0308H82.5584L82.554 60.6462H81.1198C80.3235 60.6462 79.6798 61.2857 79.6798 62.0769C79.6798 62.8681 80.3235 63.5077 81.1198 63.5077H82.554V64.9385H81.1198C80.3235 64.9385 79.6798 65.578 79.6798 66.3692C79.6798 67.1604 80.3235 67.8 81.1198 67.8H82.554V72.0923H82.5497L13.4398 72.0809L13.4513 20.5846ZM70.3137 34.219C70.3178 34.2269 70.3218 34.2347 70.3284 34.2413C73.436 37.3475 75.3598 41.6227 75.3598 46.3385C75.3598 51.0543 73.436 55.3294 70.327 58.4356C70.3219 58.4419 70.3182 58.4488 70.3146 58.4557L70.3145 58.4557C70.31 58.4643 70.3054 58.4728 70.2982 58.48C70.2946 58.4836 70.2906 58.4864 70.2865 58.4889C70.2833 58.4908 70.2799 58.4925 70.2766 58.4943C70.2736 58.4958 70.2706 58.4974 70.2677 58.4991C70.2632 58.5017 70.2589 58.5047 70.255 58.5086C67.1288 61.5962 62.826 63.5077 58.0798 63.5077C53.3336 63.5077 49.0308 61.5962 45.9032 58.5086C45.8974 58.5035 45.8909 58.5002 45.8842 58.4967C45.8758 58.4924 45.8672 58.488 45.86 58.48C45.8537 58.473 45.8498 58.4654 45.8459 58.458C45.8419 58.45 45.8378 58.4423 45.8312 58.4356C42.7236 55.3294 40.7998 51.0543 40.7998 46.3385C40.7998 41.6227 42.7236 37.3475 45.8326 34.2413C45.8377 34.235 45.8414 34.228 45.8451 34.2212C45.8497 34.2126 45.8542 34.2041 45.8614 34.197C45.8679 34.1905 45.8755 34.1866 45.883 34.1826C45.8906 34.1787 45.8981 34.1748 45.9046 34.1683C49.0308 31.0807 53.3336 29.1692 58.0798 29.1692C62.826 29.1692 67.1288 31.0807 70.2564 34.1683C70.2622 34.1734 70.2687 34.1768 70.2754 34.1802C70.2838 34.1845 70.2924 34.189 70.2996 34.197C70.3059 34.2039 70.3098 34.2115 70.3137 34.219ZM72.4064 47.7692H71.0398C70.2435 47.7692 69.5998 47.1297 69.5998 46.3385C69.5998 45.5472 70.2435 44.9077 71.0398 44.9077H72.4064C72.1184 42.0347 70.9692 39.4107 69.2225 37.2903L68.262 38.2446C67.9812 38.5236 67.6126 38.6638 67.244 38.6638C66.8753 38.6638 66.5067 38.5236 66.2259 38.2446C65.6628 37.6852 65.6628 36.7809 66.2259 36.2215L67.1864 35.2672C65.0523 33.5316 62.4113 32.3899 59.5198 32.1037V33.4615C59.5198 34.2528 58.8761 34.8923 58.0798 34.8923C57.2835 34.8923 56.6398 34.2528 56.6398 33.4615V32.1037C53.7483 32.3899 51.1073 33.5316 48.9732 35.2672L49.9337 36.2215C50.4968 36.7809 50.4968 37.6852 49.9337 38.2446C49.6529 38.5236 49.2843 38.6638 48.9156 38.6638C48.547 38.6638 48.1784 38.5236 47.8976 38.2446L46.9371 37.2903C45.1904 39.4107 44.0412 42.0347 43.7532 44.9077H45.1198C45.9161 44.9077 46.5598 45.5472 46.5598 46.3385C46.5598 47.1297 45.9161 47.7692 45.1198 47.7692H43.7532C44.0412 50.6422 45.1904 53.2663 46.9371 55.3867L47.8976 54.4323C48.4606 53.8729 49.3707 53.8729 49.9337 54.4323C50.4968 54.9918 50.4968 55.896 49.9337 56.4554L48.9732 57.4098C51.1073 59.1453 53.7483 60.287 56.6398 60.5732V59.2154C56.6398 58.4242 57.2835 57.7846 58.0798 57.7846C58.8761 57.7846 59.5198 58.4242 59.5198 59.2154V60.5732C62.4113 60.287 65.0523 59.1453 67.1864 57.4098L66.2259 56.4554C65.6628 55.896 65.6628 54.9918 66.2259 54.4323C66.7889 53.8729 67.699 53.8729 68.262 54.4323L69.2225 55.3867C70.9692 53.2663 72.1184 50.6422 72.4064 47.7692ZM58.0798 40.6154C54.9032 40.6154 52.3198 43.1822 52.3198 46.3385C52.3198 49.4947 54.9032 52.0615 58.0798 52.0615C61.2564 52.0615 63.8398 49.4947 63.8398 46.3385C63.8398 43.1822 61.2564 40.6154 58.0798 40.6154ZM58.0798 49.2C56.4915 49.2 55.1998 47.9166 55.1998 46.3385C55.1998 44.7603 56.4915 43.4769 58.0798 43.4769C59.6681 43.4769 60.9598 44.7603 60.9598 46.3385C60.9598 47.9166 59.6681 49.2 58.0798 49.2ZM27.8398 32.0308C27.0435 32.0308 26.3998 32.6703 26.3998 33.4615V34.8923C25.6035 34.8923 24.9598 35.5319 24.9598 36.3231C24.9598 37.1143 25.6035 37.7538 26.3998 37.7538V57.7846C25.6035 57.7846 24.9598 58.4242 24.9598 59.2154C24.9598 60.0066 25.6035 60.6462 26.3998 60.6462V62.0769C26.3998 62.8681 27.0435 63.5077 27.8398 63.5077C28.6361 63.5077 29.2798 62.8681 29.2798 62.0769V33.4615C29.2798 32.6703 28.6361 32.0308 27.8398 32.0308ZM22.0798 34.8923C22.8761 34.8923 23.5198 35.5319 23.5198 36.3231C23.5198 37.1143 22.8761 37.7538 22.0798 37.7538V57.7846C22.8761 57.7846 23.5198 58.4242 23.5198 59.2154C23.5198 60.0066 22.8761 60.6462 22.0798 60.6462V62.0769C22.0798 62.8681 21.4361 63.5077 20.6398 63.5077C19.8435 63.5077 19.1998 62.8681 19.1998 62.0769V33.4615C19.1998 32.6703 19.8435 32.0308 20.6398 32.0308C21.4361 32.0308 22.0798 32.6703 22.0798 33.4615V34.8923Z" fill="white"/>
</mask>
<g mask="url(#mask0)">
<rect x="-68.6616" y="-87.8962" width="240" height="240" fill="#0073E6"/>
</g>
</svg>
