<svg width="96" height="96" viewBox="0 0 96 96" fill="none" xmlns="http://www.w3.org/2000/svg">
<g clip-path="url(#clip0)">
<path d="M93.1767 0H2.82373V84.7059H11.2943V96H24.3334L29.9804 84.7059H66.0198L71.6668 96H84.7061V84.7059H93.1767V0ZM76.2355 22.5882H70.5884V28.2353H76.2355V56.4706H70.5884V62.1176H76.2355V67.7647H19.7649V62.1176H25.412V45.1765H19.7649V39.5294H25.412V22.5882H19.7649V16.9412H76.2355V22.5882ZM19.7649 50.8235V56.4706H8.47079V50.8235H19.7649ZM19.7649 28.2353V33.8824H8.47079V28.2353H19.7649ZM8.47079 39.5294H14.1178V45.1765H8.47079V39.5294ZM20.8433 90.3529H16.9414V84.7059H23.6668L20.8433 90.3529ZM79.059 90.3529H75.1571L72.3336 84.7059H79.059V90.3529ZM87.5296 79.0588C77.3549 79.0588 20.1096 79.0588 8.47079 79.0588V62.1176H14.1178V73.4118H81.8826V11.2941H14.1178V22.5882H8.47079V5.64706H87.5296V79.0588Z" fill="#0073E6"/>
<path d="M38.2749 48.0856L34.0245 52.3357L38.0176 56.3288L42.2679 52.0786C43.1658 52.61 44.1422 53.0226 45.1767 53.2897V59.2942H50.8238V53.2897C51.8583 53.0226 52.8347 52.61 53.7326 52.0786L57.983 56.3288L61.976 52.3357L57.7256 48.0856C58.257 47.1875 58.6698 46.2111 58.9371 45.1766H64.9415V39.5295H58.9371C58.6698 38.4948 58.2572 37.5186 57.7256 36.6205L61.976 32.3704L57.983 28.3773L53.7326 32.6275C52.8345 32.0961 51.8583 31.6835 50.8238 31.4162V25.4119H45.1767V31.4162C44.1422 31.6835 43.1658 32.0961 42.2679 32.6275L38.0176 28.3773L34.0245 32.3704L38.2749 36.6205C37.7433 37.5186 37.3307 38.495 37.0634 39.5295H31.0591V45.1766H37.0634C37.3307 46.2113 37.7433 47.1875 38.2749 48.0856ZM48.0003 36.706C51.1141 36.706 53.6473 39.2393 53.6473 42.353C53.6473 45.4668 51.1141 48.0001 48.0003 48.0001C44.8865 48.0001 42.3532 45.4668 42.3532 42.353C42.3532 39.2393 44.8865 36.706 48.0003 36.706Z" fill="#0073E6"/>
</g>
<defs>
<clipPath id="clip0">
<rect width="96" height="96" fill="white"/>
</clipPath>
</defs>
</svg>
