<svg width="50" height="48" viewBox="0 0 50 48" fill="none" xmlns="http://www.w3.org/2000/svg">
<path d="M21.957 39.0854V41.4855C21.957 44.6855 19.608 47.1997 16.8506 47.1997H32.5782C29.7187 47.1997 27.4719 44.5712 27.4719 41.4855V39.0854" stroke="#0073E6" stroke-width="1.3401" stroke-miterlimit="10" stroke-linecap="round" stroke-linejoin="round"/>
<path d="M48.2043 36.1142C48.2043 37.7142 46.9788 39.0856 45.549 39.0856H3.88091C2.45112 39.0856 1.22559 37.7142 1.22559 36.1142V32.9142C1.22559 31.3142 1.22559 28.6856 1.22559 26.9713V4.457C1.22559 2.857 2.45112 1.4856 3.88091 1.4856H45.549C46.9788 1.4856 48.2043 2.857 48.2043 4.457V36.1142Z" stroke="#0073E6" stroke-width="1.3401" stroke-miterlimit="10" stroke-linecap="round" stroke-linejoin="round"/>
<path d="M48.2043 30.5142H1.22559" stroke="#0073E6" stroke-width="1.3401" stroke-miterlimit="10" stroke-linecap="round" stroke-linejoin="round"/>
<path d="M25.3386 34.857C25.3386 35.3295 25.0081 35.6142 24.7152 35.6142C24.4223 35.6142 24.0918 35.3295 24.0918 34.857C24.0918 34.3845 24.4223 34.0999 24.7152 34.0999C25.0081 34.0999 25.3386 34.3845 25.3386 34.857Z" fill="#5A6772" stroke="#0073E6"/>
</svg>
