<svg width="96" height="96" viewBox="0 0 96 96" fill="none" xmlns="http://www.w3.org/2000/svg">
<mask id="mask0" mask-type="alpha" maskUnits="userSpaceOnUse" x="0" y="0" width="96" height="96">
<path fill-rule="evenodd" clip-rule="evenodd" d="M47.9652 0.405029C21.7174 0.405029 0.361938 21.7605 0.361938 48.0083C0.361938 74.2562 21.7174 95.6116 47.9652 95.6116C74.2131 95.6116 95.5685 74.2562 95.5685 48.0083C95.5685 21.7605 74.2131 0.405029 47.9652 0.405029ZM47.9652 90.8552C24.3383 90.8552 5.11839 71.6353 5.11839 48.0083C5.11839 24.3814 24.3383 5.16148 47.9652 5.16148C71.5922 5.16148 90.8121 24.3814 90.8121 48.0083C90.8121 71.6353 71.5922 90.8552 47.9652 90.8552ZM42.1798 54.5703L60.4291 36.4181C61.361 35.4863 62.8558 35.4863 63.7877 36.4181C64.7002 37.35 64.7002 38.8449 63.7683 39.7768L43.83 59.5985C43.3641 60.0645 42.7623 60.2974 42.1604 60.2974C41.5392 60.2974 40.9373 60.0645 40.4714 59.5985L32.1428 51.2117C31.2303 50.2798 31.2303 48.7655 32.1622 47.853C33.0941 46.9406 34.5889 46.9406 35.5208 47.8724L42.1798 54.5703Z" fill="white"/>
</mask>
<g mask="url(#mask0)">
<rect x="-7.1405" y="-19.0415" width="115.835" height="122.182" fill="#0073E6"/>
</g>
</svg>
