<svg width="42" height="48" viewBox="0 0 42 48" fill="none" xmlns="http://www.w3.org/2000/svg">
<path d="M23.6244 43.5485C23.6244 43.4612 23.4494 43.374 23.3619 43.374H21.6119L21.0869 41.7158C21.0869 41.6285 20.9119 41.5413 20.8244 41.5413C20.7369 41.5413 20.5619 41.6285 20.5619 41.7158L20.0369 43.374H18.2869C18.1994 43.374 18.0244 43.4612 18.0244 43.5485C18.0244 43.6358 18.0244 43.8104 18.1119 43.8976L19.5119 44.9449L18.9869 46.6031C18.9869 46.6903 18.9869 46.8649 19.0744 46.9522C19.1619 47.0395 19.3369 47.0395 19.4244 46.9522L20.8244 45.9049L22.2244 46.9522C22.3119 46.9522 22.3119 47.0394 22.3994 47.0394C22.4869 47.0394 22.4869 47.0395 22.5744 46.9522C22.6619 46.8649 22.7494 46.7776 22.6619 46.6031L22.1369 44.9449L23.5369 43.8976C23.6244 43.7231 23.7119 43.6358 23.6244 43.5485Z" stroke="#0073E6" stroke-width="1.3537" stroke-miterlimit="10" stroke-linecap="round" stroke-linejoin="round"/>
<path d="M11.6377 27.8396C11.6377 33.5123 20.2127 37.1778 20.5627 37.2651C20.6502 37.2651 20.7377 37.3523 20.8252 37.3523C20.9127 37.3523 21.0002 37.3523 21.0877 37.2651C21.3502 37.1778 24.7627 35.6942 27.3002 33.2505L11.6377 18.1523V27.8396V27.8396Z" stroke="#0073E6" stroke-width="1.3537" stroke-miterlimit="10" stroke-linecap="round" stroke-linejoin="round"/>
<path d="M30.0129 13.6141C30.0129 13.265 29.7504 13.0032 29.4004 13.0032H17.5879L30.0129 24.9596V13.6141Z" stroke="#0073E6" stroke-width="1.3537" stroke-miterlimit="10" stroke-linecap="round" stroke-linejoin="round"/>
<path d="M27.3002 33.2503C28.7877 31.7667 30.0127 29.934 30.0127 27.8394V25.0467L17.5877 13.0903H12.2502C11.9002 13.0903 11.6377 13.3522 11.6377 13.7013V18.2394L27.3002 33.2503Z" stroke="#0073E6" stroke-width="1.3537" stroke-miterlimit="10" stroke-linecap="round" stroke-linejoin="round"/>
<path d="M24.8503 10.5595H16.8003C16.4503 10.5595 16.1878 10.2976 16.1878 9.94855V8.20309L14.7003 4.27582C14.6128 4.014 14.7003 3.7522 14.8753 3.57765C15.0503 3.4031 15.4003 3.4031 15.5753 3.57765L18.7253 5.84675L20.3003 1.22128C20.3878 0.959458 20.5628 0.784912 20.8253 0.784912C21.0878 0.784912 21.2628 0.959458 21.3503 1.22128L22.9253 5.84675L26.0753 3.57765C26.2503 3.4031 26.6003 3.4031 26.7753 3.57765C26.9503 3.7522 27.0378 4.014 26.9503 4.27582L25.4628 8.20309V9.94855C25.4628 10.2976 25.2003 10.5595 24.8503 10.5595Z" stroke="#0073E6" stroke-width="1.3537" stroke-miterlimit="10" stroke-linecap="round" stroke-linejoin="round"/>
<path d="M16.1875 8.20312H19.425" stroke="#0073E6" stroke-width="1.3537" stroke-miterlimit="10" stroke-linecap="round" stroke-linejoin="round"/>
<path d="M22.1377 8.20312H25.3752" stroke="#0073E6" stroke-width="1.3537" stroke-miterlimit="10" stroke-linecap="round" stroke-linejoin="round"/>
<path d="M11.0244 45.5559C11.7244 45.1196 11.9869 44.3341 11.9869 43.6359C11.3744 43.4614 10.6744 43.3741 9.97442 43.8105C9.27442 44.1596 8.83691 44.8578 8.83691 45.5559C9.53691 45.9923 10.4119 45.9923 11.0244 45.5559Z" stroke="#0073E6" stroke-width="1.3537" stroke-miterlimit="10" stroke-linecap="round" stroke-linejoin="round"/>
<path d="M7.26172 43.1121C8.04922 42.8503 8.48672 42.2394 8.66172 41.5412C8.13672 41.1921 7.43672 40.9303 6.64922 41.1049C5.86172 41.2794 5.24922 41.8031 5.07422 42.5012C5.68672 43.1122 6.47422 43.374 7.26172 43.1121Z" stroke="#0073E6" stroke-width="1.3537" stroke-miterlimit="10" stroke-linecap="round" stroke-linejoin="round"/>
<path d="M4.28731 39.7958C5.07481 39.7958 5.68731 39.2722 6.12481 38.6613C5.68731 38.1376 5.16231 37.7013 4.28731 37.7013C3.49981 37.614 2.7998 37.9631 2.3623 38.574C2.7998 39.2722 3.49981 39.7958 4.28731 39.7958Z" stroke="#0073E6" stroke-width="1.3537" stroke-miterlimit="10" stroke-linecap="round" stroke-linejoin="round"/>
<path d="M2.45 35.694C3.2375 35.8685 3.9375 35.6067 4.4625 35.1704C4.2 34.5594 3.7625 34.0358 2.975 33.774C2.1875 33.5122 1.4 33.5994 0.875 34.0358C1.1375 34.8212 1.6625 35.5194 2.45 35.694Z" stroke="#0073E6" stroke-width="1.3537" stroke-miterlimit="10" stroke-linecap="round" stroke-linejoin="round"/>
<path d="M1.74961 31.3304C2.44961 31.7668 3.23711 31.6795 3.84961 31.3304C3.76211 30.6322 3.4996 30.0213 2.8871 29.585C2.2746 29.1486 1.48711 28.9741 0.787109 29.3232C0.787109 29.7595 0.787107 30.1086 0.962107 30.4577C1.13711 30.8068 1.48711 31.0686 1.74961 31.3304Z" stroke="#0073E6" stroke-width="1.3537" stroke-miterlimit="10" stroke-linecap="round" stroke-linejoin="round"/>
<path d="M15.4869 44.5959C8.83691 43.6359 4.02441 37.8759 4.02441 31.4177" stroke="#0073E6" stroke-width="1.3537" stroke-miterlimit="10" stroke-linecap="round" stroke-linejoin="round"/>
<path d="M12.862 41.5413C12.9495 42.4141 12.687 43.1995 11.987 43.7232C11.112 43.3741 10.587 42.5014 10.6745 41.6286C10.6745 40.7559 11.287 40.0577 11.8995 39.6213C12.162 39.7959 12.4245 40.0577 12.5995 40.4068C12.7745 40.7559 12.862 41.1923 12.862 41.5413Z" stroke="#0073E6" stroke-width="1.3537" stroke-miterlimit="10" stroke-linecap="round" stroke-linejoin="round"/>
<path d="M9.27448 39.0104C9.01198 39.7959 8.39948 40.4941 7.61198 40.6686C6.99948 39.9704 6.82448 39.0104 7.17448 38.225C7.52448 37.4395 8.31198 37.0032 9.09948 36.8286C9.44948 37.4395 9.53698 38.225 9.27448 39.0104Z" stroke="#0073E6" stroke-width="1.3537" stroke-miterlimit="10" stroke-linecap="round" stroke-linejoin="round"/>
<path d="M7.1742 34.8214C6.6492 35.4323 5.8617 35.8687 4.9867 35.6941C4.7242 34.8214 4.8117 33.8614 5.5117 33.2505C6.1242 32.6396 6.9992 32.5523 7.7867 32.7269C7.9617 33.4251 7.7867 34.1232 7.1742 34.8214Z" stroke="#0073E6" stroke-width="1.3537" stroke-miterlimit="10" stroke-linecap="round" stroke-linejoin="round"/>
<path d="M6.21172 29.7596C5.77422 30.4577 4.98672 30.9814 4.19922 30.8941C3.76172 30.1086 3.84922 29.0614 4.46172 28.4505C5.07422 27.7523 5.86172 27.5778 6.64922 27.665C6.73672 28.0141 6.73672 28.3632 6.73672 28.7123C6.56172 29.0614 6.38672 29.4105 6.21172 29.7596Z" stroke="#0073E6" stroke-width="1.3537" stroke-miterlimit="10" stroke-linecap="round" stroke-linejoin="round"/>
<path d="M30.8873 45.5559C30.1873 45.1196 29.9248 44.3341 29.9248 43.6359C30.5373 43.4614 31.2373 43.3741 31.9373 43.8105C32.6373 44.1596 33.0748 44.8578 33.0748 45.5559C32.3748 45.9923 31.5873 45.9923 30.8873 45.5559Z" stroke="#0073E6" stroke-width="1.3537" stroke-miterlimit="10" stroke-linecap="round" stroke-linejoin="round"/>
<path d="M34.65 43.1121C33.8625 42.8503 33.425 42.2394 33.25 41.5412C33.775 41.1921 34.475 40.9303 35.2625 41.1049C36.05 41.2794 36.6625 41.8031 36.8375 42.5012C36.225 43.1122 35.4375 43.374 34.65 43.1121Z" stroke="#0073E6" stroke-width="1.3537" stroke-miterlimit="10" stroke-linecap="round" stroke-linejoin="round"/>
<path d="M37.6246 39.7958C36.8371 39.7958 36.2246 39.2722 35.7871 38.6613C36.2246 38.1376 36.7496 37.7013 37.6246 37.7013C38.4121 37.614 39.1121 37.9631 39.5496 38.574C39.1121 39.2722 38.4121 39.7958 37.6246 39.7958Z" stroke="#0073E6" stroke-width="1.3537" stroke-miterlimit="10" stroke-linecap="round" stroke-linejoin="round"/>
<path d="M39.4627 35.694C38.6752 35.8685 37.9752 35.6067 37.4502 35.1704C37.7127 34.5594 38.1502 34.0358 38.9377 33.774C39.7252 33.5122 40.5127 33.5994 41.0377 34.0358C40.7752 34.8212 40.2502 35.5194 39.4627 35.694Z" stroke="#0073E6" stroke-width="1.3537" stroke-miterlimit="10" stroke-linecap="round" stroke-linejoin="round"/>
<path d="M40.1625 31.3304C39.4625 31.7668 38.675 31.6795 38.0625 31.3304C38.15 30.6322 38.4125 30.0213 39.025 29.585C39.6375 29.1486 40.425 28.9741 41.125 29.3232C41.125 29.7595 41.125 30.1086 40.95 30.4577C40.775 30.8068 40.5125 31.0686 40.1625 31.3304Z" stroke="#0073E6" stroke-width="1.3537" stroke-miterlimit="10" stroke-linecap="round" stroke-linejoin="round"/>
<path d="M26.4248 44.5959C33.0748 43.6359 37.8873 37.8759 37.8873 31.4177" stroke="#0073E6" stroke-width="1.3537" stroke-miterlimit="10" stroke-linecap="round" stroke-linejoin="round"/>
<path d="M29.0494 41.5413C28.9619 42.4141 29.2244 43.1995 29.9244 43.7232C30.7994 43.3741 31.3244 42.5014 31.2369 41.6286C31.2369 40.7559 30.6244 40.0577 30.0119 39.6213C29.7494 39.7959 29.4869 40.0577 29.3119 40.4068C29.1369 40.7559 29.0494 41.1923 29.0494 41.5413Z" stroke="#0073E6" stroke-width="1.3537" stroke-miterlimit="10" stroke-linecap="round" stroke-linejoin="round"/>
<path d="M32.637 39.0104C32.8995 39.7959 33.512 40.4941 34.2995 40.6686C34.912 39.9704 35.087 39.0104 34.737 38.225C34.387 37.4395 33.5995 37.0032 32.812 36.8286C32.462 37.4395 32.3745 38.225 32.637 39.0104Z" stroke="#0073E6" stroke-width="1.3537" stroke-miterlimit="10" stroke-linecap="round" stroke-linejoin="round"/>
<path d="M34.7374 34.8214C35.2624 35.4323 36.0499 35.8687 36.9249 35.6941C37.1874 34.8214 37.0999 33.8614 36.3999 33.2505C35.7874 32.6396 34.9124 32.5523 34.1249 32.7269C33.9499 33.4251 34.1249 34.1232 34.7374 34.8214Z" stroke="#0073E6" stroke-width="1.3537" stroke-miterlimit="10" stroke-linecap="round" stroke-linejoin="round"/>
<path d="M35.6998 29.7596C36.1373 30.4577 36.9248 30.9814 37.7123 30.8941C38.1498 30.1086 38.0623 29.0614 37.4498 28.4505C36.8373 27.7523 36.0498 27.5778 35.2623 27.665C35.1748 28.0141 35.1748 28.3632 35.1748 28.7123C35.3498 29.0614 35.5248 29.4105 35.6998 29.7596Z" stroke="#0073E6" stroke-width="1.3537" stroke-miterlimit="10" stroke-linecap="round" stroke-linejoin="round"/>
</svg>
