<svg width="96" height="96" viewBox="0 0 96 96" fill="none" xmlns="http://www.w3.org/2000/svg">
<g clip-path="url(#clip0)">
<path d="M9.865 96H59.275C62.5 96 65.14 93.375 65.14 90.135V66.57H87.475C90.22 66.57 92.455 64.335 92.455 61.59C92.455 36.9 92.455 36.585 92.455 34.41C92.455 31.665 90.22 29.43 87.475 29.43H65.125V5.865C65.125 5.46 65.08 5.07 65.005 4.68C64.45 2.01 62.095 0 59.26 0H9.865C6.625 0 4 2.625 4 5.865C4 17.445 4 77.67 4 90.135C4 93.375 6.625 96 9.865 96ZM60.625 88.635C60.625 90.21 59.35 91.5 57.76 91.5H11.365C9.79 91.5 8.5 90.21 8.5 88.635V80.49H60.625V88.635ZM85.96 62.07H37.705C36.565 62.07 35.635 61.215 35.635 60.165V43.185H87.925V60.24C87.94 61.26 87.055 62.07 85.96 62.07ZM87.94 35.91V37.575H35.65V35.91C35.65 34.815 36.535 33.93 37.63 33.93H85.96C87.055 33.93 87.94 34.815 87.94 35.91ZM36.13 29.43C33.385 29.43 31.15 31.665 31.15 34.41V61.515C31.15 64.305 33.415 66.585 36.22 66.585H60.625V76.005H8.5V17.1H60.625V29.43H36.13ZM8.5 6.665C8.5 5.09 9.79 3.8 11.365 3.8H57.775C59.155 3.8 60.31 4.775 60.58 6.08C60.625 6.26 60.64 6.455 60.64 6.65V13.4H8.5V6.665Z" fill="#0073E6"/>
<path d="M34.5553 89.1452C35.8753 89.1452 36.9553 88.0652 36.9553 86.7452C36.9553 85.4102 35.8753 84.3302 34.5553 84.3302C33.2353 84.3302 32.1553 85.4102 32.1553 86.7452C32.1553 88.0652 33.2353 89.1452 34.5553 89.1452Z" fill="#0073E6"/>
<path d="M39.3702 7.09998H29.7402C28.9152 7.09998 28.2402 7.77498 28.2402 8.59998C28.2402 9.42498 28.9152 10.1 29.7402 10.1H39.3702C40.1952 10.1 40.8702 9.42498 40.8702 8.59998C40.8702 7.77498 40.1952 7.09998 39.3702 7.09998Z" fill="#0073E6"/>
<path d="M75.2196 47.9549C74.2896 47.4299 73.2546 47.1599 72.1746 47.1599C68.7396 47.1599 65.9346 49.9649 65.9346 53.4149C65.9346 56.8649 68.7396 59.6699 72.1746 59.6699C73.2396 59.6699 74.2896 59.3999 75.2196 58.8749C79.3896 61.1849 84.4896 58.1849 84.4896 53.4149C84.4896 48.7049 79.5096 45.6599 75.2196 47.9549ZM68.9346 53.3999C68.9346 51.6149 70.3896 50.1449 72.1746 50.1449C72.7446 50.1449 73.3146 50.2949 73.8096 50.5949C74.8146 51.1649 75.4296 52.2449 75.4296 53.3999C75.4296 54.5699 74.8146 55.6199 73.8096 56.2199C73.3146 56.5049 72.7446 56.6549 72.1746 56.6549C70.3896 56.6549 68.9346 55.1999 68.9346 53.3999ZM77.5896 56.5349C78.1296 55.5899 78.4446 54.5099 78.4446 53.3999C78.4446 52.2749 78.1446 51.1949 77.5896 50.2649C79.7796 49.8149 81.4896 51.4649 81.4896 53.3999C81.4896 55.4249 79.7346 56.9849 77.5896 56.5349Z" fill="#0073E6"/>
</g>
<defs>
<clipPath id="clip0">
<rect width="88.44" height="96" fill="white" transform="translate(4)"/>
</clipPath>
</defs>
</svg>
