<svg width="64" height="64" viewBox="0 0 64 64" fill="none" xmlns="http://www.w3.org/2000/svg">
<g clip-path="url(#clip0)">
<g clip-path="url(#clip1)">
<path d="M20.6533 53.5938H24.1221V57.0625H20.6533V53.5938Z" fill="#0073E6"/>
<path d="M56.6639 11.7375H42.1084V10.0032C42.1084 7.13417 39.7743 4.80005 36.9053 4.80005H7.87012C5.00111 4.80005 2.66699 7.13417 2.66699 10.0032V58.7969C2.66699 61.6659 5.00111 64 7.87012 64H36.9053C39.7743 64 42.1084 61.6659 42.1084 58.7969V43.1875H56.6639C59.5329 43.1875 61.867 40.8534 61.867 37.9844V16.9407C61.867 14.0717 59.5329 11.7375 56.6639 11.7375ZM36.9053 60.5313H7.87012C6.91378 60.5313 6.13574 59.7533 6.13574 58.7969V50.125H38.6397V58.7969C38.6397 59.7533 37.8616 60.5313 36.9053 60.5313ZM38.6397 46.6563H6.13574V10.0032C6.13574 9.04684 6.91378 8.2688 7.87012 8.2688H36.9053C37.8616 8.2688 38.6397 9.04684 38.6397 10.0032V11.7375H22.672C19.803 11.7375 17.4688 14.0717 17.4688 16.9407V37.9844C17.4688 40.8534 19.803 43.1875 22.672 43.1875H38.6397V46.6563ZM58.3982 37.9844C58.3982 38.9408 57.6202 39.7188 56.6639 39.7188H22.672C21.7156 39.7188 20.9376 38.9408 20.9376 37.9844V16.9407C20.9376 15.9843 21.7156 15.2063 22.672 15.2063H56.6639C57.6202 15.2063 58.3982 15.9843 58.3982 16.9407V37.9844Z" fill="#0073E6"/>
<path d="M23.7549 32.0911H29.4013V35.5598H23.7549V32.0911Z" fill="#0073E6"/>
<path d="M32.4814 32.0911H38.1279V35.5598H32.4814V32.0911Z" fill="#0073E6"/>
<path d="M41.208 32.0911H46.8544V35.5598H41.208V32.0911Z" fill="#0073E6"/>
<path d="M49.9346 32.0911H55.581V35.5598H49.9346V32.0911Z" fill="#0073E6"/>
<path d="M34.2158 19.3652H23.5381V28.9033H34.2158V19.3652ZM30.7471 25.4345H27.0068V22.834H30.7471V25.4345Z" fill="#0073E6"/>
</g>
</g>
<defs>
<clipPath id="clip0">
<rect width="58.96" height="64" fill="white" transform="translate(2.66699)"/>
</clipPath>
<clipPath id="clip1">
<rect width="59.2" height="59.2" fill="white" transform="translate(2.66699 4.80005)"/>
</clipPath>
</defs>
</svg>
