<svg width="64" height="64" viewBox="0 0 64 64" fill="none" xmlns="http://www.w3.org/2000/svg">
<g clip-path="url(#clip0)">
<path d="M30.2208 43.9684L27.7048 36.4201L20.1564 33.904C18.4536 33.3364 18.4499 30.9152 20.1564 30.3463L27.7048 27.8303L30.2208 20.2819C30.7885 18.5791 33.2097 18.5754 33.7784 20.2819L36.2946 27.8303L43.843 30.3463C45.546 30.9141 45.5493 33.3352 43.843 33.904L36.2946 36.4201L33.7784 43.9684C33.2109 45.6712 30.7897 45.6749 30.2208 43.9684ZM26.6787 32.1251L29.7801 33.1589C30.34 33.3455 30.7793 33.7849 30.966 34.3448L31.9998 37.4461L33.0335 34.3448C33.2202 33.7849 33.6596 33.3455 34.2194 33.1589L37.3207 32.1251L34.2194 31.0913C33.6596 30.9047 33.2202 30.4653 33.0335 29.9054L31.9998 26.8041L30.966 29.9054C30.7793 30.4653 30.34 30.9047 29.7801 31.0913L26.6787 32.1251Z" fill="#0073E6"/>
<path d="M7.76656 17.8395L5.19511 13.5538L0.909496 10.9825C-0.299287 10.2572 -0.307037 8.49682 0.909496 7.7668L5.19511 5.19536L7.76656 0.90974C8.49183 -0.299043 10.2523 -0.306793 10.9823 0.90974L13.5537 5.19536L17.8393 7.7668C19.0481 8.49207 19.0559 10.2525 17.8393 10.9825L13.5537 13.554L10.9823 17.8395C10.2569 19.0484 8.49645 19.0561 7.76656 17.8395ZM5.51862 9.3746L7.52655 10.5794C7.79043 10.7378 8.01132 10.9586 8.16969 11.2225L9.37448 13.2305L10.5793 11.2225C10.7376 10.9586 10.9585 10.7378 11.2224 10.5794L13.2303 9.3746L11.2224 8.16981C10.9585 8.01143 10.7376 7.79055 10.5793 7.52667L9.37448 5.51874L8.16969 7.52667C8.01132 7.79055 7.79043 8.01143 7.52655 8.16981L5.51862 9.3746Z" fill="#0073E6"/>
<path d="M53.0174 17.8393L50.4461 13.5537L46.1604 10.9823C44.9513 10.2568 44.9443 8.49633 46.1604 7.76656L50.4461 5.19511L53.0174 0.909496C53.7427 -0.299287 55.5031 -0.307037 56.2331 0.909496L58.8045 5.19511L63.0902 7.76656C64.2992 8.49208 64.3062 10.2525 63.0902 10.9823L58.8045 13.5537L56.2331 17.8393C55.5079 19.0482 53.7475 19.056 53.0174 17.8393ZM50.7695 9.37448L52.7774 10.5793C53.0413 10.7376 53.2622 10.9585 53.4206 11.2224L54.6254 13.2303L55.8301 11.2224C55.9885 10.9585 56.2093 10.7376 56.4733 10.5793L58.4812 9.37448L56.4733 8.16969C56.2094 8.01131 55.9885 7.79043 55.8301 7.52655L54.6254 5.51862L53.4206 7.52655C53.2622 7.79043 53.0414 8.01131 52.7774 8.16969L50.7695 9.37448Z" fill="#0073E6"/>
<path d="M53.0174 63.0908L50.4461 58.8052L46.1604 56.2337C44.9513 55.5082 44.9443 53.7478 46.1604 53.018L50.4461 50.4466L53.0174 46.161C53.7427 44.9522 55.5031 44.9444 56.2331 46.161L58.8045 50.4466L63.0902 53.018C64.2992 53.7435 64.3062 55.504 63.0902 56.2337L58.8045 58.8052L56.2331 63.0908C55.5079 64.2996 53.7475 64.3073 53.0174 63.0908ZM50.7695 54.6258L52.7774 55.8306C53.0413 55.989 53.2622 56.2099 53.4206 56.4737L54.6254 58.4817L55.8301 56.4737C55.9885 56.2099 56.2093 55.989 56.4733 55.8306L58.4812 54.6258L56.4733 53.421C56.2094 53.2627 55.9885 53.0418 55.8301 52.7779L54.6254 50.77L53.4206 52.7779C53.2622 53.0418 53.0414 53.2627 52.7774 53.421L50.7695 54.6258Z" fill="#0073E6"/>
<path d="M7.76656 63.0908L5.19511 58.8051L0.909496 56.2337C-0.299287 55.5085 -0.307037 53.748 0.909496 53.018L5.19511 50.4466L7.76656 46.161C8.49183 44.9522 10.2523 44.9444 10.9823 46.161L13.5537 50.4466L17.8393 53.018C19.0481 53.7433 19.0559 55.5037 17.8393 56.2337L13.5537 58.8052L10.9823 63.0908C10.2569 64.2996 8.49645 64.3073 7.76656 63.0908ZM5.51862 54.6258L7.52655 55.8306C7.79043 55.989 8.01132 56.2099 8.16969 56.4737L9.37448 58.4817L10.5793 56.4737C10.7376 56.2099 10.9585 55.989 11.2224 55.8306L13.2303 54.6258L11.2224 53.421C10.9585 53.2627 10.7376 53.0418 10.5793 52.7779L9.37448 50.77L8.16969 52.7779C8.01132 53.0418 7.79043 53.2627 7.52655 53.421L5.51862 54.6258Z" fill="#0073E6"/>
<path d="M43.9327 46.7096L38.6293 41.4062C37.897 40.6739 37.897 39.4867 38.6293 38.7545C39.3616 38.0222 40.5488 38.0223 41.281 38.7545L46.5844 44.0579C47.3166 44.7901 47.3166 45.9773 46.5844 46.7096C45.8521 47.4417 44.6648 47.4418 43.9327 46.7096Z" fill="#0073E6"/>
<path d="M22.7188 25.4958L17.4154 20.1924C16.6831 19.4601 16.6831 18.2729 17.4154 17.5407C18.1476 16.8084 19.3348 16.8084 20.0671 17.5407L25.3705 22.8441C26.1028 23.5763 26.1028 24.7635 25.3705 25.4958C24.6384 26.228 23.4511 26.2281 22.7188 25.4958Z" fill="#0073E6"/>
<path d="M17.4154 46.7096C16.6831 45.9773 16.6831 44.7902 17.4154 44.0579L22.7188 38.7545C23.451 38.0223 24.6382 38.0223 25.3705 38.7545C26.1028 39.4868 26.1028 40.6739 25.3705 41.4062L20.0671 46.7096C19.335 47.4418 18.1476 47.4419 17.4154 46.7096Z" fill="#0073E6"/>
<path d="M38.6293 25.4958C37.897 24.7636 37.897 23.5763 38.6293 22.8441L43.9327 17.5407C44.6648 16.8084 45.8521 16.8084 46.5844 17.5407C47.3166 18.2728 47.3166 19.4601 46.5844 20.1924L41.281 25.4958C40.5488 26.228 39.3614 26.2281 38.6293 25.4958Z" fill="#0073E6"/>
<path d="M32.0001 60.2508C30.9645 60.2508 30.125 59.4113 30.125 58.3757V50.8755C30.125 49.84 30.9645 49.0005 32.0001 49.0005C33.0356 49.0005 33.8751 49.84 33.8751 50.8755V58.3757C33.8751 59.4113 33.0356 60.2508 32.0001 60.2508Z" fill="#0073E6"/>
<path d="M32.0001 15.2496C30.9645 15.2496 30.125 14.4101 30.125 13.3745V5.87432C30.125 4.83879 30.9645 3.99927 32.0001 3.99927C33.0356 3.99927 33.8751 4.83879 33.8751 5.87432V13.3745C33.8751 14.4101 33.0356 15.2496 32.0001 15.2496Z" fill="#0073E6"/>
<path d="M13.2493 34.0001H5.74907C4.71355 34.0001 3.87402 33.1606 3.87402 32.1251C3.87402 31.0895 4.71355 30.25 5.74907 30.25H13.2493C14.2848 30.25 15.1243 31.0895 15.1243 32.1251C15.1243 33.1606 14.2848 34.0001 13.2493 34.0001Z" fill="#0073E6"/>
<path d="M58.2512 34.0001H50.751C49.7155 34.0001 48.876 33.1606 48.876 32.1251C48.876 31.0895 49.7155 30.25 50.751 30.25H58.2512C59.2868 30.25 60.1263 31.0895 60.1263 32.1251C60.1263 33.1606 59.2868 34.0001 58.2512 34.0001Z" fill="#0073E6"/>
</g>
<defs>
<clipPath id="clip0">
<rect width="64" height="64" fill="white"/>
</clipPath>
</defs>
</svg>
