<svg width="96" height="96" viewBox="0 0 96 96" fill="none" xmlns="http://www.w3.org/2000/svg">
<mask id="mask0" mask-type="alpha" maskUnits="userSpaceOnUse" x="0" y="0" width="96" height="96">
<path fill-rule="evenodd" clip-rule="evenodd" d="M23.1369 5.61404C23.1369 8.70961 20.6182 11.2281 17.5226 11.2281C14.4271 11.2281 11.9086 8.70961 11.9086 5.61404C11.9086 2.51846 14.4271 0 17.5226 0C20.6182 0 23.1369 2.51846 23.1369 5.61404ZM19.3942 5.61403C19.3942 4.58217 18.5547 3.74269 17.5226 3.74269C16.4908 3.74269 15.6513 4.58217 15.6513 5.61403C15.6513 6.64589 16.4908 7.48538 17.5226 7.48538C18.5547 7.48538 19.3942 6.64589 19.3942 5.61403ZM32.1852 22.3749C31.6023 18.536 28.7195 13.9483 25.8898 12.3567C24.9891 11.8499 24.6697 10.7091 25.1761 9.80809C25.6828 8.9076 26.8238 8.58779 27.7247 9.09455C31.5441 11.243 35.1286 16.8296 35.8854 21.8131C36.0405 22.8349 35.338 23.7891 34.3163 23.9442C34.221 23.9586 34.1263 23.9656 34.033 23.9656C33.1237 23.9656 32.3259 23.3016 32.1852 22.3749ZM61.6284 27.5544C62.2489 27.7137 62.7452 28.1795 62.9432 28.789C63.1412 29.3985 63.0136 30.0667 62.6052 30.5604L57.4588 36.7781L57.9677 44.8331C58.0081 45.4727 57.7186 46.0884 57.2 46.4651C56.8755 46.7011 56.4893 46.8225 56.0999 46.8225C55.8671 46.8225 55.6333 46.7793 55.4107 46.691L47.9069 43.718L40.4032 46.691C39.8074 46.927 39.1324 46.8418 38.6138 46.4651C38.0953 46.0884 37.8058 45.4727 37.8462 44.8331L38.355 36.7783L33.2086 30.5604C32.8001 30.0667 32.6725 29.3985 32.8705 28.789C33.0685 28.1795 33.5646 27.7137 34.1853 27.5544L42.0032 25.5491L46.3266 18.7333C46.6698 18.1921 47.266 17.8642 47.9067 17.8642C48.5475 17.8642 49.1439 18.1921 49.4871 18.7333L53.8101 25.5491L61.6284 27.5544ZM53.6767 36.274C53.6465 35.7985 53.7989 35.3295 54.1026 34.9627L57.8404 30.4468L52.1618 28.9903C51.7005 28.8719 51.3016 28.5822 51.0465 28.18L47.9067 23.2296L44.7666 28.18C44.5116 28.5822 44.1126 28.8719 43.6513 28.9903L37.9731 30.4468L41.7111 34.9629C42.0148 35.3299 42.1671 35.7986 42.137 36.2742L41.7674 42.1245L47.2173 39.9652C47.4387 39.8774 47.6728 39.8336 47.9067 39.8336C48.1407 39.8336 48.3748 39.8774 48.5961 39.9652L54.0462 42.1245L53.6767 36.274ZM47.9067 52.1505C46.8732 52.1505 46.0354 52.9884 46.0354 54.0218V93.9419C46.0354 94.9753 46.8732 95.8132 47.9067 95.8132C48.9403 95.8132 49.7781 94.9754 49.7781 93.9419V54.0218C49.7781 52.9883 48.9403 52.1505 47.9067 52.1505ZM74.5802 45.0815C75.3581 44.401 76.5404 44.4807 77.2206 45.2592C77.9005 46.0375 77.8209 47.2197 77.043 47.8997C73.0958 51.3488 66.4742 60.1583 66.4742 80.4078C66.4742 81.4411 65.6364 82.2791 64.6029 82.2791C63.5693 82.2791 62.7315 81.4411 62.7315 80.4078C62.7315 71.0608 64.0783 63.0419 66.7343 56.5739C68.7049 51.7754 71.3446 47.9087 74.5802 45.0815ZM94.0201 33.6249C94.6602 33.6515 95.2424 34.0038 95.5628 34.5589C95.8832 35.1139 95.8972 35.7943 95.6004 36.3621L93.8047 39.7947L94.8142 43.4072C94.8829 43.602 94.9202 43.8112 94.9202 44.0294C94.9202 45.0581 94.0902 45.8929 93.0632 45.9007C92.9556 45.903 92.843 45.8932 92.7326 45.8743L88.913 45.2274L85.6868 47.3722C85.375 47.5795 85.0136 47.6851 84.6506 47.6851C84.3923 47.6851 84.133 47.6317 83.8897 47.5234C83.3042 47.2627 82.893 46.7206 82.7995 46.0865L82.2345 42.2538L79.1979 39.8484C78.6956 39.4504 78.4317 38.8231 78.4987 38.1859C78.5657 37.5485 78.9542 36.9898 79.5282 36.7051L82.9984 34.9835L84.348 31.3521C84.5711 30.7514 85.0861 30.3068 85.713 30.1736C86.3397 30.0396 86.9913 30.237 87.4395 30.6949L90.1492 33.4636L94.0201 33.6249ZM90.4486 41.6913L90.0004 40.0878C89.872 39.6291 89.9237 39.1388 90.1445 38.7164L90.9162 37.2413L89.2524 37.1718C88.7766 37.1522 88.3261 36.9514 87.993 36.6112L86.8283 35.4212L86.2482 36.9821C86.0824 37.4286 85.7524 37.795 85.3258 38.0066L83.8343 38.7466L85.1396 39.7805C85.5129 40.0763 85.7596 40.5032 85.829 40.9746L86.0717 42.6217L87.4584 41.6999C87.8549 41.4364 88.3373 41.3335 88.8069 41.4134L90.4486 41.6913ZM18.5931 45.259C19.2729 44.4806 20.4552 44.4008 21.2335 45.0813C24.4691 47.9087 27.1088 51.7752 29.0795 56.5738C31.7355 63.0417 33.0823 71.0606 33.0823 80.4076C33.0823 81.4409 32.2445 82.2789 31.211 82.2789C30.1774 82.2789 29.3396 81.4409 29.3396 80.4076C29.3396 60.1581 22.7179 51.3486 18.7708 47.8995C17.9927 47.2197 17.913 46.0373 18.5931 45.259ZM16.2855 36.7051C16.8594 36.9898 17.2479 37.5485 17.3149 38.1859C17.3819 38.8231 17.1183 39.4504 16.6158 39.8484L13.5792 42.2538L13.0142 46.0865C12.9206 46.7206 12.5093 47.2627 11.924 47.5234C11.6807 47.6317 11.4213 47.6851 11.1631 47.6851C10.7998 47.6851 10.4389 47.5793 10.1269 47.3722L6.90071 45.2274L3.08111 45.8743C2.44971 45.9821 1.80672 45.7578 1.37781 45.2815C0.949083 44.8052 0.793762 44.1428 0.9663 43.5256L2.00901 39.7947L0.21327 36.3621C-0.0838992 35.7943 -0.069677 35.1139 0.250697 34.5589C0.571072 34.0038 1.15325 33.6516 1.79343 33.6249L5.66431 33.4636L8.37402 30.6949C8.82239 30.237 9.47325 30.0394 10.1005 30.1736C10.7274 30.3068 11.2424 30.7514 11.4657 31.3521L12.8153 34.9835L16.2855 36.7051ZM9.98469 40.9746C10.0541 40.5032 10.3008 40.0763 10.6741 39.7805L11.9794 38.7468L10.4879 38.0068C10.0612 37.7952 9.73131 37.4288 9.56551 36.9823L8.98539 35.4214L7.82066 36.6114C7.48756 36.9516 7.03713 37.1524 6.56125 37.172L4.89743 37.2414L5.66918 38.7166C5.89 39.1388 5.94146 39.6291 5.81327 40.0878L5.36508 41.6913L7.00681 41.4134C7.11067 41.3956 7.21528 41.387 7.31933 41.387C7.68555 41.387 8.04635 41.4946 8.35531 41.6999L9.74197 42.6217L9.98469 40.9746ZM61.7805 23.9656C61.6871 23.9656 61.5925 23.9586 61.4972 23.9442C60.4754 23.7891 59.7728 22.8351 59.9279 21.8133C60.6847 16.8298 64.2692 11.243 68.0886 9.09474C68.9897 8.58779 70.1307 8.9076 70.6372 9.80828C71.1438 10.709 70.8244 11.8499 69.9237 12.3567C67.0942 13.9483 64.2112 18.536 63.6283 22.3749C63.4878 23.3016 62.69 23.9656 61.7805 23.9656ZM83.9049 5.61404C83.9049 8.70961 81.3864 11.2281 78.2908 11.2281C75.1953 11.2281 72.6768 8.70961 72.6768 5.61404C72.6768 2.51846 75.1953 0 78.2908 0C81.3864 0 83.9049 2.51846 83.9049 5.61404ZM80.1622 5.61403C80.1622 4.58217 79.3227 3.74269 78.2908 3.74269C77.259 3.74269 76.4195 4.58217 76.4195 5.61403C76.4195 6.64589 77.259 7.48538 78.2908 7.48538C79.3227 7.48538 80.1622 6.64589 80.1622 5.61403ZM13.8799 66.5828C13.8799 65.5521 14.7205 64.7115 15.7512 64.7115C16.782 64.7115 17.6226 65.5521 17.6226 66.5828C17.6226 67.6136 16.782 68.4542 15.7512 68.4542C14.7205 68.4542 13.8799 67.6136 13.8799 66.5828ZM21.7395 27.5653C21.7395 28.5962 22.5801 29.4366 23.6109 29.4366C24.6416 29.4366 25.4824 28.5962 25.4824 27.5653C25.4824 26.5346 24.6416 25.6939 23.6109 25.6939C22.5801 25.6939 21.7395 26.5346 21.7395 27.5653ZM49.6226 9.60037C49.6226 10.6313 48.782 11.4717 47.7512 11.4717C46.7205 11.4717 45.8799 10.6313 45.8799 9.60037C45.8799 8.56964 46.7205 7.72903 47.7512 7.72903C48.782 7.72903 49.6226 8.56964 49.6226 9.60037ZM73.9501 27.0039C73.9501 28.0346 74.7907 28.8752 75.8214 28.8752C76.8521 28.8752 77.6929 28.0346 77.6929 27.0039C77.6929 25.9731 76.8521 25.1325 75.8214 25.1325C74.7907 25.1325 73.9501 25.9731 73.9501 27.0039ZM76.1959 66.5828C76.1959 65.5521 77.0363 64.7115 78.0672 64.7115C79.0979 64.7115 79.9386 65.5521 79.9386 66.5828C79.9386 67.6136 79.0979 68.4542 78.0672 68.4542C77.0363 68.4542 76.1959 67.6136 76.1959 66.5828ZM31.2108 83.9571C30.1801 83.9571 29.3394 84.7979 29.3394 85.8285C29.3394 86.8594 30.1801 87.7 31.2108 87.7C32.2415 87.7 33.0821 86.8594 33.0821 85.8285C33.0821 84.7979 32.2415 83.9571 31.2108 83.9571ZM62.7315 85.8285C62.7315 84.7979 63.572 83.9571 64.6029 83.9571C65.6336 83.9571 66.4742 84.7979 66.4742 85.8285C66.4742 86.8594 65.6336 87.7 64.6029 87.7C63.572 87.7 62.7315 86.8594 62.7315 85.8285ZM37.523 53.8343C36.4923 53.8343 35.6517 54.6749 35.6517 55.7056C35.6517 56.7364 36.4923 57.577 37.523 57.577C38.5538 57.577 39.3944 56.7364 39.3944 55.7056C39.3944 54.6749 38.5538 53.8343 37.523 53.8343ZM56.564 54.8635C56.564 53.8328 57.4046 52.9922 58.4353 52.9922C59.466 52.9922 60.3066 53.8328 60.3066 54.8635C60.3066 55.8943 59.466 56.7349 58.4353 56.7349C57.4046 56.7349 56.564 55.8943 56.564 54.8635Z" fill="white"/>
</mask>
<g mask="url(#mask0)">
<rect x="-4.98242" y="-7.94751" width="112.8" height="113.6" fill="#0073E6"/>
</g>
</svg>
