<svg width="50" height="48" viewBox="0 0 50 48" fill="none" xmlns="http://www.w3.org/2000/svg">
<path d="M1.32471 19.3289L24.3779 33.4694L47.2987 19.3289" stroke="#0073E6" stroke-width="1.3401" stroke-miterlimit="10" stroke-linecap="round" stroke-linejoin="round"/>
<path d="M9.00911 16.2153L1.32471 19.3288V46.3126H47.2987V19.3288L39.6143 16.2153" stroke="#0073E6" stroke-width="1.3401" stroke-miterlimit="10" stroke-linecap="round" stroke-linejoin="round"/>
<path d="M8.74414 23.7398V1.16675H39.8793V23.7398" stroke="#0073E6" stroke-width="1.3401" stroke-miterlimit="10" stroke-linecap="round" stroke-linejoin="round"/>
<path d="M26.6462 16.5827L26.3454 16.1408L25.9246 16.4705C25.3523 16.9187 24.6665 17.1425 23.9805 17.1425C22.3919 17.1425 21.0358 15.7997 21.0358 14.2695C21.0358 12.7393 22.3919 11.3965 23.9805 11.3965C25.5692 11.3965 26.9252 12.7393 26.9252 14.2695V15.3074C26.9252 16.242 27.6891 16.9749 28.6177 16.9749C29.5463 16.9749 30.3101 16.242 30.3101 15.3074V14.7884C30.3101 11.6562 27.6994 8.96952 24.378 8.96952C21.2051 8.96952 18.4459 11.5108 18.4459 14.7884V15.0479C18.4459 18.1801 21.0566 20.8668 24.378 20.8668H30.605C30.6448 20.8668 30.7239 20.8911 30.8017 20.9673C30.8802 21.0442 30.8999 21.117 30.8999 21.1452C30.8999 21.1734 30.8802 21.2462 30.8017 21.3231C30.7239 21.3993 30.6449 21.4235 30.605 21.4235H24.378C20.6521 21.4235 17.7348 18.5119 17.8557 15.1958L17.856 15.1867V15.1776V14.9181C17.856 11.442 20.802 8.54248 24.378 8.54248C27.954 8.54248 30.8999 11.442 30.8999 14.9181V15.4371C30.8999 16.7078 29.9414 17.6614 28.6177 17.6614C27.7469 17.6614 27.0972 17.2452 26.6462 16.5827ZM21.6257 14.2695C21.6257 15.5934 22.6545 16.5857 23.9805 16.5857C25.3066 16.5857 26.3354 15.5934 26.3354 14.2695C26.3354 12.9456 25.3066 11.9533 23.9805 11.9533C22.6545 11.9533 21.6257 12.9456 21.6257 14.2695Z" fill="#0073E6" stroke="#0073E6"/>
</svg>
