<svg width="96" height="96" viewBox="0 0 96 96" fill="none" xmlns="http://www.w3.org/2000/svg">
<g clip-path="url(#clip0)">
<g clip-path="url(#clip1)">
<path d="M48.5032 51.8745C41.1968 51.8745 35.2988 45.6642 35.2988 38.0369C35.2988 30.4096 41.1968 24.1992 48.5032 24.1992C55.8096 24.1992 61.7075 30.4096 61.7075 38.0369C61.7075 45.6642 55.8096 51.8745 48.5032 51.8745ZM48.5032 48.5535C53.95 48.5535 58.4064 43.8597 58.4064 38.0369C58.4064 32.214 53.95 27.5203 48.5032 27.5203C43.0564 27.5203 38.5999 32.214 38.5999 38.0369C38.5999 43.8597 43.0454 48.5535 48.5032 48.5535Z" fill="#0073E6"/>
<path d="M32.9218 61.7047C31.3263 62.701 30.347 64.4612 30.347 66.3542C30.347 67.2176 31.0512 67.9261 31.9095 67.9261H63.9961C64.8543 67.9261 65.5586 67.2176 65.5586 66.3542C65.5586 64.4612 64.5903 62.701 62.9837 61.7047L54.1148 56.1697C52.1562 56.9114 50.0765 57.2878 47.9418 57.2878C45.8071 57.2878 43.7384 56.9003 41.7687 56.1697L32.9218 61.7047ZM47.9528 53.9667C50.2525 53.9667 52.4423 53.4132 54.3899 52.428L64.7223 58.8819C67.2971 60.487 68.8597 63.3099 68.8597 66.3542C68.8597 69.0553 66.6809 71.2472 63.9961 71.2472H31.9095C29.2246 71.2472 27.0459 69.0553 27.0459 66.3542C27.0459 63.3099 28.6084 60.487 31.1833 58.8819L41.5157 52.428C43.4633 53.4132 45.653 53.9667 47.9528 53.9667Z" fill="#0073E6"/>
<path d="M19.3434 21.2434L19.3324 21.2545C19.4644 21.4095 19.5855 21.5755 19.7065 21.7416C19.5965 21.5755 19.4645 21.4095 19.3434 21.2434ZM16.0753 22.7047L15.9873 22.6493C16.0973 22.7157 16.1964 22.7932 16.2844 22.8707C16.2184 22.8154 16.1524 22.76 16.0753 22.7047Z" fill="#0073E6"/>
<path d="M76.5623 21.2434C76.4413 21.4095 76.3093 21.5755 76.1992 21.7416C76.3203 21.5755 76.4413 21.4095 76.5733 21.2545L76.5623 21.2434ZM79.8304 22.7047C79.7534 22.76 79.6874 22.8154 79.6213 22.8707C79.7094 22.7932 79.8084 22.7157 79.9184 22.6493L79.8304 22.7047Z" fill="#0073E6"/>
<path d="M86.5313 65.6236C91.4389 55.0074 91.5599 41.9004 86.8834 31.1734C92.8143 26.059 86.3662 15.8856 79.2249 19.262C72.8868 12.2546 64.381 7.54982 55.0169 5.97786C54.1146 -1.99262 41.7795 -1.99262 40.8882 5.97786C31.5242 7.54982 23.0184 12.2546 16.6803 19.262C9.52792 15.8856 3.0908 26.059 9.02175 31.1734C4.34521 41.9004 4.46625 55.0074 9.37387 65.6236C2.56263 70.8155 10.0011 81.9631 17.3845 77.5018C23.6566 84.0775 31.8653 88.4945 40.8772 90.0111C41.7905 98.0037 54.1146 98.0037 55.0279 90.0111C64.0399 88.4945 72.2486 84.0775 78.5206 77.5018C85.9151 81.9631 93.3315 70.8155 86.5313 65.6236ZM78.2455 25.417C78.2455 25.3395 78.2455 25.2509 78.2785 25.1734C78.9608 20.6458 86.0251 21.2435 85.9151 25.8598C85.9371 31.1956 77.5743 30.6753 78.2455 25.417ZM47.9526 3.16605C52.9482 3.09963 52.9482 10.9815 47.9526 10.9151C42.9569 10.9815 42.9569 3.09963 47.9526 3.16605ZM13.8413 21.9852C18.837 21.9188 18.837 29.8007 13.8413 29.7343C8.8787 29.8229 8.82369 21.9188 13.8413 21.9852ZM17.6706 71.6458C17.2855 76.3838 9.90204 76.0406 9.99007 71.2472C9.96806 65.9446 18.2538 66.4096 17.6706 71.6458ZM47.9526 92.8339C45.4988 92.8672 43.5841 90.4096 44.2223 88.0295C44.2113 88.0184 44.2223 88.0074 44.2223 88.0074C45.0476 84.1993 50.8575 84.1993 51.6828 88.0074C51.6828 88.0074 51.6938 88.0184 51.6828 88.0295C52.321 90.4207 50.4064 92.8672 47.9526 92.8339ZM74.9114 71.2472C74.9224 72.6531 75.3296 74.0701 76.1108 75.2325C70.389 81.2214 62.9285 85.262 54.7528 86.7011C52.8492 80.2472 43.056 80.2472 41.1523 86.7011C32.9766 85.262 25.5162 81.2214 19.7943 75.2325C23.3925 70.107 18.4298 62.7232 12.3558 64.2066C7.89938 54.5314 7.74533 42.5978 11.9267 32.7897C18.4629 34.8376 23.8546 26.3911 19.3321 21.2546C25.109 15.0111 32.7346 10.7823 41.1523 9.29889C43.056 15.7528 52.8492 15.7528 54.7528 9.29889C63.1706 10.7823 70.7961 15.0111 76.573 21.2546C72.0505 26.3911 77.4423 34.8376 83.9784 32.7897C88.1598 42.5978 88.0057 54.5314 83.5493 64.2066C79.1808 63.2325 74.8564 66.7306 74.9114 71.2472ZM82.0638 75.1218C77.0681 75.1771 77.0681 67.3063 82.0638 67.3727C87.0264 67.2841 87.0814 75.1993 82.0638 75.1218Z" fill="#0073E6"/>
</g>
</g>
<defs>
<clipPath id="clip0">
<rect width="85.179" height="96" fill="white" transform="translate(5.6001)"/>
</clipPath>
<clipPath id="clip1">
<rect width="84.7059" height="96" fill="white" transform="translate(5.6001)"/>
</clipPath>
</defs>
</svg>
