<svg width="64" height="64" viewBox="0 0 64 64" fill="none" xmlns="http://www.w3.org/2000/svg">
<g clip-path="url(#clip0)">
<g clip-path="url(#clip1)">
<g clip-path="url(#clip2)">
<path d="M21.0909 54.4485C16.5961 52.2627 12.8929 48.8101 10.3815 44.4638C8.45618 41.1319 7.34496 37.4525 7.09851 33.6563H9.8515C10.7662 33.6563 11.5077 32.9148 11.5077 32.0001C11.5077 31.0854 10.7662 30.3439 9.8515 30.3439H7.10304C7.11464 30.1711 7.12766 29.9982 7.14279 29.8253C7.52969 25.4027 9.0851 21.1636 11.641 17.5665C13.381 15.1175 15.5538 13.004 18.0316 11.327L17.6637 12.7001C17.427 13.5836 17.9512 14.4918 18.8348 14.7285C18.9784 14.7671 19.1225 14.7854 19.2645 14.7854C19.9958 14.7853 20.665 14.2974 20.8632 13.5574L22.2545 8.36454C22.4913 7.481 21.9669 6.57284 21.0834 6.33611L15.8909 4.94465C15.007 4.70759 14.0992 5.23218 13.8623 6.11572C13.6255 6.99926 14.1498 7.90753 15.0334 8.14426L16.315 8.48766C13.4514 10.401 10.9434 12.8291 8.94057 15.648C6.04394 19.7249 4.28116 24.5276 3.84292 29.5366C3.33435 35.3504 4.60346 41.0852 7.51334 46.1211C10.3566 51.0418 14.5508 54.9516 19.6422 57.4274C19.8755 57.5409 20.1223 57.5946 20.3653 57.5946C20.9794 57.5946 21.5694 57.2516 21.8559 56.6623C22.256 55.8396 21.9135 54.8486 21.0909 54.4485Z" fill="#0073E6"/>
<path d="M56.4867 17.8792C53.6434 12.9585 49.4492 9.04872 44.3578 6.57288C43.5353 6.17296 42.544 6.51536 42.1441 7.33795C41.744 8.16054 42.0865 9.15174 42.9091 9.55166C47.4039 11.7376 51.1071 15.1901 53.6185 19.5364C55.5438 22.8683 56.6552 26.5477 56.9015 30.3438H54.1485C53.2338 30.3438 52.4923 31.0854 52.4923 32.0001C52.4923 32.9147 53.2338 33.6563 54.1485 33.6563H56.897C56.8854 33.8291 56.8723 34.002 56.8572 34.1749C56.4671 38.6344 54.8905 42.903 52.2977 46.5195C50.5178 49.0022 48.294 51.1343 45.7588 52.813L46.1365 51.4034C46.3732 50.5199 45.8489 49.6117 44.9654 49.375C44.0817 49.138 43.1737 49.6626 42.937 50.5462L41.5456 55.739C41.3089 56.6225 41.8331 57.5307 42.7167 57.7674L47.9092 59.1589C48.0527 59.1974 48.197 59.2157 48.3389 59.2157C49.0702 59.2157 49.7394 58.7277 49.9376 57.9877C50.1743 57.1042 49.6501 56.196 48.7665 55.9593L47.5164 55.6243C50.4164 53.7165 52.958 51.2837 54.9898 48.4495C57.9284 44.3505 59.7151 39.5143 60.157 34.4635C60.6658 28.6498 59.3965 22.915 56.4867 17.8792Z" fill="#0073E6"/>
<path d="M25.5223 28.5079C25.5223 25.8448 23.1971 24.394 20.8917 24.394C18.6261 24.394 16.4002 25.7853 16.4002 28.2099C16.4002 29.4619 16.9965 29.8197 17.7915 29.8197C18.8051 29.8197 19.4211 29.2632 19.4211 28.6869C19.4211 27.5939 20.1167 27.1963 20.9116 27.1963C22.0246 27.1963 22.4219 27.9714 22.4219 28.6074C22.4219 31.1314 16.1616 32.92 16.1616 36.0402V37.968C16.1616 38.5444 16.9566 38.922 17.5131 38.922H24.5882C25.085 38.922 25.5223 38.2662 25.5223 37.5508C25.5223 36.8353 25.085 36.2192 24.5882 36.2192H19.3812V36.0403C19.3812 34.2316 25.5223 32.8206 25.5223 28.5079Z" fill="#0073E6"/>
<path d="M35.9756 32.9995H35.1209V31.6082C35.1209 30.9524 34.3458 30.6741 33.5707 30.6741C32.7956 30.6741 32.0206 30.9524 32.0206 31.6082V32.9995H30.3114L33.829 25.9443C33.8886 25.8051 33.9283 25.6859 33.9283 25.5667C33.9283 24.8512 32.9147 24.394 32.3781 24.394C31.8813 24.394 31.3845 24.6127 31.0863 25.189L26.4954 34.192C26.3762 34.4106 26.3364 34.6292 26.3364 34.7882C26.3364 35.4838 26.7935 35.8614 27.3698 35.8614H32.0204V37.968C32.0204 38.604 32.7955 38.922 33.5705 38.922C34.3456 38.922 35.1207 38.604 35.1207 37.968V35.8614H35.9753C36.4523 35.8614 36.9293 35.1459 36.9293 34.4304C36.9295 33.715 36.6115 32.9995 35.9756 32.9995Z" fill="#0073E6"/>
<path d="M41.6595 33.5162C41.6595 32.5821 42.3352 32.0256 42.9911 32.0256C43.7661 32.0256 44.4219 32.761 44.4219 33.5162V37.9679C44.4219 38.6039 45.2368 38.9219 45.9523 38.9219C46.7274 38.9219 47.5024 38.6039 47.5024 37.9679V33.5162C47.5024 31.2307 45.9324 29.3427 44.1238 29.3427C42.8916 29.3427 42.0172 30.0781 41.6595 30.8531V24.9903C41.6595 24.4338 40.944 24.0562 40.1093 24.0562C39.215 24.0562 38.5791 24.4338 38.5791 24.9903V37.9679C38.5791 38.4449 39.2151 38.9219 40.1093 38.9219C40.9441 38.9219 41.6595 38.4449 41.6595 37.9679V33.5162Z" fill="#0073E6"/>
<path d="M32 11.5068C32.9147 11.5068 33.6562 10.7652 33.6562 9.85053V5.39014C33.6562 4.47545 32.9147 3.73389 32 3.73389C31.0853 3.73389 30.3438 4.47545 30.3438 5.39014V9.85053C30.3438 10.7652 31.0853 11.5068 32 11.5068Z" fill="#0073E6"/>
<path d="M32 52.4937C31.0853 52.4937 30.3438 53.2352 30.3438 54.1499V58.6103C30.3438 59.525 31.0853 60.2666 32 60.2666C32.9147 60.2666 33.6562 59.525 33.6562 58.6103V54.1499C33.6562 53.2352 32.9148 52.4937 32 52.4937Z" fill="#0073E6"/>
</g>
</g>
</g>
<defs>
<clipPath id="clip0">
<rect width="56.786" height="64" fill="white" transform="translate(3.7334)"/>
</clipPath>
<clipPath id="clip1">
<rect width="56.4706" height="64" fill="white" transform="translate(3.7334)"/>
</clipPath>
<clipPath id="clip2">
<rect width="56.5333" height="56.5333" fill="white" transform="translate(3.7334 3.7334)"/>
</clipPath>
</defs>
</svg>
