<svg width="57" height="32" viewBox="0 0 57 32" fill="none" xmlns="http://www.w3.org/2000/svg">
<g clip-path="url(#clip0_2032_18121)">
<path d="M38.8957 12.9544C36.7219 12.9323 35.6957 14.1903 35.6957 14.1903C35.0336 14.8965 35.464 15.8454 36.104 15.9116C37.0309 16.0109 37.0309 15.2275 38.4543 14.8854C39.7123 14.5765 39.7674 15.7461 39.7674 15.7461C34.4157 15.6137 34.6695 20.1047 36.4902 21.0537C38.2336 21.9696 39.8667 20.8109 39.8667 20.8109C39.8667 20.8109 39.9329 21.4289 40.7936 21.4289C41.7867 21.4289 41.7867 20.4468 41.7867 20.4468V16.0772C41.7205 12.8661 38.8957 12.9544 38.8957 12.9544ZM38.4764 19.2772C38.4764 19.2772 37.075 19.564 37.086 18.5599C37.0971 17.5558 39.635 17.622 39.8998 17.6992C39.8998 17.6992 39.9771 18.8358 38.4764 19.2772Z" fill="#334B66"/>
<path d="M56.1756 19.6634L53.9908 16.3751L55.5908 14.8634C55.5908 14.8634 56.3301 14.1793 55.7232 13.4951C55.0501 12.7448 54.2446 13.4841 54.2446 13.4841L52.2253 15.36V11.6082C52.2253 11.0676 51.7839 10.6372 51.2542 10.6372C50.7135 10.6372 50.2832 11.0786 50.2832 11.6082V20.4468C50.2832 20.9875 50.7246 21.4179 51.2542 21.4179C51.7949 21.4179 52.2253 20.9765 52.2253 20.4468V18.0855L52.5894 17.7213L54.5646 20.811C54.5646 20.811 55.2046 21.8813 56.1535 21.1972C56.8818 20.6896 56.1756 19.6634 56.1756 19.6634Z" fill="#334B66"/>
<path d="M49.2145 16.0662C49.2145 12.8773 46.5551 12.4249 44.7455 13.44C44.7455 13.44 44.7455 13.44 44.7455 13.4511C44.5689 12.9324 44.0062 12.6566 43.4876 12.8331C43.0793 12.9766 42.8145 13.3518 42.8145 13.7821V20.4359C42.8145 20.9876 43.2558 21.429 43.8076 21.429C44.3593 21.429 44.8007 20.9876 44.8007 20.4359L44.7896 15.9449C44.9772 15.7352 45.1869 15.5476 45.4186 15.3821C46.3565 14.72 47.2393 14.9518 47.2393 16.0773L47.2613 20.458C47.2834 20.9986 47.7358 21.429 48.2765 21.4069C48.7951 21.3849 49.2034 20.9766 49.2255 20.458L49.2145 16.0662Z" fill="#334B66"/>
<path d="M20.5689 21.5505C20.7013 21.3518 20.7896 21.1311 20.8337 20.8994L18.5827 15.018C18.5827 15.018 18.1744 13.8815 19.0792 13.5394C20.0282 13.1863 20.3813 14.0911 20.4475 14.2787L21.871 18.0636L23.173 14.2898C23.173 14.2898 23.5482 13.1201 24.5854 13.5284C25.4461 13.8705 25.0048 15.0291 25.0048 15.0291C25.0048 15.0291 23.6696 18.9684 22.5551 21.8153C21.893 23.5256 21.3192 23.6911 20.6682 23.8456C19.7965 24.0553 18.1523 23.956 18.1523 22.8746C18.1523 22.0249 19.0241 21.9698 19.4213 21.9808C19.4434 22.0029 20.2599 22.0691 20.5689 21.5505Z" fill="#2ABAEA"/>
<path d="M15.3388 11.6633L13.2864 17.335L11.0464 11.6964C11.0464 11.6964 10.7153 10.6261 9.77742 10.6261C8.69604 10.6261 8.72914 11.4867 8.70707 11.6964C8.68501 11.9061 8.70707 20.513 8.70707 20.513C8.70707 20.513 8.69604 21.4178 9.68914 21.4178C10.7043 21.4178 10.6602 20.5019 10.6602 20.5019V15.9557L12.3153 20.5019C12.3153 20.5019 12.5581 21.3957 13.3195 21.3847C14.0809 21.3736 14.3016 20.5019 14.3016 20.5019L15.6809 15.9667V20.5019C15.6809 20.5019 15.6809 21.4178 16.685 21.4178C17.656 21.4178 17.656 20.5019 17.656 20.5019V11.6964C17.656 11.6964 17.656 10.615 16.6078 10.6261C15.736 10.6371 15.405 11.4757 15.3388 11.6633C15.3388 11.6854 15.3388 11.6964 15.3388 11.6964V11.6633Z" fill="#2ABAEA"/>
<path d="M56.4956 24.894H39.1384H26.3936L26.4046 24.9051C21.4832 30.6761 12.8101 31.3602 7.03909 26.4389C1.26806 21.5175 0.572883 12.8554 5.49426 7.08438C10.4156 1.31334 19.0887 0.618173 24.8598 5.55059C25.4225 6.0361 25.9522 6.55472 26.4267 7.12852H29.1853C24.297 -0.198379 14.377 -2.17355 7.05012 2.72576C-0.276772 7.62507 -2.24091 17.5451 2.6584 24.872C7.55771 32.1989 17.4667 34.163 24.7936 29.2637C25.8308 28.5685 26.7798 27.763 27.6294 26.8471L55.1825 26.8251L56.4956 24.894Z" fill="#2ABAEA"/>
<path d="M33.4015 15.6358C33.4567 15.5585 34.1188 15.0289 34.0636 13.5944C33.9532 10.7034 31.4484 10.7365 30.8857 10.7144C29.9919 10.6923 29.4512 10.7034 27.807 10.7144C26.4167 10.7254 26.4277 11.9944 26.4277 11.9944V21.4179H31.1064C33.6112 21.4179 34.5381 20.0385 34.5381 18.1075C34.5381 16.1765 33.4015 15.6358 33.4015 15.6358ZM28.447 12.7116H31.0291C31.5477 12.7227 32.0884 12.9985 32.0884 13.771C32.0884 14.5765 31.6139 14.8303 31.0291 14.8303H28.447V12.7116ZM31.2167 19.4979H28.447V16.8496H31.2167C31.8898 16.8827 32.5408 17.2248 32.5408 18.1737C32.5408 19.1448 31.945 19.4979 31.2167 19.4979Z" fill="#334B66"/>
</g>
<defs>
<clipPath id="clip0_2032_18121">
<rect width="56.4966" height="32" fill="white"/>
</clipPath>
</defs>
</svg>
