<svg width="44" height="48" viewBox="0 0 44 48" fill="none" xmlns="http://www.w3.org/2000/svg">
<g clip-path="url(#clip0)">
<path d="M6.48647 13.2015C6.48647 13.2015 6.48523 13.2027 6.49018 13.2002C6.48894 13.199 6.4877 13.2002 6.48647 13.2015Z" fill="#0073E6"/>
<path d="M6.48647 13.2015C6.48647 13.2015 6.48523 13.2027 6.49018 13.2002C6.48894 13.199 6.4877 13.2002 6.48647 13.2015Z" fill="#0073E6"/>
<path d="M6.48647 13.2015C6.4877 13.2002 6.48894 13.199 6.49018 13.2002C6.48523 13.2027 6.48647 13.2015 6.48647 13.2015Z" fill="#0073E6"/>
<path d="M43.4286 18.9367V13.8744C43.4286 13.8309 43.4246 13.7884 43.4166 13.7458C43.4086 13.7033 43.3975 13.6618 43.3825 13.6213C43.3815 13.6203 43.3815 13.6203 43.3815 13.6192L43.3695 13.5878L38.3782 0.454684C38.2752 0.183291 38.013 0 37.7248 0H5.70375C5.41556 0 5.15339 0.183291 5.05032 0.454684L0.0590388 13.5878L0.0470309 13.6192C0.0470309 13.6203 0.0470309 13.6203 0.0460303 13.6213C0.0310204 13.6618 0.0200132 13.7033 0.0120079 13.7458C0.00400263 13.7884 0 13.8309 0 13.8744V18.9367C0 20.7605 1.29385 22.2835 3.00197 22.6157V42.5316H0.700461C0.314207 42.5316 0 42.8496 0 43.2405V47.2911C0 47.682 0.314207 48 0.700461 48H42.7281C43.1144 48 43.4286 47.682 43.4286 47.2911V43.2405C43.4286 42.8496 43.1144 42.5316 42.7281 42.5316H40.4266V22.6157C42.1347 22.2835 43.4286 20.7605 43.4286 18.9367ZM37.2435 1.41772L41.7084 13.1646H37.2815L34.6028 1.41772H37.2435ZM33.1648 1.41772L35.8436 13.1646H31.3216L29.5354 1.41772H33.1648ZM36.0237 14.5823V18.9367C36.0237 20.2208 34.991 21.2658 33.7222 21.2658C32.4534 21.2658 31.4207 20.2208 31.4207 18.9367V14.5823H36.0237ZM25.4167 1.41772H28.1175L29.9037 13.1646H25.4167V1.41772ZM25.4167 14.5823H30.0197V18.9367C30.0197 20.2208 28.9871 21.2658 27.7182 21.2658C26.4494 21.2658 25.4167 20.2208 25.4167 18.9367V14.5823ZM19.4128 1.41772H24.0158V13.1646H19.4128V1.41772ZM19.4128 14.5823H24.0158V18.9367C24.0158 20.2208 22.9831 21.2658 21.7143 21.2658C20.4454 21.2658 19.4128 20.2208 19.4128 18.9367V14.5823ZM18.7123 21.1261C19.3848 22.0689 20.4805 22.6835 21.7143 22.6835C22.9481 22.6835 24.0438 22.0689 24.7163 21.1261C25.3887 22.0689 26.4844 22.6835 27.7182 22.6835C28.952 22.6835 30.0478 22.0689 30.7202 21.1261C31.3927 22.0689 32.4884 22.6835 33.7222 22.6835C34.956 22.6835 36.0517 22.0689 36.7242 21.1261C37.2665 21.8866 38.0831 22.4324 39.0257 22.6157V27.3418H25.7169C25.3307 27.3418 25.0165 27.6597 25.0165 28.0506V34.1266C25.0165 34.5175 25.3307 34.8354 25.7169 34.8354H39.0257V38.481H21.4141V28.0506C21.4141 27.6597 21.0999 27.3418 20.7136 27.3418H10.707C10.3208 27.3418 10.0066 27.6597 10.0066 28.0506V38.481H4.4029V22.6157C5.34552 22.4324 6.16205 21.8866 6.70441 21.1261C7.37685 22.0689 8.47257 22.6835 9.70639 22.6835C10.9402 22.6835 12.0359 22.0689 12.7084 21.1261C13.3808 22.0689 14.4765 22.6835 15.7103 22.6835C16.9441 22.6835 18.0399 22.0689 18.7123 21.1261ZM39.0257 28.7595V33.4177H33.422V28.7595H39.0257ZM32.0211 28.7595V33.4177H26.4174V28.7595H32.0211ZM39.0257 39.8987V42.5316H21.4141V39.8987H39.0257ZM20.0132 28.7595V42.5316H11.4075V28.7595H20.0132ZM10.0066 39.8987V42.5316H4.4029V39.8987H10.0066ZM7.40487 18.9367V14.5823H12.0079V18.9367C12.0079 20.2208 10.9752 21.2658 9.70639 21.2658C8.43755 21.2658 7.40487 20.2208 7.40487 18.9367ZM13.4088 18.9367V14.5823H18.0118V18.9367C18.0118 20.2208 16.9792 21.2658 15.7103 21.2658C14.4415 21.2658 13.4088 20.2208 13.4088 18.9367ZM18.0118 1.41772V13.1646H13.5249L15.3111 1.41772H18.0118ZM13.8931 1.41772L12.107 13.1646H7.65303L11.2244 1.41772H13.8931ZM6.18507 1.41772H9.75842L6.18707 13.1646H1.72013L6.18507 1.41772ZM1.40092 18.9367V14.5823H6.00395V18.9367C6.00395 20.2208 4.97127 21.2658 3.70244 21.2658C2.4336 21.2658 1.40092 20.2208 1.40092 18.9367ZM42.0276 43.9494V46.5823H1.40092V43.9494H42.0276ZM39.7261 21.2658C38.4573 21.2658 37.4246 20.2208 37.4246 18.9367V14.5823H42.0276V18.9367C42.0276 20.2208 40.995 21.2658 39.7261 21.2658Z" fill="#0073E6"/>
</g>
<defs>
<clipPath id="clip0">
<rect width="43.4286" height="48" fill="white"/>
</clipPath>
</defs>
</svg>
