<svg width="66" height="48" viewBox="0 0 66 48" fill="none" xmlns="http://www.w3.org/2000/svg">
<path d="M63.4179 1.45459H2.03613V46.2546H63.4179V1.45459Z" fill="white" stroke="#0073E6" stroke-width="1.34" stroke-miterlimit="10" stroke-linecap="round" stroke-linejoin="round"/>
<path d="M2.03613 14.8362H63.127" stroke="#0073E6" stroke-width="1.34" stroke-miterlimit="10" stroke-linecap="round" stroke-linejoin="round"/>
<path d="M11.6364 8.14537C11.6364 9.0181 10.9092 9.89085 9.89098 9.89085C9.01825 9.89085 8.14551 9.16356 8.14551 8.14537C8.14551 7.27265 8.8728 6.3999 9.89098 6.3999C10.9092 6.3999 11.6364 7.12719 11.6364 8.14537Z" fill="#0073E6"/>
<path d="M16.8727 8.14537C16.8727 9.0181 16.1454 9.89085 15.1273 9.89085C14.2545 9.89085 13.3818 9.16356 13.3818 8.14537C13.3818 7.27265 14.1091 6.3999 15.1273 6.3999C16.1454 6.3999 16.8727 7.12719 16.8727 8.14537Z" fill="#0073E6"/>
<path d="M22.1091 8.14537C22.1091 9.0181 21.3818 9.89085 20.3636 9.89085C19.4909 9.89085 18.6182 9.16356 18.6182 8.14537C18.6182 7.27265 19.3454 6.3999 20.3636 6.3999C21.3818 6.3999 22.1091 7.12719 22.1091 8.14537Z" fill="#0073E6"/>
<path d="M42.7636 30.1091C42.7636 35.3454 38.5454 39.5636 33.309 39.5636C28.0727 39.5636 23.8545 35.3454 23.8545 30.1091C23.8545 24.8727 28.0727 20.6545 33.309 20.6545C38.5454 20.6545 42.7636 24.8727 42.7636 30.1091Z" fill="#0073E6"/>
<path d="M28.0723 28.509L33.3086 33.7454L43.7813 23.2727" stroke="white" stroke-width="1.34" stroke-miterlimit="10" stroke-linecap="round" stroke-linejoin="round"/>
</svg>
