<svg width="96" height="96" viewBox="0 0 96 96" fill="none" xmlns="http://www.w3.org/2000/svg">
<mask id="mask0" mask-type="alpha" maskUnits="userSpaceOnUse" x="0" y="0" width="96" height="96">
<path fill-rule="evenodd" clip-rule="evenodd" d="M78.9677 0C69.5768 0 61.9355 7.64129 61.9355 17.0323C61.9355 26.4232 69.5768 34.0645 78.9677 34.0645C88.3587 34.0645 96 26.4232 96 17.0323C96 7.64129 88.3587 0 78.9677 0ZM78.9677 30.9677C71.2831 30.9677 65.0323 24.7169 65.0323 17.0323C65.0323 9.34761 71.2831 3.09677 78.9677 3.09677C86.6524 3.09677 92.9032 9.34761 92.9032 17.0323C92.9032 24.7169 86.6524 30.9677 78.9677 30.9677ZM44.9032 18.5806C42.3422 18.5806 40.2581 20.6648 40.2581 23.2258H42.1719L77.4194 40.8495V49.5484H74.3226V55.7419H71.2258V80.5161H74.3226V86.7097H77.4194V96H0V86.7097H3.09677V80.5161H6.19355V55.7419H3.09677V49.5484H0V40.8495L35.2475 23.2258H37.1613C37.1613 18.9569 40.6343 15.4839 44.9032 15.4839H52.6452V18.5806H44.9032ZM15.4839 83.6129H6.19355V86.7097H15.4839V83.6129ZM24.7742 55.7419V80.5161H21.6774V86.7097H18.5806V80.5161H15.4839V55.7419H18.5806V49.5484H21.6774V55.7419H24.7742ZM43.3548 80.5161V55.7419H40.2581V49.5484H37.1613V55.7419H34.0645V80.5161H37.1613V86.7097H40.2581V80.5161H43.3548ZM61.9355 55.7419V80.5161H58.8387V86.7097H55.7419V80.5161H52.6452V55.7419H55.7419V49.5484H58.8387V55.7419H61.9355ZM71.2258 86.7097V83.6129H61.9355V86.7097H71.2258ZM65.0323 80.5161V55.7419H68.129V80.5161H65.0323ZM43.3548 52.6452H52.6452V49.5484H43.3548V52.6452ZM49.5484 55.7419V80.5161H46.4516V55.7419H49.5484ZM52.6452 86.7097V83.6129H43.3548V86.7097H52.6452ZM34.0645 52.6452H24.7742V49.5484H34.0645V52.6452ZM30.9677 80.5161V55.7419H27.871V80.5161H30.9677ZM34.0645 83.6129V86.7097H24.7742V83.6129H34.0645ZM6.19355 52.6452H15.4839V49.5484H6.19355V52.6452ZM12.3871 55.7419V80.5161H9.29032V55.7419H12.3871ZM74.3226 92.9032V89.8064H3.09677V92.9032H74.3226ZM71.2258 52.6452H61.9355V49.5484H71.2258V52.6452ZM58.8387 46.4516H74.3226V42.7634L41.441 26.3226H40.2581V37.1613H37.1613V26.3226H35.9783L3.09677 42.7634V46.4516H18.5806H21.6774H37.1613H40.2581H55.7419H58.8387ZM12.3871 40.2581H65.0323V43.3548H12.3871V40.2581ZM55.7419 15.4839H58.8387V18.5806H55.7419V15.4839ZM82.0645 65.0323C84.6255 65.0323 86.7097 62.9481 86.7097 60.3871V35.6129H89.8064V60.3871C89.8064 64.656 86.3334 68.129 82.0645 68.129H80.5161V65.0323H82.0645ZM74.3226 65.0323H77.4193V68.129H74.3226V65.0323ZM84.3821 22.8588C84.6048 23.33 84.809 23.8085 85.0095 24.2869C85.1914 24.7182 85.0726 25.0662 84.6122 25.2728C84.1371 25.4866 83.6396 25.6606 83.1384 25.7947C81.2117 26.313 79.2849 26.3311 77.373 25.7258C75.0601 24.9937 73.5232 23.4569 72.6062 21.2967C72.4784 20.9913 72.3824 20.6722 72.2862 20.3524C72.2511 20.2357 72.216 20.119 72.1793 20.0027H70.3676C70.0632 20.0027 69.8182 19.7635 69.8182 19.4663V18.2738C69.8182 17.9766 70.0632 17.7374 70.3676 17.7374H71.8712V16.766H70.3676C70.0632 16.766 69.8182 16.5268 69.8182 16.2296V15.0371C69.8182 14.7399 70.0632 14.5007 70.3676 14.5007H72.2758L72.3389 14.3158C72.8512 12.7174 73.7348 11.3582 75.0973 10.3289C76.1776 9.50972 77.4287 9.06028 78.7689 8.85006C80.6733 8.55285 82.5184 8.80657 84.3078 9.48798C84.4229 9.53147 84.5343 9.58221 84.6419 9.64383C85.0726 9.8903 85.184 10.2056 84.9946 10.6514C84.7942 11.1263 84.5937 11.5974 84.3746 12.0614C84.1853 12.4637 83.9292 12.5906 83.4874 12.4927C83.2231 12.4341 82.961 12.3666 82.6991 12.2991C82.3614 12.2121 82.024 12.1251 81.6831 12.0578C80.4061 11.8004 79.1401 11.7895 77.9002 12.268C76.8347 12.6812 76.185 13.4749 75.7395 14.4644C75.7321 14.4717 75.7321 14.4862 75.7321 14.5007H79.4445C79.749 14.5007 79.994 14.7399 79.994 15.0371V16.2296C79.994 16.5268 79.749 16.766 79.4445 16.766H75.1975C75.195 16.9776 75.1958 17.1892 75.1967 17.405C75.1971 17.5145 75.1975 17.6251 75.1975 17.7374H79.4445C79.749 17.7374 79.994 17.9766 79.994 18.2738V19.4663C79.994 19.7635 79.749 20.0027 79.4445 20.0027H75.5687C76.0365 21.3075 76.7976 22.3188 78.2269 22.7573C79.3666 23.1089 80.5249 23.0872 81.6794 22.8516C82.0187 22.7837 82.3544 22.6971 82.6905 22.6104C82.9466 22.5444 83.2029 22.4782 83.4614 22.4203C83.9329 22.3151 84.1853 22.4384 84.3821 22.8588Z" fill="white"/>
</mask>
<g mask="url(#mask0)">
<rect x="-4.49036" y="-10.196" width="108" height="116" fill="#0073E6"/>
</g>
</svg>
