<svg width="96" height="96" viewBox="0 0 96 96" fill="none" xmlns="http://www.w3.org/2000/svg">
<mask id="mask0" mask-type="alpha" maskUnits="userSpaceOnUse" x="0" y="0" width="95" height="95">
<path fill-rule="evenodd" clip-rule="evenodd" d="M57.4505 2.03096C57.4505 1.01134 56.6238 0.184814 55.6043 0.184814C54.5847 0.184814 53.7582 1.01134 53.7582 2.03096V5.16942C53.7582 6.18905 54.5849 7.01557 55.6043 7.01557C56.6238 7.01557 57.4505 6.18905 57.4505 5.16942V2.03096ZM39.301 4.7965C39.6442 4.45311 40.1205 4.25558 40.606 4.25558C41.0917 4.25558 41.5679 4.45311 41.9112 4.7965C42.2546 5.13988 42.4522 5.61619 42.4522 6.10173C42.4522 6.58911 42.2548 7.06357 41.9112 7.40695C41.5679 7.75034 41.0917 7.94788 40.606 7.94788C40.1205 7.94788 39.6442 7.75034 39.301 7.40695C38.9576 7.06357 38.7598 6.58726 38.7598 6.10173C38.7598 5.61619 38.9576 5.14173 39.301 4.7965ZM42.452 12.8001C42.452 11.7805 41.6253 10.954 40.6058 10.954C39.5862 10.954 38.7597 11.7807 38.7597 12.8001V20.1229C38.7597 21.1425 39.5864 21.969 40.6058 21.969C41.6253 21.969 42.452 21.1425 42.452 20.1229V12.8001ZM9.21788 46.8773L4.92945 47.4143C2.2444 47.7503 0.219727 50.0445 0.219727 52.7504V62.0582C0.219727 64.7643 2.24458 67.0585 4.92963 67.3945L8.76723 67.875C10.4413 72.5462 13.27 76.7046 17.0184 80.0013V89.3546C17.0184 92.3064 19.4199 94.7079 22.3715 94.7079H33.0805C36.0323 94.7079 38.4338 92.3064 38.4338 89.3546V87.3117H50.2518V89.3546C50.2518 92.3064 52.6533 94.7079 55.6051 94.7079H66.3141C69.2657 94.7079 71.6672 92.3064 71.6672 89.3546V83.2239C80.5765 77.9448 86.0659 68.3665 86.0659 57.9636C86.0659 56.7817 85.9937 55.6166 85.8571 54.4709H86.5274C91.0573 54.4709 94.7428 50.7856 94.7428 46.2555C94.7428 41.7254 91.0573 38.0401 86.5274 38.0401C85.508 38.0401 84.6813 38.8666 84.6813 39.8863C84.6813 40.9059 85.508 41.7324 86.5274 41.7324C89.0216 41.7324 91.0505 43.7615 91.0505 46.2555C91.0505 48.7495 89.0216 50.7786 86.5274 50.7786H85.1747C81.9615 38.058 70.4221 28.6155 56.7178 28.6155H54.4043C53.3849 28.6155 52.5582 29.442 52.5582 30.4617C52.5582 31.4813 53.3849 32.3078 54.4043 32.3078H56.7178C70.8645 32.3078 82.3736 43.8169 82.3736 57.9636C82.3736 67.3823 77.2259 76.028 68.94 80.5267C68.3452 80.8496 67.9747 81.4721 67.9747 82.1491V89.3544C67.9747 90.2703 67.2296 91.0154 66.3139 91.0154H55.6047C54.6888 91.0154 53.9437 90.2703 53.9437 89.3544V85.4653C53.9437 84.4457 53.117 83.6192 52.0976 83.6192H36.5873C35.5679 83.6192 34.7411 84.4457 34.7411 85.4653V89.3544C34.7411 90.2703 33.996 91.0154 33.0802 91.0154H22.3712C21.4555 91.0154 20.7104 90.2703 20.7104 89.3544V79.15C20.7104 78.6004 20.4654 78.0792 20.0421 77.7285C16.2015 74.5464 13.3895 70.3647 11.9094 65.6358C11.6934 64.9455 11.0943 64.4451 10.3767 64.3553L5.38785 63.7308C4.54637 63.6254 3.91167 62.9063 3.91167 62.0582V52.7504C3.91167 51.9023 4.54619 51.1832 5.38785 51.0778L10.7716 50.4038C11.4591 50.3178 12.0408 49.8536 12.2773 49.2023C13.5124 45.8032 15.4163 42.77 17.825 40.2418C18.0019 40.1152 18.1523 39.9586 18.2731 39.7818C21.5773 36.484 25.7694 34.1076 30.4688 32.9961C31.4611 32.7614 32.0751 31.7669 31.8405 30.7746C31.6058 29.7821 30.6113 29.1683 29.619 29.4029C28.2432 29.7284 26.8943 30.158 25.582 30.6795C23.7266 25.8493 19.0095 22.5561 13.7755 22.5561H13.769L13.3656 22.5563C12.8016 22.5566 12.2687 22.8147 11.9186 23.2571C11.5686 23.6994 11.4401 24.2774 11.5697 24.8265L14.7227 38.1841C12.3947 40.737 10.5216 43.6875 9.21788 46.8773ZM22.227 32.2648C20.6755 33.1218 19.2004 34.1198 17.8232 35.2463L15.7522 26.4725C18.7191 27.1534 21.207 29.3341 22.227 32.2648ZM21.253 47.0641C21.5962 46.7207 22.0725 46.5232 22.558 46.5232C23.0435 46.5232 23.5199 46.7207 23.8632 47.0641C24.2066 47.4075 24.4042 47.8838 24.4042 48.3693C24.4042 48.8549 24.2068 49.3312 23.8632 49.6746C23.5197 50.018 23.0435 50.2155 22.558 50.2155C22.0725 50.2155 21.5962 50.018 21.253 49.6746C20.9096 49.3312 20.7119 48.8549 20.7119 48.3693C20.7119 47.8838 20.9096 47.4075 21.253 47.0641ZM73.7081 57.9636C73.7081 56.944 74.5348 56.1174 75.5542 56.1174C76.5737 56.1174 77.4004 56.944 77.4004 57.9636L77.4002 58.0616C77.3939 59.0772 76.5685 59.8963 75.5542 59.8963H75.5426C74.5232 59.8899 73.7016 59.0582 73.7079 58.0385L73.7081 57.9636ZM72.5895 64.0406C71.2503 67.5359 68.7453 70.5364 65.5361 72.4895C64.6653 73.0195 64.3885 74.1553 64.9186 75.0263C65.2662 75.5975 65.8745 75.913 66.4976 75.913C66.8245 75.913 67.1555 75.826 67.4554 75.6436C71.3594 73.268 74.4072 69.6165 76.0374 65.3617C76.4022 64.4094 75.9261 63.342 74.974 62.9772C74.0221 62.612 72.9545 63.0881 72.5895 64.0406ZM63.3582 16.8098C63.3582 12.5343 59.8799 9.05593 55.6043 9.05593C51.3288 9.05593 47.8505 12.5343 47.8505 16.8098C47.8505 21.0853 51.3288 24.5636 55.6043 24.5636C59.8799 24.5636 63.3582 21.0853 63.3582 16.8098ZM59.6659 16.8098C59.6659 19.0493 57.8439 20.8713 55.6043 20.8713C53.3648 20.8713 51.5428 19.0493 51.5428 16.8098C51.5428 14.5702 53.3648 12.7482 55.6043 12.7482C57.8439 12.7482 59.6659 14.5702 59.6659 16.8098ZM32.3428 39.3232H34.0043C33.2744 38.1411 32.852 36.75 32.852 35.2617C32.852 30.9862 36.3303 27.5078 40.6058 27.5078C44.8813 27.5078 48.3597 30.9862 48.3597 35.2617C48.3598 36.75 47.9375 38.1411 47.2075 39.3232H56.3428C57.3623 39.3232 58.189 40.1497 58.189 41.1693C58.189 42.189 57.3623 43.0155 56.3428 43.0155H32.3428C31.3234 43.0155 30.4967 42.189 30.4967 41.1693C30.4967 40.1497 31.3232 39.3232 32.3428 39.3232ZM40.6058 39.3232C42.8454 39.3232 44.6674 37.5012 44.6674 35.2617C44.6674 33.0221 42.8454 31.2001 40.6058 31.2001C38.3663 31.2001 36.5443 33.0221 36.5443 35.2617C36.5443 37.5012 38.3664 39.3232 40.6058 39.3232Z" fill="white"/>
</mask>
<g mask="url(#mask0)">
<rect x="-23.6309" y="-23.6306" width="147.692" height="147.692" fill="#0073E6"/>
</g>
</svg>
