<svg width="64" height="64" viewBox="0 0 64 64" fill="none" xmlns="http://www.w3.org/2000/svg">
<path d="M13.125 35.875C14.1605 35.875 15 35.0355 15 34C15 32.9645 14.1605 32.125 13.125 32.125C12.0895 32.125 11.25 32.9645 11.25 34C11.25 35.0355 12.0895 35.875 13.125 35.875Z" fill="#0073E6"/>
<path d="M34 0C29.8645 0 26.5 3.3645 26.5 7.5C26.5 11.6355 29.8645 15 34 15C38.1355 15 41.5 11.6355 41.5 7.5C41.5 3.3645 38.1355 0 34 0ZM34 11.25C31.9323 11.25 30.25 9.56775 30.25 7.5C30.25 5.43225 31.9323 3.75 34 3.75C36.0677 3.75 37.75 5.43225 37.75 7.5C37.75 9.56775 36.0677 11.25 34 11.25Z" fill="#0073E6"/>
<path d="M62.125 26.5C61.0895 26.5 60.25 27.3395 60.25 28.375V30.25C60.25 31.5031 59.6274 32.6686 58.5845 33.368C58.0585 33.7208 57.0493 34.1966 55.6966 33.9194C53.2156 25.3131 45.269 19 35.875 19L23.3472 19.0249C22.8259 19.0249 22.3353 18.7827 22.0014 18.4042C20.2329 16.3997 17.681 15.25 15 15.25H9.375C8.79988 15.25 8.2565 15.514 7.901 15.9661C7.5455 16.4182 7.41725 17.0085 7.55288 17.5675L9.45162 25.3875C8.06413 26.839 6.90762 28.4678 5.99862 30.2501H5.625C2.52338 30.2501 0 32.7735 0 35.8751V41.4325C0 43.2571 0.88975 44.9747 2.38025 46.0272L5.68713 48.3625C6.8475 50.8445 8.46863 53.0404 10.5116 54.896C10.7874 55.1465 11.25 55.6725 11.25 56.3812V60.8025C11.25 62.5656 12.6844 64 14.4475 64H21.1775C22.9406 64 24.375 62.5656 24.375 60.8025V60.25H35.875V60.8025C35.875 62.5656 37.3095 64 39.0725 64H45.8025C47.5655 64 49 62.5656 49 60.8025V57.9652C49 56.5115 49.5881 55.1066 50.6561 54.0095C52.7342 51.8744 54.3526 49.2674 55.3363 46.4702C56.1085 44.2746 56.5 41.9715 56.5 39.6251C56.5 38.9929 56.4699 38.3677 56.4139 37.7499C56.4459 37.7502 56.478 37.7523 56.51 37.7523C57.9829 37.7523 59.417 37.3249 60.673 36.4827C62.7562 35.0856 64 32.7558 64 30.25V28.375C64 27.3395 63.1605 26.5 62.125 26.5ZM51.7988 45.2261C50.9944 47.5134 49.6701 49.6461 47.9689 51.3939C46.2156 53.1951 45.25 55.5289 45.25 57.9652V60.25H39.625C39.625 58.2065 39.625 56.697 39.625 54.625C39.625 53.5895 38.7855 52.75 37.75 52.75C36.7145 52.75 35.875 53.5895 35.875 54.625V56.5H24.375V54.625C24.375 53.5895 23.5355 52.75 22.5 52.75C21.4645 52.75 20.625 53.5895 20.625 54.625C20.625 57.9395 20.625 58.1386 20.625 60.25H15V56.3812C15 54.7856 14.3014 53.2723 13.033 52.1203C11.2766 50.5249 9.84862 48.538 8.90337 46.3744C8.76637 46.0609 8.54625 45.7909 8.26675 45.5935L4.54338 42.9641C4.04663 42.6131 3.75 42.0406 3.75 41.4324V35.875C3.75 34.8411 4.59113 34 5.625 34C7.126 34 7.57987 34.0511 8.01475 33.8065C8.28787 33.6973 8.69387 33.352 8.9015 32.8797C8.90212 32.8784 8.90275 32.8771 8.90325 32.8758L8.90525 32.8711C9.818 30.7836 11.1244 28.9284 12.7882 27.3564L12.8085 27.3372C12.8269 27.3199 12.845 27.3021 12.8628 27.284C13.3335 26.804 13.5011 26.1206 13.3364 25.4937L11.7598 19H15C16.6055 19 18.1324 19.6871 19.1893 20.8851C20.2348 22.0701 21.7502 22.7499 23.3471 22.7499L35.875 22.725C45.1799 22.725 52.75 30.3201 52.75 39.625C52.75 41.5466 52.4299 43.4311 51.7988 45.2261Z" fill="#0073E6"/>
<path d="M35.8749 26.5H27.0977C26.0622 26.5 25.2227 27.3395 25.2227 28.375C25.2227 29.4105 26.0622 30.25 27.0977 30.25H35.8749C36.9104 30.25 37.7499 29.4105 37.7499 28.375C37.7499 27.3395 36.9104 26.5 35.8749 26.5Z" fill="#0073E6"/>
</svg>
