<svg width="72" height="48" viewBox="0 0 72 48" fill="none" xmlns="http://www.w3.org/2000/svg">
<path d="M45.5439 10.9392H60.837V22.4369V28.2415V46.4369H10.2695V10.9392H25.7858" stroke="#0073E6" stroke-width="1.3401" stroke-miterlimit="10" stroke-linecap="round" stroke-linejoin="round"/>
<path d="M23.7764 45.8787V28.688" stroke="#0073E6" stroke-width="1.3401" stroke-miterlimit="10" stroke-linecap="round" stroke-linejoin="round"/>
<path d="M47.4414 28.688V45.8787" stroke="#0073E6" stroke-width="1.3401" stroke-miterlimit="10" stroke-linecap="round" stroke-linejoin="round"/>
<path d="M50.7905 22.5486H20.4277V28.2416H50.7905V22.5486Z" stroke="#0073E6" stroke-width="1.3401" stroke-miterlimit="10" stroke-linecap="round" stroke-linejoin="round"/>
<path d="M29.3584 45.8788V32.8184H41.8607V45.8788" stroke="#0073E6" stroke-width="1.3401" stroke-miterlimit="10" stroke-linecap="round" stroke-linejoin="round"/>
<path d="M35.6094 33.7114V45.8789" stroke="#0073E6" stroke-width="1.3401" stroke-miterlimit="10" stroke-linecap="round" stroke-linejoin="round"/>
<path d="M10.2696 46.437H0.78125V18.53H10.2696" stroke="#0073E6" stroke-width="1.3401" stroke-miterlimit="10" stroke-linecap="round" stroke-linejoin="round"/>
<path d="M60.8369 46.437H70.4369V18.53H60.8369" stroke="#0073E6" stroke-width="1.3401" stroke-miterlimit="10" stroke-linecap="round" stroke-linejoin="round"/>
<path d="M31.1445 10.158H33.0422C33.712 10.158 34.2701 9.59982 34.2701 8.93005C34.2701 8.26029 33.712 7.70215 33.0422 7.70215H31.1445V11.8324" stroke="#0073E6" stroke-width="1.3401" stroke-miterlimit="10" stroke-linecap="round" stroke-linejoin="round"/>
<path d="M36.0557 7.81372H38.065H40.0744" stroke="#0073E6" stroke-width="1.3401" stroke-miterlimit="10" stroke-linecap="round" stroke-linejoin="round"/>
<path d="M38.0654 11.9439V7.81372" stroke="#0073E6" stroke-width="1.3401" stroke-miterlimit="10" stroke-linecap="round" stroke-linejoin="round"/>
<path d="M35.609 18.7533C40.541 18.7533 44.5392 14.7551 44.5392 9.82305C44.5392 4.89102 40.541 0.892822 35.609 0.892822C30.677 0.892822 26.6787 4.89102 26.6787 9.82305C26.6787 14.7551 30.677 18.7533 35.609 18.7533Z" stroke="#0073E6" stroke-width="1.3401" stroke-miterlimit="10" stroke-linecap="round" stroke-linejoin="round"/>
</svg>
