<svg width="96" height="96" viewBox="0 0 96 96" fill="none" xmlns="http://www.w3.org/2000/svg">
<path fill-rule="evenodd" clip-rule="evenodd" d="M48 0V3.09677C27.8632 3.09677 10.063 16.6374 4.71174 36.0248L1.72645 35.201C7.44619 14.4759 26.4743 0 48 0ZM92.9032 48C92.9032 49.0065 92.8707 50.0052 92.8057 50.9961L95.8963 51.199C95.9644 50.1414 96 49.0653 96 48H92.9032ZM92.0052 56.9822L95.04 57.5969C95.2552 56.5409 95.4348 55.4648 95.5773 54.3979L92.5084 53.9876C92.3752 54.9879 92.2049 55.9943 92.0052 56.9822ZM48 92.9032V96C69.5257 96 88.5538 81.5241 94.2736 60.799L91.2883 59.9752C85.937 79.3626 68.1368 92.9032 48 92.9032ZM38.7747 72.0525L40.9641 69.8631L43.1535 72.0525L40.9641 74.2419L38.7747 72.0525ZM45.3445 65.4839L43.1551 67.6733L45.3445 69.8628L47.5339 67.6733L45.3445 65.4839ZM36.5863 74.2392L34.5063 76.3191L36.6958 78.5086L38.7757 76.4286L36.5863 74.2392ZM0.42271 41.6021L3.49161 42.0124C3.62477 41.0137 3.79355 40.0072 3.99484 39.0178L0.96 38.4031C0.744774 39.4576 0.565161 40.5352 0.42271 41.6021ZM3.09677 48H0C0 46.9347 0.0356129 45.8586 0.103742 44.801L3.19432 45.0039C3.12929 45.9948 3.09677 46.9935 3.09677 48ZM48 89.8064C49.073 89.8064 50.1554 89.7662 51.2145 89.6841L50.9791 86.5966C49.9974 86.6725 48.9956 86.7097 48 86.7097V89.8064ZM57.6465 88.6885C56.5889 88.9378 55.5066 89.1499 54.4305 89.3156L53.9566 86.256C54.9538 86.1012 55.9556 85.9061 56.9342 85.6754L57.6465 88.6885ZM59.9102 84.8423L60.8625 87.7889C78.175 82.1961 89.8064 66.2059 89.8064 48H86.7097C86.7097 64.8588 75.9406 79.6645 59.9102 84.8423ZM48 6.19355V9.29032C47.0044 9.29032 46.0026 9.32748 45.0209 9.40335L44.7855 6.31587C45.8446 6.23381 46.927 6.19355 48 6.19355ZM39.0658 10.3262C40.0444 10.0955 41.0462 9.90039 42.0434 9.74555L41.5695 6.68439C40.4934 6.85006 39.4111 7.06219 38.3535 7.31148L39.0658 10.3262ZM35.1375 8.2111L36.0898 11.1577C20.0594 16.3355 9.29032 31.1412 9.29032 48H6.19355C6.19355 29.7941 17.825 13.8039 35.1375 8.2111Z" fill="#0073E6"/>
<path fill-rule="evenodd" clip-rule="evenodd" d="M61.4818 61.4817L71.8668 51.0967L68.959 48.1888C68.4232 47.653 68.129 46.9423 68.129 46.1867C68.129 44.6244 69.3987 43.3547 70.961 43.3547C71.7166 43.3547 72.4274 43.6489 72.9631 44.1847L75.871 47.0925L87.3507 35.6128L78.0604 26.3225L78.7788 25.604C79.8999 24.483 80.5161 22.995 80.5161 21.4125C80.5161 18.1423 77.8576 15.4838 74.5874 15.4838C73.0049 15.4838 71.5154 16.1 70.3959 17.221L69.6774 17.9395L60.3871 8.64917L48.9074 20.1289L51.8152 23.0368C52.351 23.5725 52.6452 24.2832 52.6452 25.0388C52.6452 26.6012 51.3755 27.8708 49.8132 27.8708C49.0575 27.8708 48.3468 27.5767 47.8111 27.0409L44.9032 24.133L34.5182 34.5181L33.4235 35.6128L26.3226 42.7137L25.6041 41.9952C24.4831 40.8742 22.9951 40.2579 21.4126 40.2579C18.1425 40.2579 15.4839 42.9165 15.4839 46.1867C15.4839 47.7692 16.1001 49.2587 17.2212 50.3782L17.9396 51.0967L8.64929 60.387L35.6129 87.3506L60.3871 62.5764L61.4818 61.4817ZM44.9032 28.5119L45.6217 29.2303C46.7427 30.3514 48.2307 30.9676 49.8132 30.9676C53.0834 30.9676 55.7419 28.309 55.7419 25.0388C55.7419 23.4564 55.1257 21.9668 54.0046 20.8474L53.2862 20.1289L60.3871 13.028L69.6774 22.3183L72.5853 19.4105C73.121 18.8747 73.8317 18.5805 74.5874 18.5805C76.1497 18.5805 77.4194 19.8502 77.4194 21.4125C77.4194 22.1681 77.1252 22.8788 76.5894 23.4146L73.6816 26.3225L82.9719 35.6128L75.871 42.7137L75.1525 41.9952C74.0315 40.8742 72.5435 40.2579 70.961 40.2579C67.6908 40.2579 65.0323 42.9165 65.0323 46.1867C65.0323 47.7692 65.6485 49.2587 66.7696 50.3782L67.488 51.0967L60.3871 58.1976L51.0968 48.9072L48.1889 51.8151C47.6532 52.3508 46.9425 52.645 46.1868 52.645C44.6245 52.645 43.3548 51.3754 43.3548 49.813C43.3548 49.0574 43.649 48.3467 44.1848 47.811L47.0926 44.9031L37.8023 35.6128L44.9032 28.5119ZM13.0281 60.387L35.6129 82.9718L58.1977 60.387L51.0968 53.2861L50.3783 54.0045C49.2588 55.1256 47.7693 55.7418 46.1868 55.7418C42.9166 55.7418 40.2581 53.0832 40.2581 49.813C40.2581 48.2306 40.8743 46.7426 41.9954 45.6216L42.7138 44.9031L35.6129 37.8022L26.3226 47.0925L23.4147 44.1847C22.879 43.6489 22.1683 43.3547 21.4126 43.3547C19.8503 43.3547 18.5806 44.6244 18.5806 46.1867C18.5806 46.9423 18.8748 47.653 19.4106 48.1888L22.3185 51.0967L13.0281 60.387Z" fill="#0073E6"/>
</svg>
