<svg width="186" height="192" viewBox="0 0 186 192" fill="none" xmlns="http://www.w3.org/2000/svg">
<g id="pictograms/deco/question">
<g id="colors/@aqua">
<mask id="mask0_2015_15542" style="mask-type:alpha" maskUnits="userSpaceOnUse" x="0" y="0" width="185" height="192">
<path id="Mask" fill-rule="evenodd" clip-rule="evenodd" d="M172.331 0H122.974C116.202 0 110.692 5.50912 110.692 12.2812V34.536C101.437 21.2411 86.0464 12.5212 68.655 12.5212H56.0813C41.3779 12.5212 27.684 20.2616 20.0644 32.7975C9.72375 36.0398 2.81438 45.6716 3.12862 56.6239L3.83888 81.1658C1.6515 83.2178 0.28125 86.1304 0.28125 89.3591V91.9991C0.28125 98.1941 5.32275 103.234 11.52 103.234H19.0594C20.9786 107.981 23.7712 112.41 27.393 116.446L24.9813 119.786C21.2583 124.941 15.0146 133.588 14.5283 134.262C14.3246 134.544 14.175 134.863 14.0873 135.2L1.11488 185.104C0.6825 186.768 1.03725 188.502 2.08875 189.861C3.13988 191.22 4.72875 192 6.447 192H111.071C112.947 192 114.755 191.213 116.033 189.84C117.311 188.467 117.967 186.606 117.833 184.731L116.768 170.152C116.5 166.463 115.521 162.932 113.856 159.657C113.151 158.273 111.458 157.721 110.074 158.425C108.689 159.129 108.138 160.822 108.841 162.207C110.165 164.81 110.944 167.62 111.157 170.561L112.222 185.138C112.254 185.575 112.043 185.871 111.916 186.008C111.788 186.146 111.508 186.376 111.071 186.376H98.0989V174.884C98.0989 173.331 96.84 172.071 95.2864 172.071C93.7327 172.071 92.4739 173.331 92.4739 174.884V186.375H30.8921L38.0685 158.769C38.0921 158.678 38.1739 158.615 38.2676 158.615H50.694C53.2159 158.615 55.593 157.987 57.6821 156.884C59.4881 157.212 61.3384 157.38 63.1987 157.38C71.0865 157.38 78.6139 154.367 84.1245 149.058L84.135 149.06L84.2807 149.09C84.5062 149.135 84.7336 149.171 86.1602 149.393L86.1623 149.393L86.1659 149.394C87.3194 149.574 89.2543 149.875 92.5995 150.402C95.6543 150.879 98.5151 151.966 101.104 153.633C101.575 153.936 102.102 154.081 102.624 154.081C103.548 154.081 104.454 153.625 104.991 152.79C105.832 151.485 105.455 149.744 104.149 148.903C100.896 146.809 97.3027 145.444 93.4691 144.845C90.3824 144.327 88.4948 144.051 87.2548 143.869L87.2537 143.869L87.253 143.869L87.2527 143.869C85.5954 143.626 85.0959 143.553 84.435 143.299C82.4048 142.516 81.0165 140.583 80.9816 138.327C84.3075 136.899 86.655 133.649 86.6846 129.875C86.694 128.837 86.5324 127.826 86.2174 126.87C92.8702 122.926 102.41 115.462 107.341 103.234H112.635C118.83 103.234 123.87 98.1938 123.87 91.9988V89.3587C123.87 85.9058 122.304 82.8124 119.846 80.7491V73.5127C120.862 73.7805 121.913 73.92 122.974 73.92H131.831C132.855 73.92 133.688 74.7525 133.688 75.7763V83.7637C133.688 85.7494 134.901 87.4474 136.78 88.0898C137.281 88.2607 137.79 88.3436 138.29 88.3436C139.668 88.3436 140.982 87.7144 141.872 86.5642L151.178 74.5744C151.501 74.1585 151.988 73.92 152.513 73.92H172.335C179.107 73.92 184.616 68.4109 184.616 61.6387V12.2812C184.616 5.50912 179.105 0 172.331 0ZM5.90625 91.9988V89.3588C5.90625 86.2635 8.42438 83.745 11.52 83.745H16.0837C15.8903 88.6354 16.017 92.6625 17.2384 97.6088H11.52C8.42438 97.6088 5.90625 95.0921 5.90625 91.9988ZM65.7135 143.596C65.7135 146.602 64.8225 149.402 63.2955 151.753C69.0304 151.731 74.5106 149.764 78.7867 146.271C76.8495 144.436 75.6007 141.911 75.3874 139.101H65.7135V143.596ZM77.2106 133.476H65.0767C62.3261 133.476 60.0885 135.714 60.0885 138.464V143.595C60.0885 148.775 55.8743 152.99 50.694 152.99H38.2676C35.613 152.99 33.2925 154.784 32.6246 157.354L25.08 186.375H6.597L19.3987 137.125L23.8811 130.917L23.9767 130.785C29.8192 122.694 39.3165 109.541 40.9343 107.297C41.5181 106.488 42.3818 105.955 43.3657 105.797C44.3614 105.637 45.366 105.879 46.1891 106.476L46.3264 106.577C47.22 107.225 47.7484 108.228 47.7776 109.351C47.8031 110.112 47.5849 110.844 47.1435 111.472L41.901 118.962C40.9241 120.353 40.8045 122.155 41.5882 123.663C42.3727 125.173 43.9174 126.111 45.6195 126.111H77.3767C78.3611 126.111 79.2866 126.494 79.9834 127.191C80.6861 127.894 81.0686 128.829 81.0596 129.828C81.0439 131.839 79.317 133.476 77.2106 133.476ZM112.635 97.6088C115.728 97.6088 118.245 95.0921 118.245 91.9988V89.3588C118.245 86.2635 115.728 83.745 112.635 83.745H110.318C110.366 84.966 110.392 86.2073 110.392 87.4613C110.392 90.9199 109.976 94.3178 109.163 97.6088H112.635ZM112.635 78.12H109.915C109.585 74.961 109.083 71.9018 108.411 68.997C107.097 63.3439 102.108 59.1664 96.2775 58.8383C85.3808 58.2274 74.2673 55.4021 64.1366 50.6674C61.3001 49.3444 57.8745 50.2579 56.1671 52.7929C55.5225 53.7506 54.168 54.4474 52.9601 54.42C50.991 54.3971 48.8257 53.3152 46.1475 51.0161C44.3415 49.4629 42.5216 47.6445 40.5863 45.459C39.1946 43.8836 37.1925 42.9791 35.0933 42.9773H35.0861C32.9993 42.9773 31.0088 43.872 29.6235 45.4335C26.9171 48.4875 24.5692 51.9937 22.6451 55.854C21.9521 57.2441 22.5173 58.9327 23.9074 59.6261C25.2979 60.3191 26.9861 59.754 27.6795 58.3639C29.3839 54.9446 31.4542 51.8494 33.8329 49.1655C34.2671 48.6761 34.8037 48.6026 35.0865 48.6026C35.3767 48.6071 35.9243 48.678 36.3731 49.1861C38.4814 51.5666 40.479 53.5605 42.4819 55.2829C44.8346 57.3026 48.474 59.994 52.8934 60.045C56.0235 60.0769 59.1266 58.4692 60.8329 55.935C61.0028 55.6826 61.4182 55.6065 61.7569 55.7644C72.5291 60.7988 84.3574 63.8036 95.9617 64.4546C99.3135 64.6433 102.18 67.0346 102.931 70.2683C103.721 73.6819 104.262 77.3381 104.539 81.1421C104.69 83.1705 104.767 85.2968 104.767 87.4616C104.767 91.6136 104.087 95.6614 102.746 99.4931C98.5444 111.506 89.1405 118.682 82.8971 122.298C81.3068 121.122 79.3905 120.486 77.3767 120.486H47.7004L51.7485 114.702C52.8953 113.07 53.466 111.154 53.3996 109.185C53.3261 106.319 51.9517 103.709 49.6328 102.026L49.4959 101.927C47.4514 100.443 44.958 99.8464 42.4751 100.244C40.0043 100.64 37.8371 101.977 36.372 104.007C35.3138 105.475 33.2393 108.349 30.7721 111.766C27.5801 108.003 25.1906 103.887 23.6543 99.4927C21.489 93.3075 21.3683 87.7523 21.8621 81.1376C22.1453 77.2534 22.7066 73.5146 23.5305 70.0256C23.8875 68.514 22.9515 66.999 21.4395 66.642C19.9279 66.285 18.4129 67.221 18.0559 68.733C17.3505 71.7202 16.8266 74.8699 16.4861 78.1208H11.52C10.7895 78.1208 10.0763 78.1931 9.384 78.327L8.75137 56.4626C8.50088 47.7446 14.2084 40.1164 22.6309 37.9117C23.3625 37.7201 23.9865 37.242 24.3615 36.585C30.8512 25.2112 43.0057 18.1462 56.0813 18.1462H68.655C93.7804 18.1462 114.221 38.5871 114.221 63.7125V78.234C113.703 78.1605 113.174 78.12 112.635 78.12ZM172.335 68.295C176.005 68.295 178.991 65.3092 178.991 61.6387V12.2812C178.991 8.61075 176.003 5.625 172.331 5.625H122.974C119.304 5.625 116.317 8.61075 116.317 12.2812V45.0341C118.594 50.8237 119.846 57.1245 119.846 63.7125V67.5135C120.799 68.0254 121.861 68.295 122.974 68.295H131.831C135.957 68.295 139.312 71.6513 139.312 75.7763V80.688L146.736 71.1229C148.135 69.3247 150.239 68.295 152.512 68.295H172.335ZM134.613 26.7821C134.613 19.5907 140.463 13.7404 147.654 13.7404C154.845 13.7404 160.696 19.5907 160.696 26.7821C160.696 33.6274 155.394 39.258 148.682 39.7837V46.6335C148.682 48.1868 147.423 49.446 145.869 49.446C144.315 49.446 143.057 48.1868 143.057 46.6335V37.0114C143.057 35.4581 144.315 34.1989 145.869 34.1989H147.654C151.744 34.1989 155.071 30.8719 155.071 26.7821C155.071 22.6924 151.744 19.3654 147.654 19.3654C143.565 19.3654 140.238 22.6924 140.238 26.7821C140.238 28.3354 138.979 29.5946 137.425 29.5946C135.872 29.5946 134.613 28.3354 134.613 26.7821ZM143.057 56.544C143.057 54.9907 144.315 53.7315 145.869 53.7315C147.422 53.7315 148.682 54.9907 148.682 56.544V57.3679C148.682 58.9211 147.423 60.1804 145.869 60.1804C144.315 60.1804 143.057 58.9211 143.057 57.3679V56.544ZM51.801 87.4342C51.801 88.9875 50.5417 90.2467 48.9885 90.2467C47.4353 90.2467 46.176 88.9875 46.176 87.4342V84.294C46.176 82.7407 47.4353 81.4815 48.9885 81.4815C50.5417 81.4815 51.801 82.7407 51.801 84.294V87.4342ZM91.0174 90.2467C92.571 90.2467 93.8299 88.9875 93.8299 87.4342V84.294C93.8299 82.7407 92.571 81.4815 91.0174 81.4815C89.4641 81.4815 88.2049 82.7407 88.2049 84.294V87.4342C88.2049 88.9875 89.4641 90.2467 91.0174 90.2467ZM76.3927 104.085C72.558 101.848 68.9869 101.848 65.1521 104.085C63.8107 104.867 62.088 104.414 61.3054 103.072C60.5227 101.731 60.9761 100.008 62.3179 99.2257C67.8487 95.9992 73.6957 95.9992 79.2266 99.2257C80.5684 100.008 81.0217 101.73 80.2391 103.072C79.7164 103.968 78.7747 104.468 77.8072 104.468C77.3257 104.468 76.8382 104.344 76.3927 104.085Z" fill="white"/>
</mask>
<g mask="url(#mask0_2015_15542)">
<g id="colors/@aqua_2">
<rect id="Rectangle Copy 9" x="-11.1504" y="-5.53931" width="211.2" height="208" fill="#00C5CA"/>
</g>
</g>
</g>
</g>
</svg>
