<svg width="64" height="64" viewBox="0 0 64 64" fill="none" xmlns="http://www.w3.org/2000/svg">
<g clip-path="url(#clip0)">
<path d="M3.7666 22.4937H7.51562V18.7451H11.2646V14.9961H7.51562V11.2471H3.7666V14.9961H0.0175781V18.7451H3.7666V22.4937Z" fill="#0073E6"/>
<path d="M11.3892 3.74902H15.2632V7.49805H11.3892V3.74902Z" fill="#0073E6"/>
<path d="M60.251 45.2378H56.502V48.9868H52.7529V52.7354H56.502V56.4844H60.251V52.7354H64V48.9868H60.251V45.2378Z" fill="#0073E6"/>
<path d="M49.0039 60.2334H52.7529V63.9824H49.0039V60.2334Z" fill="#0073E6"/>
<path d="M39.6318 0C26.1948 0 15.2632 10.9316 15.2632 24.3682C15.2632 30.4136 17.4771 35.9507 21.1348 40.2144L16.1465 45.2026L13.4956 42.5518L0 56.0474L7.95264 64L21.4482 50.5044L18.7974 47.8535L23.7856 42.8652C28.0493 46.5234 33.5864 48.7368 39.6318 48.7368C53.0684 48.7368 64 37.8052 64 24.3682C64 10.9316 53.0684 0 39.6318 0V0ZM7.95264 58.6982L5.30176 56.0474L13.4956 47.8535L16.1465 50.5044L7.95264 58.6982ZM39.6318 44.9878C28.2622 44.9878 19.0122 35.7378 19.0122 24.3682C19.0122 12.999 28.2622 3.74902 39.6318 3.74902C51.001 3.74902 60.251 12.999 60.251 24.3682C60.251 35.7378 51.001 44.9878 39.6318 44.9878Z" fill="#0073E6"/>
<path d="M39.6318 7.49805C30.3291 7.49805 22.7612 15.0659 22.7612 24.3682C22.7612 33.6709 30.3291 41.2388 39.6318 41.2388C48.9341 41.2388 56.502 33.6709 56.502 24.3682C56.502 15.0659 48.9341 7.49805 39.6318 7.49805ZM51.4854 29.9917H41.5063V33.7397H48.8047C46.437 36.0571 43.1987 37.4897 39.6318 37.4897C32.3965 37.4897 26.5103 31.6035 26.5103 24.3682C26.5103 23.7319 26.5566 23.1064 26.6445 22.4937H31.3574L35.1064 26.2427H41.5063V22.4937H36.6592L32.9102 18.7451H27.7778C29.8877 14.3159 34.4077 11.2471 39.6318 11.2471C43.1987 11.2471 46.437 12.6782 48.8047 14.9961H37.7573V18.7451H51.4854C52.2974 20.4502 52.7529 22.3569 52.7529 24.3682C52.7529 26.3799 52.2974 28.2866 51.4854 29.9917Z" fill="#0073E6"/>
<path d="M34.0083 29.9917H37.7573V33.7407H34.0083V29.9917Z" fill="#0073E6"/>
</g>
<defs>
<clipPath id="clip0">
<rect width="64" height="64" fill="white"/>
</clipPath>
</defs>
</svg>
