<svg width="96" height="96" viewBox="0 0 96 96" fill="none" xmlns="http://www.w3.org/2000/svg">
<mask id="mask0" mask-type="alpha" maskUnits="userSpaceOnUse" x="0" y="0" width="95" height="95">
<path fill-rule="evenodd" clip-rule="evenodd" d="M92.4873 82.2247L67.8448 57.5822C71.8593 51.5353 73.9738 44.5329 73.9738 37.2304C73.9738 16.871 57.4101 0.307327 37.0508 0.307327C16.6914 0.307327 0.127686 16.871 0.127686 37.2304C0.127686 57.5898 16.6914 74.1535 37.0508 74.1535C44.3534 74.1535 51.3559 72.0387 57.4026 68.0246L64.214 74.836L64.2169 74.839L82.0449 92.6669C83.4402 94.062 85.2943 94.8304 87.2662 94.8304C89.238 94.8304 91.0921 94.062 92.4867 92.6674C93.8822 91.273 94.6508 89.4188 94.6508 87.4458C94.6508 85.4728 93.8822 83.6185 92.4873 82.2247ZM56.5343 64.1338L56.5343 64.134L56.534 64.1342C50.8354 68.2733 44.0985 70.4612 37.0508 70.4612C18.7273 70.4612 3.81999 55.5538 3.81999 37.2304C3.81999 18.907 18.7273 3.99963 37.0508 3.99963C55.3742 3.99963 70.2815 18.907 70.2815 37.2304C70.2815 44.2781 68.0937 51.0151 63.9544 56.7138C61.8836 59.5666 59.3872 62.0632 56.5343 64.1338ZM65.6279 60.5872C64.065 62.4978 62.3183 64.2444 60.4076 65.8076L65.6453 71.0453C67.5252 69.4526 69.2728 67.7049 70.8657 65.8249L65.6279 60.5872ZM89.8764 90.0561C89.1786 90.7539 88.2516 91.1381 87.2661 91.1381C86.2807 91.1381 85.3537 90.7539 84.6559 90.0561L68.2629 73.6631C70.1325 72.0586 71.879 70.3124 73.4833 68.4428L89.8768 84.8363C90.5743 85.533 90.9585 86.4596 90.9585 87.4458C90.9585 88.432 90.5743 89.3586 89.8764 90.0561ZM55.5123 37.2304C55.5123 36.2113 56.3394 35.3842 57.3585 35.3842C58.3775 35.3842 59.2046 36.2113 59.2046 37.2304C59.2046 38.2495 58.3775 39.0766 57.3585 39.0766C56.3394 39.0766 55.5123 38.2495 55.5123 37.2304ZM7.5123 37.2304C7.5123 20.9427 20.7631 7.69194 37.0508 7.69194C53.3385 7.69194 66.5892 20.9427 66.5892 37.2304C66.5892 53.5181 53.3385 66.7689 37.0508 66.7689C20.7631 66.7689 7.5123 53.5181 7.5123 37.2304ZM11.2046 37.2304C11.2046 51.482 22.7992 63.0766 37.0508 63.0766C51.3023 63.0766 62.8969 51.482 62.8969 37.2304C62.8969 22.9788 51.3023 11.3843 37.0508 11.3843C22.7992 11.3843 11.2046 22.9788 11.2046 37.2304ZM49.7348 19.0753C53.382 21.6302 56.15 25.1678 57.7397 29.3054C58.1054 30.2573 57.6302 31.3253 56.6785 31.691C56.4608 31.7747 56.2369 31.8143 56.0168 31.8143C55.2747 31.8143 54.5752 31.3639 54.2931 30.6299C51.5672 23.5353 44.6383 18.7689 37.0508 18.7689C36.0313 18.7689 35.2046 17.9422 35.2046 16.9227C35.2046 15.9033 36.0313 15.0766 37.0508 15.0766C41.6146 15.0766 46.0007 16.4593 49.7348 19.0753Z" fill="white"/>
</mask>
<g mask="url(#mask0)">
<rect x="-22.3047" y="-26.9478" width="147.692" height="147.692" fill="#0073E6"/>
</g>
</svg>
