<svg width="96" height="96" viewBox="0 0 96 96" fill="none" xmlns="http://www.w3.org/2000/svg">
<path d="M88.2581 21.6774H71.2258V12.3871H58.8387V0H0V77.4193H12.3871V86.7097H46.4516V88.2581C46.4516 92.5316 49.92 96 54.1935 96H88.2581C92.5316 96 96 92.5316 96 88.2581V29.4194C96 25.1458 92.5316 21.6774 88.2581 21.6774ZM3.09677 74.3226V3.09677H55.7419V12.3871H28.7845L12.3871 28.7845V74.3226H3.09677ZM27.871 17.6671V27.871H17.6671L27.871 17.6671ZM46.4516 52.6452H21.6774V40.2581H46.4516V52.6452ZM46.4516 29.4194V37.1613H18.5806V55.7419H46.4516V83.6129H15.4839V30.9677H30.9677V15.4839H68.129V21.6774H54.1935C49.92 21.6774 46.4516 25.1458 46.4516 29.4194ZM92.9032 88.2581C92.9032 90.8129 90.8129 92.9032 88.2581 92.9032H54.1935C51.6387 92.9032 49.5484 90.8129 49.5484 88.2581V29.4194C49.5484 26.8645 51.6387 24.7742 54.1935 24.7742H88.2581C90.8129 24.7742 92.9032 26.8645 92.9032 29.4194V88.2581Z" fill="#0073E6"/>
<path d="M86.7095 34.0645H55.7418C54.0386 34.0645 52.645 35.458 52.645 37.1612V80.5161C52.645 82.2193 54.0386 83.6128 55.7418 83.6128H86.7095C88.4128 83.6128 89.8063 82.2193 89.8063 80.5161V37.1612C89.8063 35.458 88.4128 34.0645 86.7095 34.0645ZM86.7095 43.3548H80.516V37.1612H86.7095V43.3548ZM61.9353 37.1612V43.3548H55.7418V37.1612H61.9353ZM55.7418 46.4515H65.0321V37.1612H77.4192V46.4515H86.7095V71.2257H77.4192V80.5161H55.7418V46.4515ZM80.516 80.5161V74.3225H86.7095V80.5161H80.516Z" fill="#0073E6"/>
<path d="M77.4193 86.7097H65.0322V89.8065H77.4193V86.7097Z" fill="#0073E6"/>
<path d="M78.9676 27.8708H69.6772V30.9676H78.9676V27.8708Z" fill="#0073E6"/>
<path d="M66.5807 27.8708H63.4839V30.9676H66.5807V27.8708Z" fill="#0073E6"/>
<path d="M71.226 74.3226H58.8389V77.4194H71.226C72.9292 77.4194 74.3227 76.0258 74.3227 74.3226V71.2258H71.226V74.3226Z" fill="#0073E6"/>
<path d="M61.9356 71.2259H65.0324V68.1291H61.9356V65.0323H65.0324V61.9355H61.9356C60.2324 61.9355 58.8389 63.3291 58.8389 65.0323V68.1291C58.8389 69.8323 60.2324 71.2259 61.9356 71.2259Z" fill="#0073E6"/>
<path d="M71.2257 61.9355H68.1289V65.0323H71.2257V68.1291H74.3225V65.0323C74.3225 63.3291 72.9289 61.9355 71.2257 61.9355Z" fill="#0073E6"/>
<path d="M83.613 65.0322H77.4194V68.129H83.613V65.0322Z" fill="#0073E6"/>
<path d="M80.5162 61.9354H83.613V52.6451C83.613 50.9419 82.2194 49.5483 80.5162 49.5483H77.4194V52.6451H80.5162V61.9354Z" fill="#0073E6"/>
<path d="M77.4192 55.7419H68.1289V58.8387H77.4192V55.7419Z" fill="#0073E6"/>
<path d="M71.2257 52.6452H74.3225V49.5484H71.2257V43.3548H74.3225V40.2581H71.2257C69.5225 40.2581 68.1289 41.6516 68.1289 43.3548V49.5484C68.1289 51.2516 69.5225 52.6452 71.2257 52.6452Z" fill="#0073E6"/>
<path d="M65.0324 55.7419V52.6451C65.0324 50.9419 63.6389 49.5483 61.9356 49.5483H58.8389V52.6451H61.9356V55.7419H58.8389V58.8387H61.9356C63.6389 58.8387 65.0324 57.4451 65.0324 55.7419Z" fill="#0073E6"/>
<path d="M47.9999 18.5806H34.0645V21.6773H47.9999V18.5806Z" fill="#0073E6"/>
<path d="M43.3548 24.7742H34.0645V27.8709H43.3548V24.7742Z" fill="#0073E6"/>
<path d="M43.3548 30.9678H34.0645V34.0645H43.3548V30.9678Z" fill="#0073E6"/>
<path d="M21.6773 58.8386H18.5806V61.9354H21.6773V58.8386Z" fill="#0073E6"/>
<path d="M43.3551 58.8386H24.7744V61.9354H43.3551V58.8386Z" fill="#0073E6"/>
<path d="M43.3548 65.0322H18.5806V68.129H43.3548V65.0322Z" fill="#0073E6"/>
<path d="M43.3548 71.2258H18.5806V74.3226H43.3548V71.2258Z" fill="#0073E6"/>
<path d="M43.3548 77.4194H18.5806V80.5162H43.3548V77.4194Z" fill="#0073E6"/>
<path d="M9.29013 6.1936H6.19336V9.29038H9.29013V6.1936Z" fill="#0073E6"/>
<path d="M52.6453 6.1936H12.3872V9.29038H52.6453V6.1936Z" fill="#0073E6"/>
<path d="M15.4837 12.3872H6.19336V15.484H15.4837V12.3872Z" fill="#0073E6"/>
<path d="M15.4837 18.5806H6.19336V21.6773H15.4837V18.5806Z" fill="#0073E6"/>
</svg>
