<svg width="64" height="64" viewBox="0 0 64 64" fill="none" xmlns="http://www.w3.org/2000/svg">
<path d="M50.75 3.75H60.25V13.25C60.25 14.2856 61.0894 15.125 62.125 15.125C63.1606 15.125 64 14.2856 64 13.25V1.875C64 0.839355 63.1606 0 62.125 0H50.75C49.7144 0 48.875 0.839355 48.875 1.875C48.875 2.91064 49.7144 3.75 50.75 3.75Z" fill="#0073E6"/>
<path d="M64 50.75C64 49.7144 63.1606 48.875 62.125 48.875C61.0894 48.875 60.25 49.7144 60.25 50.75V60.25H50.75C49.7144 60.25 48.875 61.0894 48.875 62.125C48.875 63.1606 49.7144 64 50.75 64H62.125C63.1606 64 64 63.1606 64 62.125V50.75Z" fill="#0073E6"/>
<path d="M1.875 64H13.25C14.2856 64 15.125 63.1606 15.125 62.125C15.125 61.0894 14.2856 60.25 13.25 60.25H3.75V50.75C3.75 49.7144 2.91064 48.875 1.875 48.875C0.839355 48.875 0 49.7144 0 50.75V62.125C0 63.1606 0.839355 64 1.875 64Z" fill="#0073E6"/>
<path d="M1.875 15.125C2.91064 15.125 3.75 14.2856 3.75 13.25V3.75H13.25C14.2856 3.75 15.125 2.91064 15.125 1.875C15.125 0.839355 14.2856 0 13.25 0H1.875C0.839355 0 0 0.839355 0 1.875V13.25C0 14.2856 0.839355 15.125 1.875 15.125Z" fill="#0073E6"/>
<path d="M7.625 9.5V24.5C7.625 25.5356 8.46436 26.375 9.5 26.375H24.5C25.5356 26.375 26.375 25.5356 26.375 24.5V9.5C26.375 8.46436 25.5356 7.625 24.5 7.625H9.5C8.46436 7.625 7.625 8.46436 7.625 9.5ZM11.375 11.375H22.625V22.625H11.375V11.375Z" fill="#0073E6"/>
<path d="M39.5 26.375H54.5C55.5356 26.375 56.375 25.5356 56.375 24.5V9.5C56.375 8.46436 55.5356 7.625 54.5 7.625H39.5C38.4644 7.625 37.625 8.46436 37.625 9.5V24.5C37.625 25.5356 38.4644 26.375 39.5 26.375ZM41.375 11.375H52.625V22.625H41.375V11.375Z" fill="#0073E6"/>
<path d="M7.625 54.5C7.625 55.5356 8.46436 56.375 9.5 56.375H24.5C25.5356 56.375 26.375 55.5356 26.375 54.5V39.5C26.375 38.4644 25.5356 37.625 24.5 37.625H9.5C8.46436 37.625 7.625 38.4644 7.625 39.5V54.5ZM11.375 41.375H22.625V52.625H11.375V41.375Z" fill="#0073E6"/>
<path d="M9.5 33.875H17C18.0356 33.875 18.875 33.0356 18.875 32C18.875 30.9644 18.0356 30.125 17 30.125H9.5C8.46436 30.125 7.625 30.9644 7.625 32C7.625 33.0356 8.46436 33.875 9.5 33.875Z" fill="#0073E6"/>
<path d="M33.875 41.375V32C33.875 30.9644 33.0356 30.125 32 30.125H24.5C23.4644 30.125 22.625 30.9644 22.625 32C22.625 33.0356 23.4644 33.875 24.5 33.875H30.125V43.25C30.125 44.2856 30.9644 45.125 32 45.125H45.125V47C45.125 48.0356 45.9644 48.875 47 48.875C48.0356 48.875 48.875 48.0356 48.875 47V45.125H52.625V54.5C52.625 55.5356 53.4644 56.375 54.5 56.375C55.5356 56.375 56.375 55.5356 56.375 54.5V43.25C56.375 42.2144 55.5356 41.375 54.5 41.375H41.375V39.5C41.375 38.4644 40.5356 37.625 39.5 37.625C38.4644 37.625 37.625 38.4644 37.625 39.5V41.375H33.875Z" fill="#0073E6"/>
<path d="M32 48.875C30.9644 48.875 30.125 49.7144 30.125 50.75V54.5C30.125 55.5356 30.9644 56.375 32 56.375H39.5C40.5356 56.375 41.375 55.5356 41.375 54.5C41.375 53.4644 40.5356 52.625 39.5 52.625H33.875V50.75C33.875 49.7144 33.0356 48.875 32 48.875Z" fill="#0073E6"/>
<path d="M39.5 33.875H45.125V35.75C45.125 36.7856 45.9644 37.625 47 37.625C48.0356 37.625 48.875 36.7856 48.875 35.75V33.875H52.625V35.75C52.625 36.7856 53.4644 37.625 54.5 37.625C55.5356 37.625 56.375 36.7856 56.375 35.75V32C56.375 30.9644 55.5356 30.125 54.5 30.125H39.5C38.4644 30.125 37.625 30.9644 37.625 32C37.625 33.0356 38.4644 33.875 39.5 33.875Z" fill="#0073E6"/>
<path d="M32 26.375C33.0356 26.375 33.875 25.5356 33.875 24.5V9.5C33.875 8.46436 33.0356 7.625 32 7.625C30.9644 7.625 30.125 8.46436 30.125 9.5V24.5C30.125 25.5356 30.9644 26.375 32 26.375Z" fill="#0073E6"/>
<path d="M18.875 47C18.875 48.0356 18.0356 48.875 17 48.875C15.9644 48.875 15.125 48.0356 15.125 47C15.125 45.9644 15.9644 45.125 17 45.125C18.0356 45.125 18.875 45.9644 18.875 47Z" fill="#0073E6"/>
<path d="M18.875 17C18.875 18.0356 18.0356 18.875 17 18.875C15.9644 18.875 15.125 18.0356 15.125 17C15.125 15.9644 15.9644 15.125 17 15.125C18.0356 15.125 18.875 15.9644 18.875 17Z" fill="#0073E6"/>
<path d="M48.875 17C48.875 18.0356 48.0356 18.875 47 18.875C45.9644 18.875 45.125 18.0356 45.125 17C45.125 15.9644 45.9644 15.125 47 15.125C48.0356 15.125 48.875 15.9644 48.875 17Z" fill="#0073E6"/>
<path d="M48.875 54.5C48.875 55.5356 48.0356 56.375 47 56.375C45.9644 56.375 45.125 55.5356 45.125 54.5C45.125 53.4644 45.9644 52.625 47 52.625C48.0356 52.625 48.875 53.4644 48.875 54.5Z" fill="#0073E6"/>
</svg>
