<svg width="96" height="96" viewBox="0 0 96 96" fill="none" xmlns="http://www.w3.org/2000/svg">
<g clip-path="url(#clip0)">
<path d="M63.4054 74.8291C65.8114 74.8291 69.3497 72.6495 73.6381 68.5735C75.7893 66.5213 78.0821 64.0445 80.573 61.1148C83.1064 58.1427 89.9848 49.4952 90.65 48.7168C92.405 46.6504 91.9804 44.2019 89.914 42.6026C87.7345 40.9326 84.9039 41.1307 82.7526 43.6217C78.719 48.2922 73.8079 53.6137 68.0476 59.5863C66.1653 61.5394 63.1507 58.8645 64.8773 56.7698C65.5991 55.8923 65.9954 54.8026 65.9954 53.642C65.9954 50.9529 63.83 48.7592 61.1692 48.7168H36.3731C32.8632 48.7168 28.7447 50.6699 25.9848 53.5429C22.8428 56.7981 20.3378 59.6004 18.4554 61.9357L26.282 74.8149H63.4054V74.8291ZM79.5399 40.8335C83.2055 36.6018 88.5695 36.2196 92.4899 39.2201C96.3961 42.2205 97.3019 47.4288 93.8769 51.4483C93.2683 52.1559 86.3899 60.8176 83.7999 63.8605C81.2241 66.8892 78.8322 69.4651 76.5677 71.6305C71.5434 76.4142 67.2409 79.0608 63.4054 79.0608C47.6106 79.0608 35.7646 79.0608 27.853 79.0608C25.2205 79.0608 15.5682 58.7371 16.1909 57.987C18.0025 55.8357 20.2387 53.3731 22.9136 50.5991C26.4377 46.9335 31.6319 44.4708 36.359 44.4708H54.4182C57.4612 44.4708 57.4612 44.4708 61.1976 44.4708C65.4435 44.5275 68.9817 47.4571 69.9583 51.4058C73.5814 47.5704 76.7659 44.0463 79.5399 40.8335Z" fill="#0073E6"/>
<path d="M18.2148 85.8402L26.7916 80.8866L13.3462 57.6049L4.76945 62.5584L18.2148 85.8402ZM1.41519 59.5863L12.4404 53.2174C13.7991 52.439 15.5258 52.9061 16.3042 54.2506L31.1649 79.995C31.9433 81.3537 31.4762 83.0803 30.1317 83.8587L19.1065 90.2276C17.7478 91.006 16.0211 90.539 15.2427 89.1944L0.382015 63.4501C-0.396402 62.1055 0.0564949 60.3647 1.41519 59.5863Z" fill="#0073E6"/>
<path d="M46.2519 48.7167C45.0772 48.7167 44.1289 47.7685 44.1289 46.5938C44.1289 45.4191 45.0772 44.4708 46.2519 44.4708H61.0559C66.1369 44.4708 70.2554 48.5894 70.2554 53.6703C70.2554 58.7512 66.1369 62.8698 61.0559 62.8698H46.9029C45.7282 62.8698 44.7799 61.9215 44.7799 60.7468C44.7799 59.5721 45.7282 58.6239 46.9029 58.6239H61.0559C63.7875 58.6239 66.0095 56.4018 66.0095 53.6703C66.0095 50.9388 63.7875 48.7167 61.0559 48.7167H46.2519Z" fill="#0073E6"/>
<path d="M60.7304 6.92294C66.1652 3.78097 73.0718 4.1631 81.3372 7.82874L82.7525 8.45147L82.5968 9.99415C81.6486 18.9813 78.5066 25.152 73.0718 28.294C65.4009 32.7239 54.6446 31.5492 52.0546 25.9729C49.4504 20.3966 53.3284 11.1972 60.7304 6.92294ZM62.8534 10.6027C57.2346 13.8438 54.3191 20.7788 55.8901 24.1755C57.2346 27.0769 65.1745 27.9402 70.9347 24.6142C74.7419 22.4205 77.1904 17.9765 78.1669 11.0981C71.7273 8.50808 66.6605 8.40901 62.8534 10.6027Z" fill="#0073E6"/>
<path d="M34.0101 18.6841C29.1839 17.8349 24.2586 19.8163 19.2767 24.4161L18.0879 25.5059L18.8238 26.9353C21.9234 32.9504 25.8862 36.5028 30.7124 37.3519C37.5483 38.5549 45.1626 35.0167 45.5589 30.1339C45.9552 25.3926 40.5771 19.8446 34.0101 18.6841ZM33.2741 22.8734C37.8597 23.6801 41.5253 27.4731 41.3413 29.8225C41.2847 30.4453 40.294 31.4926 38.5815 32.2993C36.501 33.2759 33.911 33.6297 31.4625 33.2051C28.4621 32.6814 25.773 30.4877 23.4094 26.4683C26.9901 23.482 30.2737 22.3356 33.2741 22.8734Z" fill="#0073E6"/>
<path d="M51.8426 45.1786C51.8426 46.3533 50.8943 47.3016 49.7196 47.3016C48.5449 47.3016 47.5967 46.3533 47.5967 45.1786C47.5967 39.7438 47.5967 39.7438 47.5967 32.2993C47.7241 28.8743 48.8704 26.2702 51.0925 24.6992C53.1871 23.2272 58.1265 20.2693 67.0429 15.0326C68.0478 14.4382 69.3499 14.7779 69.9443 15.7828C70.5387 16.7876 70.1991 18.0897 69.1942 18.6841C60.4618 23.8075 55.4941 26.7938 53.541 28.1667C52.5219 28.8885 51.9275 30.233 51.8426 32.3701V45.1786Z" fill="#0073E6"/>
<path d="M47.5968 42.348C47.5968 43.5227 48.5451 44.471 49.7198 44.471C50.8945 44.471 51.8427 43.5227 51.8427 42.348L51.8286 37.9464C51.4748 35.4413 50.4133 33.2901 48.6583 31.5634C46.9741 29.9075 45.4314 28.9592 43.8604 28.8602L31.802 26.1286C30.6557 25.8739 29.5234 26.5815 29.2687 27.7279C29.0139 28.8743 29.7216 30.0066 30.8679 30.2613L43.3509 33.0919C43.6764 33.1344 43.9454 33.2052 44.1435 33.3325C44.5681 33.5873 45.0917 33.9977 45.6862 34.578C46.7335 35.6112 47.3704 36.8708 47.611 38.3993V42.348H47.5968Z" fill="#0073E6"/>
</g>
<defs>
<clipPath id="clip0">
<rect width="96" height="85.8098" fill="white" transform="translate(0 4.80005)"/>
</clipPath>
</defs>
</svg>
