<svg width="74" height="65" viewBox="0 0 74 65" fill="none" xmlns="http://www.w3.org/2000/svg">
<g clip-path="url(#clip0)">
<path d="M68.8541 35.4993C68.75 34.6458 68.0744 33.9733 67.2169 33.8697C66.9045 33.8321 62.9263 33.3796 58.0429 34.0681C58.5282 32.0408 58.7746 29.9594 58.7746 27.8484C58.7746 20.6952 55.976 13.9701 50.8943 8.91205C45.8127 3.85398 39.0563 1.06836 31.8697 1.06836C24.6831 1.06836 17.9267 3.85398 12.8451 8.91205C7.76345 13.9701 4.96484 20.6952 4.96484 27.8484C4.96484 35.0017 7.76345 41.7267 12.8451 46.7848C17.9267 51.8428 24.6831 54.6285 31.8697 54.6285C33.9906 54.6285 36.0815 54.3832 38.1184 53.9003C37.4266 58.7609 37.8811 62.7208 37.9192 63.0317C38.0233 63.8852 38.6989 64.5576 39.5564 64.6613C39.7362 64.683 41.13 64.8423 43.2119 64.8423C48.1129 64.8423 56.826 63.9599 62.4878 58.3244C70.5546 50.295 68.9273 36.0997 68.8541 35.4993ZM53.9107 34.9156C50.7698 35.7812 47.5729 37.2248 44.9365 39.5935C41.8565 37.282 37.9193 36.3642 34.0732 37.1299C32.9644 37.3505 31.8265 37.068 30.9518 36.3541C30.0771 35.6404 29.5754 34.5854 29.5754 33.4596C29.5754 31.3958 31.2623 29.7168 33.3357 29.7168H35.2888C38.1059 29.7168 40.7653 28.3545 42.4027 26.0728C45.0107 22.4386 48.7213 19.737 52.9625 18.3538C54.284 21.2506 55.0204 24.4654 55.0204 27.8484C55.0204 30.267 54.6472 32.6396 53.9107 34.9156ZM40.4177 6.43359C39.0199 9.8562 35.6905 12.1402 31.8697 12.1402C28.049 12.1402 24.7195 9.8562 23.3217 6.43359C25.9677 5.38344 28.852 4.80511 31.8697 4.80511C34.8874 4.80511 37.7718 5.38344 40.4177 6.43359ZM9.63903 21.4129H16.1116C17.6322 21.4129 18.8693 22.6442 18.8693 24.1578C18.8693 25.0171 18.4569 25.838 17.7662 26.3536C16.3746 27.3924 15.4616 28.9069 15.1957 30.618C14.9297 32.329 15.34 34.0473 16.351 35.4562C17.118 36.525 17.3885 37.8721 17.0933 39.1521C16.7981 40.4321 15.9646 41.5268 14.8061 42.1557L14.0641 42.5586C10.728 38.565 8.71901 33.4361 8.71901 27.8484C8.71901 25.6155 9.04099 23.4562 9.63903 21.4129ZM31.8697 50.8917C26.1182 50.8917 20.8505 48.7925 16.7974 45.3245C18.7967 44.1688 20.2337 42.2373 20.7522 39.9881C21.2876 37.6662 20.7968 35.2229 19.4057 33.2843C18.5081 32.0335 18.7829 30.2653 20.0184 29.343C21.6495 28.1254 22.6232 26.1869 22.6232 24.1576C22.6232 20.5837 19.702 17.676 16.1113 17.676H11.1009C13.0735 13.7021 16.1629 10.3721 19.9596 8.09557C20.7933 9.99708 22.0811 11.6954 23.7165 13.0106C26.0146 14.859 28.9102 15.8769 31.8698 15.8769C34.8295 15.8769 37.7251 14.859 40.0231 13.0106C41.6585 11.6954 42.9463 9.99708 43.7801 8.09557C46.7029 9.84823 49.2071 12.2248 51.1049 15.0392C46.3938 16.7305 42.2799 19.8153 39.3481 23.9007C38.4137 25.2028 36.8963 25.98 35.2889 25.98H33.3358C29.1924 25.98 25.8214 29.3354 25.8214 33.4596C25.8214 35.7093 26.8239 37.8176 28.5718 39.2439C30.3196 40.6702 32.5933 41.2353 34.8096 40.7939C37.4894 40.2605 40.231 40.8554 42.4219 42.3922C40.7646 44.6754 39.6756 47.2494 38.9698 49.787C36.6831 50.5203 34.2995 50.8917 31.8697 50.8917ZM59.8331 55.6821C55.4818 60.0133 48.5788 60.9588 44.1731 61.0785L56.1264 49.1807C56.8595 48.451 56.8595 47.2681 56.1264 46.5384C55.3934 45.8087 54.2049 45.8087 53.4718 46.5384L41.5123 58.4425C41.6272 54.0624 42.5728 47.1958 46.9399 42.8489C52.319 37.4948 61.597 37.3137 65.2376 37.4722C65.4018 41.0931 65.2291 50.3112 59.8331 55.6821Z" fill="#0073E6"/>
</g>
<defs>
<clipPath id="clip0">
<rect width="64.0711" height="63.7739" fill="white" transform="translate(4.96484 1.06836)"/>
</clipPath>
</defs>
</svg>
