<svg width="28" height="48" viewBox="0 0 28 48" fill="none" xmlns="http://www.w3.org/2000/svg">
<path d="M26.6662 40.9326C26.6662 44.1326 24.1329 46.6659 20.9329 46.6659H7.59957C4.39957 46.6659 1.86621 44.1326 1.86621 40.9326V6.93258C1.86621 3.73258 4.39957 1.19922 7.59957 1.19922H20.9329C24.1329 1.19922 26.6662 3.73258 26.6662 6.93258V40.9326Z" stroke="#0073E6" stroke-width="1.3401" stroke-miterlimit="10" stroke-linecap="round" stroke-linejoin="round"/>
<path d="M2.5332 8.53247H25.8665" stroke="#0073E6" stroke-width="1.3401" stroke-miterlimit="10" stroke-linecap="round" stroke-linejoin="round"/>
<path d="M11.8662 5.06592H16.5329" stroke="#0073E6" stroke-width="1.3401" stroke-miterlimit="10" stroke-linecap="round" stroke-linejoin="round"/>
<path d="M2.5332 37.0659H25.8665" stroke="#0073E6" stroke-width="1.3401" stroke-miterlimit="10" stroke-linecap="round" stroke-linejoin="round"/>
<path d="M14.266 43.066C15.1497 43.066 15.866 42.3496 15.866 41.466C15.866 40.5823 15.1497 39.866 14.266 39.866C13.3824 39.866 12.666 40.5823 12.666 41.466C12.666 42.3496 13.3824 43.066 14.266 43.066Z" fill="#0073E6"/>
</svg>
