<svg width="96" height="96" viewBox="0 0 96 96" fill="none" xmlns="http://www.w3.org/2000/svg">
<g clip-path="url(#clip0)">
<path d="M87.6437 -0.00244141L51.7092 0.750289C51.1528 0.761198 50.5965 1.00123 50.2037 1.39395L1.25463 50.3212C-0.425371 52.0012 -0.425371 54.8158 1.25463 56.4958L39.5019 94.7104C41.1819 96.3904 43.9637 96.3904 45.6328 94.7104L94.5819 45.794C94.9746 45.4012 95.2146 44.8558 95.2255 44.2885L96.0001 8.3212C96.0001 8.31029 96.0001 8.29942 96.0001 8.28851C96.0001 6.24851 95.5964 3.92484 93.851 2.1903C92.1055 0.444842 89.7601 0.00847834 87.6765 0.00847834C87.6655 -0.00243075 87.6546 -0.00244141 87.6437 -0.00244141ZM87.7092 4.3612C87.7201 4.3612 87.731 4.3612 87.7419 4.3612C89.0074 4.3721 90.3274 4.80847 90.7746 5.24483C91.2219 5.6921 91.6146 6.93574 91.6255 8.24483C91.6255 8.25574 91.6255 8.26668 91.6255 8.27759L90.9055 43.2521L42.5674 91.623L4.36372 53.4194V53.3867L52.7019 5.08123L87.7092 4.3612ZM77.4546 10.9066C75.491 10.9066 73.5492 11.6703 72.0655 13.1539C69.0983 16.1212 69.0983 20.9648 72.0655 23.9321C75.0328 26.8994 79.8764 26.8994 82.8437 23.9321C85.811 20.9648 85.811 16.1212 82.8437 13.1539C81.3492 11.6812 79.4074 10.9066 77.4546 10.9066ZM77.4546 15.2703C78.2837 15.2703 79.1237 15.5757 79.7674 16.2303C81.0655 17.5285 81.0655 19.5685 79.7674 20.8667C78.4692 22.1648 76.4292 22.1648 75.131 20.8667C73.8328 19.5685 73.8328 17.5285 75.131 16.2303C75.7746 15.5757 76.6146 15.2703 77.4546 15.2703ZM51.3055 28.3612C42.9819 28.3612 35.9237 33.8921 33.5783 41.4521C32.5092 41.4521 31.3964 41.4521 30.3383 41.4521C29.1928 41.5066 28.2001 42.5976 28.2546 43.7321C28.3092 44.8776 29.4001 45.8703 30.5346 45.8157H32.7819C32.7601 46.1866 32.7164 46.5357 32.7164 46.9067C32.7164 47.6376 32.771 48.3794 32.8474 49.0885C32.0183 49.0885 31.1346 49.0885 30.3274 49.0885C29.1819 49.143 28.1892 50.234 28.2437 51.3685C28.2983 52.514 29.3892 53.5067 30.5237 53.4521H33.9274C36.5892 60.4557 43.3528 65.4521 51.2837 65.4521C57.2292 65.4521 61.331 62.8121 64.7892 59.354C65.6292 58.5576 65.651 57.063 64.8328 56.2339C64.0146 55.4048 62.5201 55.4157 61.7128 56.2448C58.6255 59.3321 56.0401 61.0885 51.2837 61.0885C45.7746 61.0885 41.0292 58.0012 38.6728 53.4521H52.3637C53.5201 53.463 54.5783 52.4267 54.5783 51.2703C54.5783 50.1139 53.5201 49.0776 52.3637 49.0885H37.2546C37.1455 48.3794 37.0801 47.6485 37.0801 46.9067C37.0801 46.5357 37.1237 46.1866 37.1455 45.8157H52.3637C53.5201 45.8267 54.5783 44.7903 54.5783 43.6339C54.5783 42.4776 53.5201 41.4412 52.3637 41.4521H38.1819C40.3201 36.3248 45.3819 32.7248 51.3055 32.7248C56.0619 32.7248 58.6474 34.4485 61.7346 37.5358C62.5419 38.3649 64.0365 38.3758 64.8546 37.5467C65.6728 36.7285 65.6401 35.223 64.811 34.4266C61.3419 30.9794 57.2401 28.3612 51.3055 28.3612Z" fill="#0073E6"/>
</g>
<defs>
<clipPath id="clip0">
<rect width="96" height="95.9564" fill="white"/>
</clipPath>
</defs>
</svg>
