<svg width="64" height="64" viewBox="0 0 64 64" fill="none" xmlns="http://www.w3.org/2000/svg">
<g clip-path="url(#clip0)">
<path d="M37.7266 35.8673C38.1177 33.8525 37.6669 32.0223 36.4907 30.8456C35.4288 29.7842 33.8561 29.3121 32.0615 29.5176C31.9826 29.5263 31.9038 29.539 31.8249 29.5504L33.6442 31.4002C34.547 32.319 34.5347 33.7955 33.6164 34.6983C33.1621 35.145 32.5714 35.3678 31.9813 35.3678C31.3779 35.3678 30.7749 35.1349 30.3183 34.6705L27.3114 31.6126C27.022 31.8482 26.7408 32.0998 26.4706 32.3696C26.2026 32.6375 25.9529 32.9169 25.7191 33.204L28.7187 36.1535C29.637 37.0567 29.6493 38.5333 28.7465 39.4516C28.2899 39.916 27.6869 40.1489 27.0831 40.1489C26.4929 40.1489 25.9023 39.926 25.4484 39.4794L23.6528 37.7139C23.6405 37.7959 23.6277 37.8784 23.6182 37.9604C23.4131 39.7547 23.8848 41.3278 24.9466 42.3897C26.1024 43.5454 27.8984 44.0025 29.8749 43.6438C31.1413 43.4132 32.3563 44.2541 32.5865 45.5215C32.8166 46.7888 31.9758 48.0029 30.7084 48.233C29.9843 48.3643 29.2683 48.429 28.5692 48.429C25.8841 48.4295 23.4363 47.4761 21.6481 45.6878C19.5599 43.5996 18.6138 40.6666 18.9843 37.43C19.1174 36.2651 19.4191 35.1103 19.8725 33.9965L18.4516 32.5992C17.5333 31.696 17.521 30.2194 18.4238 29.3011C19.327 28.3828 20.8036 28.3705 21.7219 29.2733L22.3822 29.9228C22.6338 29.6311 22.8968 29.3467 23.1725 29.0714C23.45 28.7939 23.7362 28.5287 24.0302 28.2757L23.4382 27.6737C22.5349 26.7554 22.5472 25.2789 23.466 24.3756C24.3843 23.4728 25.8608 23.4847 26.7641 24.4034L28.1057 25.7679C29.2173 25.3162 30.3689 25.0159 31.531 24.8828C34.768 24.5132 37.7002 25.4589 39.7888 27.547C42.0793 29.838 42.9967 33.194 42.3058 36.756C42.0606 38.0201 40.8379 38.8473 39.5719 38.6012C38.3077 38.356 37.4815 37.1319 37.7266 35.8673ZM61.8338 7.71644V7.80941C61.8356 11.0715 60.813 13.9212 58.7936 16.2773C57.7368 17.5105 56.4143 18.5924 54.8456 19.5107L56.0839 31.6659C56.3691 34.4691 55.3898 37.219 53.396 39.211C53.3923 39.2146 53.3887 39.2183 53.3846 39.2219L42.0005 50.4392C41.0831 51.3434 39.6061 51.3325 38.7024 50.4151C37.7982 49.4977 37.8091 48.0207 38.7265 47.117L50.1038 35.9065C51.0973 34.9112 51.5858 33.5381 51.4427 32.1385L50.3572 21.4776C46.8754 22.5919 43.8904 22.7623 43.7409 22.7705C43.6994 22.7728 43.658 22.7737 43.6165 22.7737C42.3846 22.7737 41.3552 21.8085 41.2895 20.5639C41.2221 19.2787 42.2083 18.1818 43.493 18.1125C43.5654 18.1084 46.6402 17.9157 49.8714 16.7116L49.6403 14.4435L31.8951 12.6401C30.4928 12.4984 29.1179 12.9879 28.1221 13.985L8.15255 33.889C6.34148 35.7028 6.34239 38.66 8.15802 40.477L23.4746 55.8063C25.3103 57.6438 28.2693 57.6744 30.0708 55.8742C30.9823 54.9637 32.4593 54.9642 33.3694 55.8756C34.28 56.7866 34.279 58.2636 33.3676 59.1737C31.5702 60.9698 29.2054 61.8666 26.8338 61.8666C24.428 61.8671 22.0145 60.9447 20.1747 59.1035L4.85808 43.7742C1.22683 40.1397 1.22546 34.2253 4.85535 30.5895L24.8254 10.6855C26.8124 8.69489 29.5618 7.71416 32.3668 7.99945L43.941 9.17568C47.1461 2.95589 55.6755 2.17295 56.0574 2.1415C56.1217 2.13604 56.1859 2.1333 56.2507 2.1333C59.3291 2.1333 61.8338 4.63799 61.8338 7.71644ZM57.1694 7.71644C57.1694 7.23838 56.8021 6.84417 56.335 6.80179C55.6304 6.88428 51.6861 7.44163 49.299 9.72028L52.0042 9.99508C53.1052 10.1072 53.9761 10.9776 54.0882 12.0791L54.3052 14.2051C56.227 12.5326 57.1708 10.4175 57.1694 7.81077V7.71644Z" fill="#0073E6"/>
</g>
<defs>
<clipPath id="clip0">
<rect width="59.7333" height="59.7333" fill="white" transform="translate(2.1333 2.1333)"/>
</clipPath>
</defs>
</svg>
