<svg width="96" height="87" viewBox="0 0 96 87" fill="none" xmlns="http://www.w3.org/2000/svg">
<mask id="mask0" mask-type="alpha" maskUnits="userSpaceOnUse" x="0" y="0" width="96" height="87">
<path fill-rule="evenodd" clip-rule="evenodd" d="M93.2698 55.1619C93.8951 54.5387 94.9057 54.5387 95.531 55.1619C96.1563 55.7852 96.1563 56.7941 95.531 57.4238L93.2698 59.6776C85.7184 67.2043 75.6786 71.3487 64.9992 71.3487C54.9307 71.3487 45.4331 67.6618 38.0512 60.9321C38.0259 60.9133 37.9987 60.8982 37.9715 60.8831C37.9319 60.8612 37.8925 60.8393 37.8593 60.8062L35.8587 62.8002L35.598 63.06L25.9485 72.6764L28.2098 74.9303L20.2938 82.8204C18.1812 84.9245 15.3715 86.0849 12.3778 86.0849C9.38567 86.0849 6.57269 84.9245 4.46175 82.8204C1.67596 80.0422 0.55652 75.9473 1.54322 72.1313C1.9846 70.4305 3.25756 69.1378 4.9543 68.6756C6.63026 68.2197 8.36698 68.6772 9.59836 69.9045C10.8425 71.1446 11.3207 72.8932 10.8489 74.4665C10.6794 75.0323 10.8313 75.6412 11.2487 76.0572C11.8724 76.6805 12.8863 76.6773 13.51 76.0572L21.426 68.1671L23.6873 70.421L25.4496 68.6644L24.3189 67.5375C23.6937 66.9142 23.6937 65.9069 24.3189 65.2836C24.9426 64.6604 25.9549 64.6604 26.5802 65.2836L27.7124 66.4106L33.5991 60.5432L35.5997 58.5475C35.567 58.515 35.5453 58.4767 35.5235 58.4381C35.509 58.4125 35.4944 58.3868 35.4765 58.3626C28.7215 51.0049 25.021 41.5367 25.021 31.4979C25.021 20.8534 29.1789 10.848 36.7303 3.32131L38.9931 1.06744C39.6184 0.444196 40.6291 0.444196 41.2544 1.06744C41.8797 1.69068 41.8797 2.69807 41.2544 3.32131L39.4281 5.14002C39.2522 8.42679 40.2821 11.3693 42.385 13.4653C44.488 15.5598 47.4449 16.5943 50.736 16.411L52.5607 14.5923C53.186 13.969 54.1967 13.969 54.822 14.5923C55.4472 15.2155 55.4472 16.2229 54.822 16.8461L52.9973 18.6648C52.8214 21.9516 53.8512 24.8941 55.9542 26.9901C58.1739 29.201 61.3403 30.2418 64.8505 29.9103C64.8648 29.9086 64.8777 29.9113 64.8907 29.9141L64.899 29.9157L64.9074 29.9172C64.9115 29.9178 64.9157 29.9182 64.9199 29.9184C64.9223 29.9184 64.9248 29.9184 64.9273 29.9183C64.9768 29.9167 65.0232 29.9167 65.0728 29.9183C65.0857 29.919 65.0975 29.9165 65.1093 29.9141C65.1223 29.9113 65.1353 29.9086 65.1496 29.9103C65.1819 29.913 65.2108 29.9242 65.2398 29.9356L65.2399 29.9356C65.2624 29.9444 65.285 29.9532 65.3095 29.9581C65.3319 29.9624 65.3544 29.9661 65.3768 29.9698L65.3769 29.9699C65.4373 29.9799 65.497 29.9898 65.5541 30.0107C65.5826 30.0205 65.6087 30.034 65.6352 30.0477L65.6536 30.0572L65.6725 30.0665C65.7346 30.0946 65.7893 30.1303 65.8453 30.1667L65.8676 30.1813L65.8799 30.1891L65.88 30.1892L65.8801 30.1893C65.9523 30.2357 66.0216 30.2803 66.0851 30.3391C66.0918 30.345 66.0992 30.3489 66.1067 30.3528C66.1152 30.3572 66.1238 30.3617 66.1315 30.3693C66.1405 30.3792 66.1466 30.3903 66.1525 30.4011C66.1581 30.4113 66.1637 30.4214 66.1714 30.4299C66.2125 30.4749 66.2459 30.5242 66.2799 30.5742L66.301 30.6053L66.3056 30.612C66.3552 30.6829 66.4029 30.7512 66.4401 30.8316C66.4609 30.8746 66.4801 30.9145 66.4961 30.9591C66.5135 31.0078 66.522 31.058 66.5307 31.1092L66.5372 31.1468L66.5416 31.1705L66.544 31.1823C66.5494 31.2061 66.558 31.2284 66.5666 31.2505C66.5788 31.2817 66.5908 31.3127 66.5936 31.348C66.5944 31.3599 66.5921 31.3713 66.5897 31.3829C66.5873 31.3948 66.5848 31.4069 66.5856 31.4198C66.5888 31.4708 66.5888 31.5202 66.5856 31.5712C66.5848 31.583 66.5872 31.5944 66.5895 31.606C66.592 31.6179 66.5944 31.63 66.5936 31.6429C66.2642 35.1497 67.3053 38.2993 69.5249 40.5118C71.6279 42.6062 74.5816 43.6359 77.8759 43.4574L79.7006 41.6371C80.3259 41.0139 81.3382 41.0139 81.9635 41.6371C82.5872 42.2588 82.5872 43.2677 81.9635 43.891L80.1372 45.7113C79.9613 48.998 80.9912 51.9389 83.0925 54.035C85.1954 56.1295 88.1507 57.1639 91.4451 56.9806L93.2698 55.1619ZM12.3794 82.8906C14.5191 82.8906 16.5261 82.0617 18.0341 80.5602L23.6857 74.9239L21.4228 72.6701L15.7681 78.3063C13.8986 80.1697 10.8553 80.1713 8.98427 78.3063C7.7353 77.0598 7.27473 75.2363 7.78487 73.5451C7.91761 73.1052 7.7401 72.5585 7.3355 72.1536C6.96289 71.7822 6.5519 71.6882 6.23206 71.6882C6.04815 71.6882 5.89463 71.7185 5.79708 71.7455C5.22297 71.9002 4.79118 72.3417 4.64086 72.9219C3.93562 75.6492 4.73361 78.5757 6.72461 80.5602C8.23265 82.0617 10.2412 82.8906 12.3794 82.8906ZM67.2621 42.7656C69.2675 44.7645 71.8342 46.0221 74.7031 46.478C62.4293 57.4716 48.4012 62.1738 40.5124 58.1538L63.5232 35.2198C63.9646 38.1304 65.2263 40.7365 67.2621 42.7656ZM61.2587 32.9691C58.3386 32.5292 55.7271 31.2667 53.6929 29.2392C51.6843 27.2388 50.4306 24.6773 49.9732 21.8145C38.9372 34.0498 34.2195 48.0353 38.2511 55.8999L61.2587 32.9691ZM36.4248 8.41563C36.8998 11.2258 38.1456 13.7427 40.1222 15.7144C42.1851 17.7706 44.8414 19.0394 47.8111 19.4602C38.2111 29.9948 33.1497 41.6801 33.6854 50.6717C30.1464 44.9542 28.2178 38.3774 28.2178 31.4915C28.2194 22.9861 31.1123 14.927 36.4248 8.41563ZM45.8023 62.7303L45.7977 62.7301C51.5244 66.24 58.1083 68.1527 65.0008 68.1543C73.5293 68.1543 81.6116 65.2724 88.1412 59.9837C85.3234 59.5103 82.8063 58.2574 80.8312 56.2888C78.7683 54.2326 77.4985 51.585 77.0747 48.6266C67.0094 57.7362 55.8838 62.7779 47.0547 62.7779C46.6293 62.7779 46.2166 62.7542 45.8023 62.7303ZM6.39678 31.4756H1.59919C0.716439 31.4756 0 32.1881 0 33.0695C0 33.951 0.716439 34.6635 1.59919 34.6635H6.39678C11.8516 34.6635 16.1247 30.5367 16.1247 25.2671V23.5408C16.1247 19.4523 13.1822 16.0332 9.28172 15.5885C8.21346 15.4626 7.1484 15.5566 6.11052 15.8627C1.87106 17.1044 -0.564515 21.5531 0.682856 25.7787C0.93233 26.6235 1.82148 27.1145 2.66905 26.8578C3.51663 26.6108 4.00118 25.7245 3.75171 24.8797C3.00329 22.3405 4.46495 19.6659 7.01247 18.9199C7.63615 18.7366 8.27423 18.6824 8.9171 18.7541C11.1656 19.0107 12.9263 21.1132 12.9263 23.5408V25.2671C12.9263 28.8073 10.1197 31.4756 6.39678 31.4756ZM14.3927 47.4153H1.59919C0.716439 47.4153 0 46.7027 0 45.8213C0 44.9398 0.716439 44.2273 1.59919 44.2273H14.3927C15.2755 44.2273 15.9919 44.9398 15.9919 45.8213C15.9919 46.7027 15.2755 47.4153 14.3927 47.4153ZM1.59919 41.0744H6.36159C13.9258 41.0744 22.3887 34.9249 22.3887 26.6936C22.3887 25.8122 21.6723 25.0997 20.7895 25.0997C19.9068 25.0997 19.1903 25.8122 19.1903 26.6936C19.1903 32.9978 12.293 37.8865 6.36159 37.8865H1.59919C0.716439 37.8865 0 38.599 0 39.4805C0 40.3619 0.716439 41.0744 1.59919 41.0744ZM7.96079 52.1971C7.96079 53.0786 7.24435 53.7911 6.36159 53.7911H1.59919C0.716439 53.7911 0 53.0786 0 52.1971C0 51.3157 0.716439 50.6032 1.59919 50.6032H6.36159C7.24435 50.6032 7.96079 51.3157 7.96079 52.1971Z" fill="white"/>
</mask>
<g mask="url(#mask0)">
<rect x="-6.4272" y="-14.9011" width="114.4" height="116" fill="#00C5CA"/>
</g>
</svg>
