<svg width="96" height="96" viewBox="0 0 96 96" fill="none" xmlns="http://www.w3.org/2000/svg">
<g clip-path="url(#clip0)">
<path d="M57.8068 85.9871C47.701 85.9871 38.1733 82.0232 30.9784 74.8284C30.3384 74.1161 30.132 73.0838 30.4829 72.2374L30.5139 72.1651L30.5346 72.0929C30.5655 71.969 30.6997 71.7213 30.9888 71.4322L36.7694 65.6516C37.2236 65.1974 37.8223 64.9496 38.4623 64.9496C39.1023 64.9496 39.701 65.1974 40.1552 65.6516C41.0946 66.5909 41.0946 68.1084 40.1552 69.0477L36.1294 73.0735L37.0378 73.7961C42.1784 77.8426 48.1759 80.3096 54.4004 80.929L55.5359 81.0426V75.3651C55.5359 74.0748 56.6197 72.9909 57.91 72.9909C59.2004 72.9909 60.2842 74.0748 60.2842 75.3651V81.0632L61.43 80.929C67.861 80.1961 73.8688 77.6464 78.7926 73.5793L79.67 72.8567L75.6649 68.8516C74.7255 67.9122 74.7255 66.3948 75.6649 65.4555C76.1191 65.0013 76.7178 64.7535 77.3578 64.7535C77.9978 64.7535 78.5965 65.0013 79.0507 65.4555L83.0559 69.4606L83.7784 68.5832C87.7836 63.7109 90.292 57.7445 91.0249 51.3238L91.1591 50.178H85.4713C84.181 50.178 83.0971 49.0942 83.0971 47.8038C83.0971 46.5135 84.181 45.4296 85.4713 45.4296H91.1694L91.0455 44.2838C90.3126 37.8013 87.8042 31.7935 83.7991 26.9213L83.0765 26.0438L79.0713 30.049C78.5759 30.5445 78.0184 30.7819 77.3268 30.7819C76.6352 30.7819 76.0778 30.5548 75.5823 30.049C74.643 29.1097 74.643 27.5922 75.5823 26.6529L79.732 22.7716L78.8029 22.0284C73.8068 18.0026 67.8094 15.5045 61.43 14.7716L60.2842 14.6374V20.3355C60.2842 21.6258 59.2004 22.7097 57.91 22.7097C56.6197 22.7097 55.5359 21.6258 55.5359 20.3355V14.658L54.4004 14.7613C48.021 15.4013 42.0133 17.8684 37.0275 21.9045L36.1397 22.6271L40.1552 26.6426C41.0946 27.5819 41.0946 29.0993 40.1552 30.0387C39.6597 30.5342 39.1023 30.7716 38.4107 30.7716C37.7191 30.7716 37.1617 30.5445 36.6662 30.0387L30.8855 24.258C30.4313 23.8038 30.1836 23.2051 30.1836 22.5651C30.1836 21.9251 30.4313 21.3264 30.8855 20.8722C38.132 13.5948 47.701 9.59998 57.8068 9.59998C78.8649 9.59998 96.0004 26.7355 96.0004 47.7935C96.0004 68.8516 78.8649 85.9871 57.8068 85.9871Z" fill="#0073E6"/>
<path d="M57.8068 50.1678C56.5165 50.1678 55.4326 49.0839 55.4326 47.7936V31.6904C55.4326 30.4 56.5165 29.3162 57.8068 29.3162C59.1694 29.3162 60.2842 30.3794 60.2842 31.6904V45.4194H71.5358C72.8262 45.4194 73.91 46.5033 73.91 47.7936C73.91 49.0839 72.8262 50.1678 71.5358 50.1678H57.8068Z" fill="#0073E6"/>
<path d="M2.37419 50.1677C1.08387 50.1677 0 49.0838 0 47.7935C0 46.5032 1.08387 45.4193 2.37419 45.4193H25.2903C26.5806 45.4193 27.6645 46.5032 27.6645 47.7935C27.6645 49.0838 26.5806 50.1677 25.2903 50.1677H2.37419Z" fill="#0073E6"/>
<path d="M10.2189 36.9548C8.9286 36.9548 7.84473 35.8709 7.84473 34.5806C7.84473 33.2903 8.9286 32.2064 10.2189 32.2064H25.2899C26.5802 32.2064 27.6641 33.2903 27.6641 34.5806C27.6641 35.8709 26.5802 36.9548 25.2899 36.9548H10.2189Z" fill="#0073E6"/>
<path d="M10.2189 63.2773C8.9286 63.2773 7.84473 62.1934 7.84473 60.9031C7.84473 59.6128 8.9286 58.5289 10.2189 58.5289H25.2899C26.5802 58.5289 27.6641 59.6128 27.6641 60.9031C27.6641 62.1934 26.5802 63.2773 25.2899 63.2773H10.2189Z" fill="#0073E6"/>
</g>
<defs>
<clipPath id="clip0">
<rect width="96" height="76.3871" fill="white" transform="translate(0 9.59998)"/>
</clipPath>
</defs>
</svg>
