<svg width="64" height="65" viewBox="0 0 64 65" fill="none" xmlns="http://www.w3.org/2000/svg">
<path d="M48.4128 16.2149C48.7879 15.4617 49 14.6137 49 13.7166C49 10.6149 46.4766 8.09155 43.375 8.09155C40.2734 8.09155 37.75 10.6149 37.75 13.7166C37.75 14.6137 37.9621 15.4617 38.3372 16.2149C29.3917 18.4689 22.75 26.5812 22.75 36.2166C22.75 47.5892 32.0024 56.8416 43.375 56.8416C54.7476 56.8416 64 47.5892 64 36.2166C64 26.5812 57.3582 18.4689 48.4128 16.2149ZM41.5 13.7166C41.5 12.6827 42.3411 11.8416 43.375 11.8416C44.4089 11.8416 45.25 12.6827 45.25 13.7166C45.25 14.7504 44.4089 15.5916 43.375 15.5916C42.3411 15.5916 41.5 14.7504 41.5 13.7166ZM45.25 52.9868V51.2166C45.25 50.1811 44.4105 49.3416 43.375 49.3416C42.3395 49.3416 41.5 50.1811 41.5 51.2166V52.9868C33.6901 52.1194 27.4721 45.9014 26.6047 38.0916H28.375C29.4105 38.0916 30.25 37.2521 30.25 36.2166C30.25 35.1811 29.4105 34.3416 28.375 34.3416H26.6047C27.4721 26.5317 33.6901 20.3137 41.5 19.4463V21.2166C41.5 22.2521 42.3395 23.0916 43.375 23.0916C44.4105 23.0916 45.25 22.2521 45.25 21.2166V19.4463C53.0599 20.3137 59.2779 26.5318 60.1452 34.3416H58.375C57.3395 34.3416 56.5 35.1811 56.5 36.2166C56.5 37.2521 57.3395 38.0916 58.375 38.0916H60.1452C59.2779 45.9014 53.0599 52.1194 45.25 52.9868Z" fill="#0073E6"/>
<path d="M17.125 15.5916H13.125C12.0895 15.5916 11.25 16.4311 11.25 17.4666C11.25 18.5021 12.0895 19.3416 13.125 19.3416H17.125C18.1605 19.3416 19 18.5021 19 17.4666C19 16.4311 18.1605 15.5916 17.125 15.5916Z" fill="#0073E6"/>
<path d="M17.125 26.8416H9.375C8.3395 26.8416 7.5 27.6811 7.5 28.7166C7.5 29.7521 8.3395 30.5916 9.375 30.5916H17.125C18.1605 30.5916 19 29.7521 19 28.7166C19 27.6811 18.1605 26.8416 17.125 26.8416Z" fill="#0073E6"/>
<path d="M17.125 38.0916H5.625C4.5895 38.0916 3.75 38.9311 3.75 39.9666C3.75 41.0021 4.5895 41.8416 5.625 41.8416H17.125C18.1605 41.8416 19 41.0021 19 39.9666C19 38.9311 18.1605 38.0916 17.125 38.0916Z" fill="#0073E6"/>
<path d="M17.125 49.3416H1.875C0.8395 49.3416 0 50.1811 0 51.2166C0 52.2521 0.8395 53.0916 1.875 53.0916H17.125C18.1605 53.0916 19 52.2521 19 51.2166C19 50.1811 18.1605 49.3416 17.125 49.3416Z" fill="#0073E6"/>
<path d="M50.875 34.3416H45.25V28.7166C45.25 27.6811 44.4105 26.8416 43.375 26.8416C42.3395 26.8416 41.5 27.6811 41.5 28.7166V36.2166C41.5 37.2521 42.3395 38.0916 43.375 38.0916H50.875C51.9105 38.0916 52.75 37.2521 52.75 36.2166C52.75 35.1811 51.9105 34.3416 50.875 34.3416Z" fill="#0073E6"/>
</svg>
