<svg width="64" height="64" viewBox="0 0 64 64" fill="none" xmlns="http://www.w3.org/2000/svg">
<g clip-path="url(#clip0)">
<path d="M59.4801 60.2168V26.1333H44.7128V60.2168H39.3837V33.5083H24.6164V60.2168H19.2873V40.8833H4.51996V60.2168H0.533325V63.9043H63.4668V60.2168H59.4801ZM8.20747 60.2168V44.5708H15.6002V60.2168H8.20747ZM28.3039 60.2168V37.1958H35.6962V60.2168H28.3039ZM48.4003 60.2168V29.8208H55.7926V60.2168H48.4003Z" fill="#0073E6"/>
<path d="M9.53746 30.9878L51.2231 12.5949L49.5627 17.1476L53.027 18.4114L56.8461 7.93848L46.4279 4.13959L45.1646 7.60382L49.6732 9.24831L8.04901 27.6143L9.53746 30.9878Z" fill="#0073E6"/>
</g>
<defs>
<clipPath id="clip0">
<rect width="62.9334" height="62.9333" fill="white" transform="translate(0.533325 1.06667)"/>
</clipPath>
</defs>
</svg>
