<svg width="96" height="96" viewBox="0 0 96 96" fill="none" xmlns="http://www.w3.org/2000/svg">
<path d="M18.7826 62.6083H2.08696C0.934956 62.6083 0 63.5412 0 64.6953V93.9126C0 95.0667 0.934956 95.9996 2.08696 95.9996H18.7826C19.9346 95.9996 20.8696 95.0667 20.8696 93.9126V64.6953C20.8696 63.5412 19.9346 62.6083 18.7826 62.6083ZM16.6956 91.8257H4.17391V66.7822H16.6956V91.8257Z" fill="#0073E6"/>
<path d="M43.8261 54.2607H27.1304C25.9784 54.2607 25.0435 55.1935 25.0435 56.3476V93.9128C25.0435 95.0668 25.9784 95.9997 27.1304 95.9997H43.8261C44.9781 95.9997 45.913 95.0668 45.913 93.9128V56.3476C45.913 55.1935 44.9781 54.2607 43.8261 54.2607ZM41.7391 91.8258H29.2174V58.4346H41.7391V91.8258Z" fill="#0073E6"/>
<path d="M68.8696 41.7392H52.1739C51.0198 41.7392 50.087 42.6741 50.087 43.8261V93.913C50.087 95.0671 51.0198 95.9999 52.1739 95.9999H68.8696C70.0237 95.9999 70.9565 95.0671 70.9565 93.913V43.8261C70.9565 42.6741 70.0237 41.7392 68.8696 41.7392ZM66.7826 91.826H54.2609V45.9131H66.7826V91.826Z" fill="#0073E6"/>
<path d="M93.913 25.0434H77.2174C76.0633 25.0434 75.1304 25.9784 75.1304 27.1304V93.9128C75.1304 95.0669 76.0633 95.9998 77.2174 95.9998H93.913C95.0671 95.9998 96 95.0669 96 93.9128V27.1304C96 25.9784 95.0671 25.0434 93.913 25.0434ZM91.8261 91.8259H79.3043V29.2173H91.8261V91.8259Z" fill="#0073E6"/>
<path d="M80.8257 16.6956C81.9798 16.6956 82.9127 15.7607 82.9127 14.6087V2.08695C82.9127 2.04313 82.8897 2.00973 82.8876 1.968C82.8793 1.82191 82.8417 1.68626 82.8021 1.54643C82.7666 1.41913 82.7415 1.296 82.6852 1.18122C82.6309 1.06852 82.5516 0.97252 82.4744 0.872347C82.3868 0.751303 82.3012 0.636521 82.1906 0.538435C82.1572 0.509217 82.1447 0.471651 82.1113 0.446607C82.0424 0.392347 81.9568 0.375652 81.8838 0.331826C81.7565 0.256696 81.6375 0.185739 81.4956 0.137739C81.3579 0.0918259 81.2222 0.0709564 81.0803 0.0542608C80.9948 0.0417391 80.9155 0 80.8257 0H68.8696C67.7155 0 66.7826 0.934955 66.7826 2.08695C66.7826 3.23895 67.7155 4.1739 68.8696 4.1739H76.3638C63.4935 18.8181 35.0129 41.739 2.08696 41.739C0.934956 41.739 0 42.674 0 43.826C0 44.978 0.934956 45.913 2.08696 45.913C35.8226 45.913 64.9941 23.0233 78.7388 7.78642V14.6087C78.7388 15.7607 79.6716 16.6956 80.8257 16.6956Z" fill="#0073E6"/>
</svg>
