<svg width="72" height="48" viewBox="0 0 72 48" fill="none" xmlns="http://www.w3.org/2000/svg">
<path d="M50.7405 14.3916L50.7197 20.4491H46.3184V0H50.7613H51.2595H54.4568C57.0727 0 58.4014 0.710184 58.4222 2.13055V12.1149C58.4222 13.5352 57.1557 14.2245 54.6021 14.2245H50.7613V14.3916H50.7405ZM54 2.36031H50.699V11.8433H54V2.36031Z" fill="white"/>
<path d="M3.71626 20.47L3.6955 26.5274H0V6.07834H3.71626H4.13149H6.80969C9.01038 6.07834 10.1107 6.78852 10.1315 8.20888V18.1932C10.1315 19.6136 9.07266 20.3029 6.93426 20.3029H3.71626V20.47ZM6.45675 8.45954H3.6955V17.9426H6.45675V8.45954Z" fill="white"/>
<path d="M21.5087 20.3029H14.4914C12.436 20.3029 11.3979 19.5927 11.3979 18.1723L11.4187 14.0157C11.4187 12.6162 12.4775 11.906 14.6159 11.8851H17.8339V8.45954H15.0727L15.0519 10.3394H11.4395V8.20888C11.4395 6.80941 12.5191 6.12012 14.6782 6.12012L18.2907 6.07834C20.4291 6.07834 21.5087 6.78852 21.5087 8.188V20.3029ZM15.0934 17.9217H17.8755L17.8547 14.2663H15.0934V17.9217Z" fill="white"/>
<path d="M29.5848 20.3029H26.346C24.2076 20.3029 23.1488 19.5927 23.1488 18.1932V8.20888C23.1696 6.78852 24.2699 6.07834 26.4706 6.07834H29.1488H29.6055H33.2803V24.4178C33.2803 25.8381 32.2007 26.5483 30.0623 26.5483H26.3876C24.2491 26.5483 23.1696 25.8381 23.1696 24.4178V22.3081H26.8443V24.188H29.6055V20.47L29.5848 20.3029ZM26.8235 17.9217H29.5848V8.45954H26.8235V17.9217Z" fill="white"/>
<path d="M44.6574 18.1723C44.6367 19.5927 43.5363 20.282 41.3356 20.282H37.7647C35.6055 20.282 34.5259 19.5718 34.5259 18.1723V8.188C34.5259 6.76763 35.6055 6.07834 37.7647 6.07834H41.4394C43.5778 6.07834 44.6367 6.78852 44.6367 8.188V18.1723H44.6574ZM41.0034 8.45954H38.2214V17.9426H40.9827L41.0034 8.45954Z" fill="white"/>
<path d="M71.9792 2.23498C71.9792 0.814616 70.7128 0.12532 68.1592 0.12532H63.7578C61.1834 0.12532 59.8962 0.835504 59.8962 2.23498V20.4909H64.2976V14.2454H67.6194V19.4674C67.6194 32.8355 56.8858 43.6345 43.5986 43.6345C35.8962 43.6345 29.0242 39.9791 24.6228 34.3185L26.8235 32.6266L17.9792 26.6318L18.3737 39.2689L21.1972 37.013C26.3876 43.6971 34.5052 48 43.5986 48C59.2941 48 72 35.1958 72 19.4256L71.9792 2.23498ZM67.5986 11.8642H64.2768V2.46475H67.5986V11.8642Z" fill="white"/>
</svg>
