<svg width="22" height="20" viewBox="0 0 22 20" fill="none" xmlns="http://www.w3.org/2000/svg">
<path d="M4 9H0V20H4V9Z" fill="white"/>
<path d="M15 1.25C15.65 0.49 16.66 0 17.7 0C19.55 0 21 1.45 21 3.3C21 5.57 18.09 8.2 15 11C11.91 8.19 9 5.56 9 3.3C9 1.45 10.45 0 12.3 0C13.34 0 14.35 0.49 15 1.25Z" fill="white"/>
<path d="M19 15H12L9.91 14.27L10.24 13.33L12 14H14.82C15.47 14 16 13.47 16 12.82C16 12.33 15.69 11.89 15.23 11.71L7.97 9H6V18.02L13 20L21.01 17C21 15.9 20.11 15 19 15Z" fill="white"/>
</svg>
