<?xml version="1.0" standalone="no"?>
<!DOCTYPE svg PUBLIC "-//W3C//DTD SVG 20010904//EN"
 "http://www.w3.org/TR/2001/REC-SVG-20010904/DTD/svg10.dtd">
<svg version="1.0" xmlns="http://www.w3.org/2000/svg"
 width="700.000000pt" height="700.000000pt" viewBox="0 0 700.000000 700.000000"
 preserveAspectRatio="xMidYMid meet">
<metadata>
Created by potrace 1.11, written by Peter Selinger 2001-2013
</metadata>
<g transform="translate(0.000000,700.000000) scale(0.100000,-0.100000)"
fill="#000000" stroke="none">
<path d="M3230 5175 c0 -217 -2 -395 -5 -395 -3 0 -35 25 -72 56 -202 171
-459 294 -743 355 -142 31 -475 34 -615 6 -400 -80 -736 -276 -985 -574 -386
-462 -504 -1091 -314 -1663 144 -432 452 -785 863 -990 323 -161 710 -210
1070 -135 261 54 539 189 733 356 31 27 60 49 63 49 14 0 -3 -571 -18 -645
-41 -195 -141 -391 -270 -532 l-39 -43 110 -117 c61 -65 147 -154 191 -198
l81 -79 31 29 c149 141 306 405 382 640 64 200 70 245 76 619 l6 339 65 -55
c201 -171 463 -298 740 -359 137 -30 416 -37 566 -15 368 54 686 216 954 486
133 133 222 258 310 435 111 223 165 420 178 650 19 336 -34 601 -178 890 -91
181 -178 303 -320 445 -322 322 -727 490 -1181 490 -395 -1 -756 -130 -1059
-378 l-75 -62 -3 395 -2 395 -270 0 -270 0 0 -395z m-955 -527 c215 -32 425
-139 593 -302 137 -132 223 -263 283 -427 153 -419 63 -875 -236 -1197 -148
-159 -337 -274 -540 -329 -91 -25 -116 -27 -285 -27 -172 -1 -192 1 -285 27
-311 87 -584 309 -727 592 -95 186 -140 428 -119 635 42 407 277 749 637 929
210 104 432 136 679 99z m2858 -4 c494 -103 852 -507 908 -1022 38 -354 -120
-749 -393 -981 -216 -184 -452 -273 -728 -274 -139 -1 -213 9 -335 45 -365
106 -676 430 -770 804 -175 687 274 1358 965 1443 92 12 261 4 353 -15z"/>
</g>
</svg>
