<svg xmlns="http://www.w3.org/2000/svg" width="32" height="25" viewBox="0 0 32 25">
  <g fill="#FFF">
    <path d="M28.0528926,0.0495867769 L3.90743802,0.0495867769 C1.75206612,0.0495867769 0,1.80165289 0,3.95702479 L0,20.4595041 C0,22.614876 1.75206612,24.3669421 3.90743802,24.3669421 L28.046281,24.3669421 C30.2016529,24.3669421 31.9537377,22.614876 31.9537377,20.4595041 L31.9537377,3.96363636 C31.9603306,1.80826446 30.2082645,0.0495867769 28.0528926,0.0495867769 Z M30.1752066,20.4595041 C30.1752066,21.6297521 29.2231405,22.5818182 28.0528926,22.5818182 L3.90743802,22.5818182 C2.73719008,22.5818182 1.78512397,21.6297521 1.78512397,20.4595041 L1.78512397,3.96363636 C1.78512397,2.79338843 2.73719008,1.84132231 3.90743802,1.84132231 L28.046281,1.84132231 C29.2165289,1.84132231 30.168595,2.79338843 30.168595,3.96363636 L30.168595,20.4595041 L30.1752066,20.4595041 Z"/>
    <path d="M20.1520661,12.0033058 L27.9669421,4.99504132 C28.3305785,4.66446281 28.3636364,4.10247934 28.0330579,3.7322314 C27.7024793,3.36859504 27.1404959,3.33553719 26.7702479,3.6661157 L15.9933884,13.338843 L13.8909091,11.461157 C13.8842975,11.4545455 13.877686,11.4479339 13.877686,11.4413223 C13.831405,11.3950413 13.785124,11.3553719 13.7322314,11.3157025 L5.1768595,3.65950413 C4.80661157,3.32892562 4.2446281,3.36198347 3.91404959,3.7322314 C3.58347107,4.10247934 3.61652893,4.66446281 3.98677686,4.99504132 L11.8942149,12.0628099 L4.01983471,19.4347107 C3.66280992,19.7719008 3.64297521,20.3338843 3.98016529,20.6975207 C4.15867769,20.8826446 4.39669421,20.9818182 4.63471074,20.9818182 C4.85289256,20.9818182 5.07107438,20.9024793 5.24297521,20.7438017 L13.2363636,13.2661157 L15.4049587,15.2033058 C15.5768595,15.3553719 15.7884298,15.4280992 16,15.4280992 C16.2115702,15.4280992 16.4297521,15.3487603 16.5950413,15.1966942 L18.8231405,13.2 L26.7702479,20.7504132 C26.9421488,20.9157025 27.1669421,20.9950413 27.385124,20.9950413 C27.6231405,20.9950413 27.8545455,20.9024793 28.0330579,20.7173554 C28.3702479,20.3603306 28.3570248,19.7917355 28,19.4545455 L20.1520661,12.0033058 Z"/>
  </g>
</svg>
