<svg xmlns="http://www.w3.org/2000/svg" width="24" height="24" viewBox="0 0 24 24">
  <path fill="#FFF" d="M22.5623438,19.3238438 C23.5048594,18.0405938 24.0000781,16.5494063 24.0000781,14.9777344 C24.0000781,12.4618594 22.6952813,10.1260781 20.494125,8.66845313 C20.2911094,6.4269375 19.2444844,4.34817187 17.4945469,2.7465 C15.5595,0.975421875 12.9922031,0 10.265625,0 C7.53904688,0 4.97179688,0.975421875 3.03670313,2.74654688 C1.07845313,4.5388125 -3.12552005e-05,6.92840625 -3.12552005e-05,9.475125 C-3.12552005e-05,11.4339375 0.631453125,13.2910313 1.83182813,14.88 L0.06834375,19.242375 C-0.074671875,19.5961406 0.01096875,20.0012813 0.284953125,20.2668281 C0.463546875,20.4399375 0.698765625,20.5312969 0.937734375,20.5312969 C1.065375,20.53125 1.19409375,20.5051875 1.3156875,20.4516094 L6.34542188,18.2344219 C6.976875,18.4757813 7.62740625,18.6563438 8.2929375,18.775875 C8.97464063,19.8970313 9.94701563,20.8464844 11.1291094,21.5376094 C12.4488281,22.309125 13.9725938,22.7213906 15.5399531,22.73325 C15.5629688,22.7349375 15.5859375,22.7367656 15.6094219,22.7367656 C16.6930313,22.7367656 17.7429375,22.5495938 18.736125,22.1798906 L22.6843594,23.9203594 C22.8059531,23.9739844 22.9346719,24.0000469 23.0623125,24.0000469 C23.3012344,24.0000469 23.5365469,23.9087344 23.7150938,23.7355781 C23.9890781,23.4699844 24.0747188,23.0648438 23.9317031,22.711125 L22.5623438,19.3238438 Z M20.6197969,19.5214219 L21.3280312,21.273375 L19.1325469,20.3055937 C18.8952188,20.2009687 18.625125,20.1993281 18.3864844,20.3011406 C17.526,20.6682656 16.6045781,20.8564219 15.6473438,20.8612969 C15.6346875,20.8607813 15.6222188,20.859375 15.609375,20.859375 C13.7618438,20.859375 12.0164063,20.1374063 10.797,18.9364219 C12.3430781,18.8623594 13.8585469,18.4675313 15.2096719,17.781375 C15.6713438,17.5469062 15.8554688,16.982625 15.621,16.5209531 C15.3865781,16.0593281 14.82225,15.87525 14.3605781,16.109625 C13.1167969,16.7413594 11.70075,17.07525 10.265625,17.07525 C9.0185625,17.07525 7.81795313,16.8328125 6.6973125,16.3546406 C6.45876563,16.2528281 6.18857813,16.254375 5.95125,16.3590938 L2.67196875,17.8046719 L3.7760625,15.0734531 C3.90698438,14.7495938 3.84703125,14.37975 3.62039063,14.1139219 C2.4785625,12.7743281 1.875,11.1702656 1.875,9.475125 C1.875,5.28435938 5.63901563,1.875 10.265625,1.875 C14.8922344,1.875 18.65625,5.28435938 18.65625,9.475125 C18.65625,10.8286875 18.2583281,12.1575 17.505375,13.3178906 C17.2235625,13.7522344 17.3472187,14.3327813 17.7816094,14.6145938 C18.2158594,14.8965 18.7964531,14.77275 19.0783594,14.3384063 C19.7465156,13.3086094 20.1929062,12.1716094 20.3993437,10.9907344 C21.4975781,12.0662344 22.125,13.4828438 22.125,14.9777344 C22.125,16.2867656 21.6583594,17.5261406 20.7754687,18.5618438 C20.5488281,18.8277188 20.488875,19.1975625 20.6197969,19.5214219 Z M11.15625,14.296875 C11.15625,14.8146562 10.7365312,15.234375 10.21875,15.234375 L10.21875,15.234375 C9.70096875,15.234375 9.28125,14.8146562 9.28125,14.296875 C9.28125,13.7790938 9.70096875,13.359375 10.21875,13.359375 L10.21875,13.359375 C10.7365312,13.359375 11.15625,13.7790938 11.15625,14.296875 Z M13.7804531,7.27275 C13.7810156,7.28578125 13.781297,7.2988125 13.781297,7.31198437 C13.781625,8.72325 12.9430781,9.99328125 11.6450625,10.5473906 C11.3764687,10.6620937 11.2028437,10.9326094 11.2028437,11.2365 L11.2028437,11.296875 C11.2028437,11.8146563 10.783125,12.234375 10.2653437,12.234375 C9.7475625,12.234375 9.32784375,11.8146563 9.32784375,11.296875 L9.32784375,11.2365469 C9.32784375,10.1804063 9.94842187,9.2330625 10.9088906,8.82304687 C11.5066875,8.5678125 11.89575,7.98745313 11.9060625,7.3393125 C11.9058281,7.3303125 11.9056875,7.32126563 11.9056875,7.31221875 C11.9056875,6.40776562 11.1698437,5.67192188 10.2653437,5.67192188 C9.36089062,5.671875 8.625,6.40771875 8.625,7.31217187 C8.625,7.82995312 8.20528125,8.24967188 7.6875,8.24967188 C7.16971875,8.24967188 6.75,7.82995312 6.75,7.31217187 C6.75,5.37384375 8.32696875,3.796875 10.2653437,3.796875 C12.1905469,3.796875 13.7593125,5.35251562 13.7804531,7.27275 Z"/>
</svg>
