<svg xmlns="http://www.w3.org/2000/svg" width="254" height="71" viewBox="0 0 254 71">
  <g fill="#00B2C2">
    <path d="M254 5L254 54 246.000096 54 246.000176 47.6109197C241.646287 51.579888 235.855911 54 229.500295 54 220.924071 54 213.377073 49.5933116 209 42.9206617 211.529772 39.0657897 213.000494 34.4546496 213.000494 29.5 213.000494 24.5453504 211.529772 19.9342103 209.001084 16.0793383 213.377073 9.4066884 220.924071 5 229.500295 5 235.855911 5 241.646287 7.4201122 246.000176 11.3890803L246.000096 5 254 5zM229.500295 13C220.387706 13 213.000494 20.3873016 213.000494 29.5 213.000494 38.6126984 220.387706 46 229.500295 46 238.612884 46 246.000096 38.6126984 246.000096 29.5 246.000096 20.3873016 238.612884 13 229.500295 13zM7.9999037 5L7.999824 11.3890803C12.353713 7.4201122 18.1440887 5 24.499705 5 33.0759286 5 40.6229272 9.4066884 45 16.0793383 42.4702276 19.9342103 40.9995064 24.5453504 40.9995064 29.5 40.9995064 34.4546496 42.4702276 39.0657897 44.9989165 42.9206617 40.6229272 49.5933116 33.0759286 54 24.499705 54 18.1440887 54 12.353713 51.579888 7.999824 47.6109197L7.9999037 68 0 68 0 5 7.9999037 5zM24.499705 13C15.3871164 13 7.9999037 20.3873016 7.9999037 29.5 7.9999037 38.6126984 15.3871164 46 24.499705 46 33.6122937 46 40.9995064 38.6126984 40.9995064 29.5 40.9995064 20.3873016 33.6122937 13 24.499705 13z" opacity=".3"/>
    <path d="M89.999087 5L89.999087 11.4121549C85.083712 15.9020258 81.999236 22.3699842 81.999236 29.5598353 81.999236 36.7496864 85.083712 43.2176448 89.999087 47.7075157L89.999087 54 81.999236 54 81.999315 47.6109197C77.645455 51.579888 71.855118 54 65.499543 54 51.968819 54 41 43.0309764 41 29.5 41 15.9690236 51.968819 5 65.499543 5 71.855118 5 77.645455 7.4201122 81.999315 11.3890803L81.999236 5 89.999087 5zM65.499543 13C56.387015 13 48.9998509 20.3873016 48.9998509 29.5 48.9998509 38.6126984 56.387015 46 65.499543 46 74.612072 46 81.999236 38.6126984 81.999236 29.5 81.999236 20.3873016 74.612072 13 65.499543 13zM172 5L172.000913 11.388175C176.354742 7.4197442 182.14479 5 188.5 5 202.030976 5 213 15.9690236 213 29.5 213 43.0309764 202.030976 54 188.5 54 182.14479 54 176.354742 51.580256 172.000913 47.611825L172 68 164 68 164 47.6109457C168.915466 43.1301632 172 36.6752973 172 29.5 172 22.3247027 168.915466 15.8698368 164 11.3890543L164 5 172 5zM188.5 13C179.387302 13 172 20.3873016 172 29.5 172 38.6126984 179.387302 46 188.5 46 197.612698 46 205 38.6126984 205 29.5 205 20.3873016 197.612698 13 188.5 13z" opacity=".6"/>
    <path d="M131,0 L131,11.388 L131.336774,11.0876655 C135.650408,7.2979269 141.306865,5 147.500031,5 C161.03099,5 172,15.9690236 172,29.5 C172,43.0309764 161.03099,54 147.500031,54 C141.14437,54 135.353953,51.579907 131.000022,47.610966 L131,54.109529 C131,60.349352 128.504107,66.214229 124.124135,70.676045 L123.800296,71 L118.199704,65.275851 C121.175714,62.352255 122.887299,58.557791 122.994627,54.514649 L123,54.109529 L123.00008,47.7074897 C118.646138,51.684508 112.855693,54.109529 106.5,54.109529 C92.969024,54.109529 82,43.1182568 82,29.5598353 C82,16.0014138 92.969024,5.0101416 106.5,5.0101416 C112.855693,5.0101416 118.646138,7.4351626 123.00008,11.4121809 L123,0 L131,0 Z M106.5,13.0263681 C97.387302,13.0263681 90,20.4286535 90,29.5598353 C90,38.6910171 97.387302,46.0933025 106.5,46.0933025 C115.612698,46.0933025 123,38.6910171 123,29.5598353 C123,20.4286535 115.612698,13.0263681 106.5,13.0263681 Z M147.500031,13 C138.387344,13 131.000051,20.3873016 131.000051,29.5 C131.000051,38.6126984 138.387344,46 147.500031,46 C156.612718,46 164.00001,38.6126984 164.00001,29.5 C164.00001,20.3873016 156.612718,13 147.500031,13 Z"/>
  </g>
</svg>
