<svg width="96" height="96" viewBox="0 0 96 96" fill="none" xmlns="http://www.w3.org/2000/svg">
<path d="M0 48C0 21.4903 21.4903 0 48 0V0C74.5097 0 96 21.4903 96 48V48C96 74.5097 74.5097 96 48 96V96C21.4903 96 0 74.5097 0 48V48Z" fill="#008CA8"/>
<path d="M47.9949 63.7428H47.6339C45.5116 63.7086 43.4186 63.2423 41.4821 62.3724C39.5456 61.5025 37.8062 60.2471 36.3699 58.6827C33.6856 55.7628 32.1957 51.9395 32.1957 47.9712C32.1957 44.0029 33.6856 40.1795 36.3699 37.2596C37.8088 35.6969 39.5484 34.4416 41.4841 33.5688C43.4199 32.6961 45.5119 32.2241 47.6344 32.1812C49.7569 32.1382 51.8662 32.5252 53.8357 33.3188C55.8051 34.1125 57.5939 35.2964 59.0948 36.7996L59.1932 36.8916L59.8103 37.4568C59.8232 37.469 59.8334 37.4838 59.8405 37.5002C59.8475 37.5166 59.8511 37.5342 59.8511 37.5521C59.8511 37.5699 59.8475 37.5875 59.8405 37.6039C59.8334 37.6203 59.8232 37.6351 59.8103 37.6473L47.9949 49.4761L41.9756 43.45L38.2603 47.1695L46.1372 55.0553C46.3811 55.2997 46.6707 55.4935 46.9894 55.6258C47.3082 55.7581 47.6498 55.8262 47.9949 55.8262C48.3399 55.8262 48.6816 55.7581 49.0003 55.6258C49.3191 55.4935 49.6087 55.2997 49.8525 55.0553L63.5124 41.3997C64.0282 40.8831 64.4337 40.267 64.7044 39.5887C64.975 38.9104 65.105 38.1841 65.0866 37.4539C65.0682 36.7237 64.9017 36.0049 64.5972 35.3412C64.2928 34.6774 63.8567 34.0826 63.3155 33.5927L62.7575 33.0867C60.7552 31.1016 58.3743 29.5402 55.7567 28.4953C53.1391 27.4505 50.3382 26.9437 47.5209 27.005C44.7036 27.0663 41.9274 27.6945 39.3576 28.8522C36.7878 30.01 34.477 31.6735 32.5627 33.7439C28.9854 37.6384 27 42.7362 27 48.027C27 53.3179 28.9854 58.4157 32.5627 62.3102C34.4794 64.3829 36.7965 66.0445 39.3736 67.1944C41.9506 68.3443 44.734 68.9586 47.5551 69H47.9949C53.5658 69 58.9085 66.7845 62.8477 62.8408C66.787 58.8971 69 53.5484 69 47.9712H63.7487C63.7487 52.1541 62.0889 56.1656 59.1345 59.1234C56.1801 62.0812 52.1731 63.7428 47.9949 63.7428Z" fill="white"/>
</svg>
