<svg width="24" height="24" viewBox="0 0 24 24" fill="none" xmlns="http://www.w3.org/2000/svg">
<path d="M6.55778 20H9.22826C10.2473 20 10.786 19.5482 10.786 18.6839V5.30632C10.786 4.41252 10.2473 4 9.22826 4H6.55778C5.53878 4 5 4.45181 5 5.30632V18.6839C5 19.5482 5.53878 20 6.55778 20ZM15.0729 20H17.7316C18.7624 20 19.2894 19.5482 19.2894 18.6839V5.30632C19.2894 4.41252 18.7624 4 17.7316 4H15.0729C14.0422 4 13.5034 4.45181 13.5034 5.30632V18.6839C13.5034 19.5482 14.0422 20 15.0729 20Z" fill="white"/>
</svg>
