<svg width="0" height="0" class="hidden">
  <symbol fill="none" xmlns="http://www.w3.org/2000/svg" viewBox="0 0 96 96" id="Payments">
    <mask id="a" maskUnits="userSpaceOnUse" x="0" y="0" width="96" height="96">
      <path fill-rule="evenodd" clip-rule="evenodd" d="M78.968 0c-9.391 0-17.033 7.641-17.033 17.032s7.642 17.033 17.033 17.033c9.39 0 17.032-7.642 17.032-17.033C96 7.642 88.359 0 78.968 0zm0 30.968c-7.685 0-13.936-6.251-13.936-13.936 0-7.684 6.251-13.935 13.936-13.935 7.684 0 13.935 6.25 13.935 13.935 0 7.685-6.25 13.936-13.935 13.936zM44.903 18.58a4.65 4.65 0 00-4.645 4.645h1.914l35.247 17.623v8.7h-3.096v6.193h-3.097v24.774h3.097v6.194h3.096V96H0v-9.29h3.097v-6.194h3.097V55.742H3.097v-6.194H0V40.85l35.248-17.623h1.913c0-4.27 3.473-7.742 7.742-7.742h7.742v3.097h-7.742zm-29.42 65.032h-9.29v3.097h9.29v-3.097zm9.291-27.871v24.774h-3.097v6.194h-3.096v-6.194h-3.097V55.742h3.097v-6.194h3.096v6.194h3.097zm18.58 24.774V55.742h-3.096v-6.194h-3.097v6.194h-3.096v24.774h3.096v6.194h3.097v-6.194h3.097zm18.581-24.774v24.774H58.84v6.194h-3.097v-6.194h-3.097V55.742h3.097v-6.194h3.097v6.194h3.096zm9.29 30.968v-3.097h-9.29v3.097h9.29zm-6.193-6.194V55.742h3.097v24.774h-3.097zm-21.677-27.87h9.29v-3.098h-9.29v3.097zm6.193 3.096v24.774h-3.096V55.742h3.096zm3.097 30.968v-3.097h-9.29v3.097h9.29zm-18.58-34.065h-9.29v-3.097h9.29v3.097zm-3.097 27.871V55.742H27.87v24.774h3.097zm3.097 3.097v3.097h-9.29v-3.097h9.29zM6.194 52.645h9.29v-3.097h-9.29v3.097zm6.193 3.097v24.774H9.29V55.742h3.097zm61.936 37.161v-3.097H3.097v3.097h71.226zm-3.097-40.258h-9.29v-3.097h9.29v3.097zm-12.387-6.193h15.484v-3.689L41.44 26.323h-1.183V37.16H37.16V26.323h-1.183l-32.88 16.44v3.689h55.742zm-46.452-6.194h52.645v3.097H12.387v-3.097zm43.355-24.774h3.097v3.097h-3.097v-3.097zm26.322 49.548a4.65 4.65 0 004.646-4.645V35.613h3.096v24.774c0 4.269-3.473 7.742-7.742 7.742h-1.548v-3.097h1.548zm-7.741 0h3.096v3.097h-3.096v-3.097zm10.06-42.173c.222.471.426.95.627 1.428.181.431.063.78-.398.986a9.734 9.734 0 01-1.474.522c-1.926.518-3.853.536-5.765-.07-2.313-.731-3.85-2.268-4.767-4.428a9.597 9.597 0 01-.32-.945c-.035-.116-.07-.233-.107-.35h-1.811a.542.542 0 01-.55-.536v-1.192c0-.297.245-.537.55-.537h1.503v-.971h-1.503a.542.542 0 01-.55-.536v-1.193c0-.297.245-.536.55-.536h1.908l.063-.185c.512-1.599 1.396-2.958 2.758-3.987 1.08-.82 2.332-1.269 3.672-1.479 1.904-.297 3.75-.043 5.539.638.115.043.226.094.334.156.43.246.542.562.353 1.007-.2.475-.401.946-.62 1.41-.19.403-.446.53-.888.432a23.835 23.835 0 01-.788-.194c-.338-.087-.675-.174-1.016-.241-1.277-.258-2.543-.268-3.783.21-1.065.413-1.715 1.207-2.16 2.196-.008.008-.008.022-.008.037h3.713c.304 0 .549.239.549.536v1.193a.542.542 0 01-.55.536h-4.246a39.97 39.97 0 00-.001.639v.332h4.248c.304 0 .549.24.549.537v1.192a.542.542 0 01-.55.537H75.57c.468 1.305 1.229 2.316 2.658 2.754 1.14.352 2.298.33 3.452.095.34-.068.675-.155 1.011-.242.257-.066.513-.132.771-.19.472-.105.724.018.921.439z" fill="#fff"></path>
    </mask>
    <g mask="url(#a)">
      <path fill="#0073E6" d="M-4.49-10.196h108v116h-108z"></path>
    </g>
  </symbol>
  <symbol fill="none" xmlns="http://www.w3.org/2000/svg" viewBox="0 0 96 96" id="Puzzle">
    <path fill-rule="evenodd" clip-rule="evenodd" d="M48 0v3.097c-20.137 0-37.937 13.54-43.288 32.928L1.726 35.2C7.446 14.476 26.474 0 48 0zm44.903 48a45.75 45.75 0 01-.097 2.996l3.09.203A50 50 0 0096 48h-3.097zm-.898 8.982l3.035.615c.215-1.056.395-2.132.537-3.2l-3.069-.41c-.133 1-.303 2.007-.503 2.995zM48 92.903V96c21.526 0 40.554-14.476 46.274-35.201l-2.986-.824C85.937 79.363 68.137 92.903 48 92.903zm-9.225-20.85l2.19-2.19 2.188 2.19-2.189 2.189-2.19-2.19zm6.57-6.57l-2.19 2.19 2.19 2.19 2.189-2.19-2.19-2.19zm-8.759 8.756l-2.08 2.08 2.19 2.19 2.08-2.08-2.19-2.19zM.423 41.602l3.069.41c.133-.998.302-2.005.503-2.994L.96 38.403a47.525 47.525 0 00-.537 3.2zM3.097 48H0c0-1.065.036-2.141.104-3.199l3.09.203A45.74 45.74 0 003.097 48zM48 89.806c1.073 0 2.155-.04 3.215-.122l-.236-3.087A38.75 38.75 0 0148 86.71v3.096zm9.647-1.117c-1.058.249-2.14.46-3.216.627l-.474-3.06c.997-.155 1.999-.35 2.977-.58l.713 3.013zm2.263-3.847l.953 2.947C78.174 82.196 89.805 66.206 89.805 48H86.71c0 16.859-10.77 31.665-26.8 36.842zM48 6.194V9.29c-.996 0-1.997.037-2.98.113l-.235-3.087A41.81 41.81 0 0148 6.194zm-8.934 4.132a39.21 39.21 0 012.977-.58l-.474-3.062a41.815 41.815 0 00-3.216.627l.713 3.015zm-3.928-2.115l.952 2.947C20.06 16.336 9.29 31.14 9.29 48H6.194c0-18.206 11.631-34.196 28.944-39.789z" fill="#0073E6"></path>
    <path fill-rule="evenodd" clip-rule="evenodd" d="M61.482 61.482l10.385-10.385-2.908-2.908a2.812 2.812 0 01-.83-2.002 2.834 2.834 0 012.832-2.832 2.81 2.81 0 012.002.83l2.908 2.907 11.48-11.48-9.29-9.29.718-.718a5.888 5.888 0 001.737-4.191 5.934 5.934 0 00-5.929-5.93 5.885 5.885 0 00-4.191 1.738l-.719.718-9.29-9.29-11.48 11.48 2.908 2.908a2.81 2.81 0 01.83 2.002 2.834 2.834 0 01-2.832 2.832 2.812 2.812 0 01-2.002-.83l-2.908-2.908-10.385 10.385-1.095 1.095-7.1 7.1-.719-.718a5.888 5.888 0 00-4.191-1.737 5.934 5.934 0 00-5.93 5.929c0 1.582.617 3.072 1.738 4.191l.719.719-9.29 9.29 26.963 26.964 24.774-24.775 1.095-1.094zm-16.579-32.97l.719.718a5.888 5.888 0 004.191 1.738 5.934 5.934 0 005.929-5.93 5.885 5.885 0 00-1.737-4.19l-.719-.72 7.101-7.1 9.29 9.29 2.908-2.908a2.812 2.812 0 012.002-.83 2.834 2.834 0 012.832 2.833c0 .755-.294 1.466-.83 2.002l-2.907 2.908 9.29 9.29-7.101 7.1-.718-.718a5.888 5.888 0 00-4.192-1.737 5.934 5.934 0 00-5.929 5.929c0 1.582.617 3.072 1.738 4.191l.718.719-7.1 7.1-9.291-9.29-2.908 2.908a2.812 2.812 0 01-2.002.83 2.834 2.834 0 01-2.832-2.832c0-.756.294-1.466.83-2.002l2.908-2.908-9.29-9.29 7.1-7.101zM13.028 60.387l22.585 22.585 22.585-22.585-7.101-7.1-.719.718a5.885 5.885 0 01-4.191 1.737 5.934 5.934 0 01-5.929-5.929c0-1.582.616-3.07 1.737-4.191l.719-.719-7.101-7.1-9.29 9.29-2.908-2.908a2.812 2.812 0 00-2.002-.83 2.834 2.834 0 00-2.832 2.832c0 .755.294 1.466.83 2.002l2.907 2.908-9.29 9.29z" fill="#0073E6"></path>
  </symbol>
  <symbol fill="none" xmlns="http://www.w3.org/2000/svg" viewBox="0 0 96 96" id="Completed">
    <mask id="a" maskUnits="userSpaceOnUse" x="0" y="0" width="96" height="96">
      <path fill-rule="evenodd" clip-rule="evenodd" d="M47.965.405C21.717.405.362 21.761.362 48.008c0 26.248 21.355 47.604 47.603 47.604s47.603-21.356 47.603-47.604C95.569 21.76 74.213.405 47.965.405zm0 90.45c-23.627 0-42.847-19.22-42.847-42.847 0-23.627 19.22-42.847 42.847-42.847 23.627 0 42.847 19.22 42.847 42.847 0 23.627-19.22 42.847-42.847 42.847zM42.18 54.57l18.25-18.152a2.367 2.367 0 013.358 0 2.385 2.385 0 01-.02 3.359L43.83 59.599a2.364 2.364 0 01-3.359 0l-8.328-8.387c-.913-.932-.913-2.447.02-3.359a2.385 2.385 0 013.358.02l6.659 6.697z" fill="#fff"></path>
    </mask>
    <g mask="url(#a)">
      <path fill="#0073E6" d="M-7.141-19.041h115.835v122.182H-7.141z"></path>
    </g>
  </symbol>
  <symbol fill="none" xmlns="http://www.w3.org/2000/svg" viewBox="0 0 96 96" id="Sustainable">
    <g clip-path="url(#clip0)" fill="#0073E6">
      <path d="M63.405 74.83c2.406 0 5.945-2.18 10.233-6.257 2.151-2.052 4.444-4.528 6.935-7.458 2.533-2.972 9.412-11.62 10.077-12.398 1.755-2.067 1.33-4.515-.736-6.114-2.18-1.67-5.01-1.472-7.161 1.019-4.034 4.67-8.945 9.992-14.705 15.964-1.883 1.953-4.897-.721-3.17-2.816a4.89 4.89 0 001.117-3.128c0-2.69-2.165-4.883-4.826-4.925H36.373c-3.51 0-7.628 1.953-10.388 4.826-3.142 3.255-5.647 6.057-7.53 8.393l7.827 12.879h37.123v.014zM79.54 40.833c3.665-4.232 9.03-4.614 12.95-1.614 3.906 3 4.812 8.209 1.387 12.228-.609.708-7.487 9.37-10.077 12.413-2.576 3.028-4.968 5.604-7.232 7.77-5.025 4.783-9.327 7.43-13.163 7.43H27.853c-2.633 0-12.285-20.324-11.662-21.074 1.812-2.151 4.048-4.614 6.723-7.388 3.524-3.665 8.718-6.128 13.445-6.128h24.839a9.143 9.143 0 018.76 6.935 320.616 320.616 0 009.582-10.572z"></path>
      <path d="M18.215 85.84l8.577-4.953-13.446-23.282-8.577 4.953L18.215 85.84zm-16.8-26.254l11.025-6.369a2.836 2.836 0 013.864 1.034l14.86 25.744a2.835 2.835 0 01-1.032 3.864l-11.026 6.369a2.835 2.835 0 01-3.863-1.034L.382 63.45a2.826 2.826 0 011.033-3.864zm44.837-10.869a2.12 2.12 0 01-2.123-2.123 2.12 2.12 0 012.123-2.123h14.804a9.2 9.2 0 019.2 9.2 9.2 9.2 0 01-9.2 9.199H46.903a2.12 2.12 0 01-2.123-2.123 2.12 2.12 0 012.123-2.123h14.153a4.959 4.959 0 004.954-4.954 4.959 4.959 0 00-4.954-4.953H46.252zM60.73 6.923c5.435-3.142 12.342-2.76 20.607.906l1.415.622-.155 1.543c-.948 8.987-4.09 15.158-9.525 18.3-7.671 4.43-18.427 3.255-21.017-2.321-2.605-5.576 1.273-14.776 8.675-19.05zm2.123 3.68c-5.618 3.24-8.534 10.176-6.963 13.572 1.345 2.902 9.284 3.765 15.045.44 3.807-2.194 6.255-6.638 7.232-13.517-6.44-2.59-11.507-2.689-15.314-.495zM34.01 18.684c-4.826-.85-9.751 1.132-14.733 5.732l-1.19 1.09.737 1.43c3.1 6.014 7.062 9.567 11.888 10.416 6.836 1.203 14.45-2.335 14.847-7.218.396-4.741-4.982-10.29-11.549-11.45zm-.736 4.19c4.586.806 8.251 4.6 8.067 6.949-.056.622-1.047 1.67-2.76 2.476-2.08.977-4.67 1.33-7.119.906-3-.524-5.689-2.717-8.053-6.737 3.581-2.986 6.865-4.132 9.865-3.595z"></path>
      <path d="M51.843 45.179a2.12 2.12 0 01-2.123 2.123 2.12 2.12 0 01-2.123-2.123v-12.88c.127-3.425 1.273-6.029 3.495-7.6 2.095-1.472 7.035-4.43 15.95-9.666a2.123 2.123 0 012.902.75 2.123 2.123 0 01-.75 2.901c-8.732 5.123-13.7 8.11-15.653 9.483-1.02.721-1.613 2.066-1.698 4.203v12.81z"></path>
      <path d="M47.597 42.348a2.12 2.12 0 002.123 2.123 2.12 2.12 0 002.123-2.123l-.014-4.402c-.354-2.505-1.416-4.656-3.17-6.383-1.685-1.655-3.228-2.604-4.799-2.703l-12.058-2.73a2.113 2.113 0 00-2.533 1.599 2.113 2.113 0 001.599 2.533l12.483 2.83c.325.043.594.114.793.242.424.254.948.665 1.542 1.245 1.047 1.033 1.684 2.293 1.925 3.821v3.949h-.014z"></path>
    </g>
    <defs>
      <clipPath id="clip0">
        <path fill="#fff" transform="translate(0 4.8)" d="M0 0h96v85.81H0z"></path>
      </clipPath>
    </defs>
  </symbol>
  <symbol fill="none" xmlns="http://www.w3.org/2000/svg" viewBox="0 0 96 96" id="Digitalpayments">
    <g clip-path="url(#clip0)" fill="#0073E6">
      <path d="M57.807 85.987c-10.106 0-19.634-3.964-26.829-11.159-.64-.712-.846-1.744-.495-2.59l.03-.073.022-.072c.03-.124.165-.372.454-.66l5.78-5.781a2.373 2.373 0 011.693-.702c.64 0 1.239.247 1.693.702.94.939.94 2.456 0 3.396l-4.026 4.025.909.723c5.14 4.047 11.138 6.514 17.362 7.133l1.136.114v-5.678c0-1.29 1.084-2.374 2.374-2.374s2.374 1.084 2.374 2.374v5.698l1.146-.134c6.431-.733 12.439-3.283 17.363-7.35l.877-.722-4.005-4.005a2.399 2.399 0 010-3.397 2.373 2.373 0 011.693-.701c.64 0 1.239.247 1.693.701l4.005 4.006.722-.878c4.006-4.872 6.514-10.838 7.247-17.26l.134-1.145h-5.688c-1.29 0-2.374-1.084-2.374-2.374s1.084-2.374 2.374-2.374h5.698l-.123-1.146c-.733-6.483-3.242-12.49-7.247-17.363l-.723-.877-4.005 4.005c-.495.495-1.053.733-1.744.733-.692 0-1.25-.227-1.745-.733a2.399 2.399 0 010-3.396l4.15-3.881-.93-.744a33.752 33.752 0 00-17.372-7.256l-1.146-.135v5.698c0 1.29-1.084 2.375-2.374 2.375s-2.374-1.084-2.374-2.375v-5.677l-1.136.103a32.728 32.728 0 00-17.372 7.143l-.888.723 4.015 4.016c.94.939.94 2.456 0 3.396-.495.495-1.053.733-1.744.733-.692 0-1.25-.227-1.745-.733l-5.78-5.781a2.373 2.373 0 01-.702-1.693c0-.64.247-1.239.701-1.693C38.133 13.595 47.701 9.6 57.808 9.6 78.865 9.6 96 26.736 96 47.794c0 21.058-17.135 38.193-38.193 38.193z"></path>
      <path d="M57.807 50.168c-1.29 0-2.374-1.084-2.374-2.374V31.69c0-1.29 1.084-2.374 2.374-2.374 1.362 0 2.477 1.063 2.477 2.374v13.73h11.252c1.29 0 2.374 1.083 2.374 2.374 0 1.29-1.084 2.374-2.374 2.374h-13.73zm-55.433 0C1.084 50.168 0 49.084 0 47.794s1.084-2.375 2.374-2.375H25.29c1.29 0 2.375 1.084 2.375 2.375 0 1.29-1.084 2.374-2.375 2.374H2.374zm7.845-13.213c-1.29 0-2.374-1.084-2.374-2.374s1.084-2.375 2.374-2.375h15.07c1.291 0 2.375 1.084 2.375 2.375 0 1.29-1.084 2.374-2.374 2.374H10.219zm0 26.322c-1.29 0-2.374-1.084-2.374-2.374s1.084-2.374 2.374-2.374h15.07c1.291 0 2.375 1.084 2.375 2.374s-1.084 2.374-2.374 2.374H10.219z"></path>
    </g>
    <defs>
      <clipPath id="clip0">
        <path fill="#fff" transform="translate(0 9.6)" d="M0 0h96v76.387H0z"></path>
      </clipPath>
    </defs>
  </symbol>
  <symbol fill="none" xmlns="http://www.w3.org/2000/svg" viewBox="0 0 96 96" id="Veloce">
    <g clip-path="url(#clip0)" fill="#0073E6">
      <path d="M9.865 96h49.41a5.874 5.874 0 005.865-5.865V66.57h22.335a4.987 4.987 0 004.98-4.98V34.41a4.987 4.987 0 00-4.98-4.98h-22.35V5.865c0-.405-.045-.795-.12-1.185C64.45 2.01 62.095 0 59.26 0H9.865A5.864 5.864 0 004 5.865v84.27A5.864 5.864 0 009.865 96zm50.76-7.365A2.865 2.865 0 0157.76 91.5H11.365A2.874 2.874 0 018.5 88.635V80.49h52.125v8.145zM85.96 62.07H37.705c-1.14 0-2.07-.855-2.07-1.905v-16.98h52.29V60.24c.015 1.02-.87 1.83-1.965 1.83zm1.98-26.16v1.665H35.65V35.91c0-1.095.885-1.98 1.98-1.98h48.33c1.095 0 1.98.885 1.98 1.98zm-51.81-6.48a4.987 4.987 0 00-4.98 4.98v27.105c0 2.79 2.265 5.07 5.07 5.07h24.405v9.42H8.5V17.1h52.125v12.33H36.13zM8.5 6.665A2.874 2.874 0 0111.365 3.8h46.41c1.38 0 2.535.975 2.805 2.28.045.18.06.375.06.57v6.75H8.5V6.665z"></path>
      <path d="M34.555 89.145a2.407 2.407 0 000-4.815 2.407 2.407 0 000 4.815zM39.37 7.1h-9.63c-.825 0-1.5.675-1.5 1.5s.675 1.5 1.5 1.5h9.63c.825 0 1.5-.675 1.5-1.5s-.675-1.5-1.5-1.5zm35.85 40.855a6.15 6.15 0 00-3.045-.795c-3.435 0-6.24 2.805-6.24 6.255 0 3.45 2.805 6.255 6.24 6.255 1.065 0 2.115-.27 3.045-.795 4.17 2.31 9.27-.69 9.27-5.46 0-4.71-4.98-7.755-9.27-5.46zM68.935 53.4c0-1.785 1.455-3.255 3.24-3.255.57 0 1.14.15 1.635.45a3.226 3.226 0 011.62 2.805c0 1.17-.615 2.22-1.62 2.82a3.249 3.249 0 01-4.875-2.82zm8.655 3.135c.54-.945.855-2.025.855-3.135 0-1.125-.3-2.205-.855-3.135 2.19-.45 3.9 1.2 3.9 3.135 0 2.025-1.755 3.585-3.9 3.135z"></path>
    </g>
    <defs>
      <clipPath id="clip0">
        <path fill="#fff" transform="translate(4)" d="M0 0h88.44v96H0z"></path>
      </clipPath>
    </defs>
  </symbol>
  <symbol fill="none" xmlns="http://www.w3.org/2000/svg" viewBox="0 0 96 96" id="Fireworks">
    <mask id="a" maskUnits="userSpaceOnUse" x="0" y="0" width="96" height="96">
      <path fill-rule="evenodd" clip-rule="evenodd" d="M88.34 80.68h-.51V4.597A4.601 4.601 0 0083.234 0a4.601 4.601 0 00-4.596 4.596v6.127h-3.257a6.139 6.139 0 00-5.934-4.595 6.113 6.113 0 00-4.596 2.08 6.113 6.113 0 00-4.596-2.08 6.139 6.139 0 00-5.934 4.595H50.87a6.138 6.138 0 00-5.934-4.595 6.113 6.113 0 00-4.596 2.08 6.113 6.113 0 00-9.191 0 6.113 6.113 0 00-4.596-2.08 6.139 6.139 0 00-5.934 4.595h-3.257V4.596A4.601 4.601 0 0012.766 0 4.601 4.601 0 008.17 4.596V80.68h-.51C3.436 80.68 0 84.117 0 88.34v6.127C0 95.314.686 96 1.532 96h92.936c.846 0 1.532-.686 1.532-1.532V88.34c0-4.223-3.436-7.66-7.66-7.66zM75.574 13.788h3.064v3.064h-3.064v-3.064zm-6.127-4.595a3.067 3.067 0 00-3.064 3.063v6.128a3.067 3.067 0 003.064 3.064 3.067 3.067 0 003.064-3.064v-6.128a3.067 3.067 0 00-3.064-3.063zM57.19 12.255a3.067 3.067 0 013.064-3.063 3.067 3.067 0 013.064 3.063v6.128a3.067 3.067 0 01-3.064 3.064 3.067 3.067 0 01-3.064-3.064v-6.128zm-3.064 1.532h-3.063v3.064h3.063v-3.064zm-12.255-1.532a3.067 3.067 0 013.064-3.063A3.067 3.067 0 0148 12.255v6.128a3.067 3.067 0 01-3.064 3.064 3.067 3.067 0 01-3.064-3.064v-6.128zm-6.127-3.063a3.067 3.067 0 00-3.064 3.063v6.128a3.067 3.067 0 003.064 3.064 3.067 3.067 0 003.063-3.064v-6.128a3.067 3.067 0 00-3.063-3.063zm-12.256 3.063a3.067 3.067 0 013.064-3.063 3.067 3.067 0 013.064 3.063v6.128a3.067 3.067 0 01-3.064 3.064 3.067 3.067 0 01-3.064-3.064v-6.128zm-3.064 1.532h-3.063v3.064h3.064v-3.064zm-3.063 6.128h3.257a6.139 6.139 0 005.934 4.596 6.114 6.114 0 004.596-2.081 6.113 6.113 0 009.192 0 6.113 6.113 0 004.595 2.08 6.139 6.139 0 005.934-4.595h3.452a6.138 6.138 0 005.934 4.596 6.114 6.114 0 004.595-2.081 6.113 6.113 0 004.596 2.08 6.139 6.139 0 005.934-4.595h3.258v14.298H75.38a6.139 6.139 0 00-5.934-4.596 6.114 6.114 0 00-4.596 2.081 6.113 6.113 0 00-9.192 0 6.113 6.113 0 00-9.191 0 6.113 6.113 0 00-4.596-2.081 6.139 6.139 0 00-5.934 4.596h-3.452a6.138 6.138 0 00-5.933-4.596 6.139 6.139 0 00-5.934 4.596h-3.257V19.915zM78.638 40.34v-3.063h-3.064v3.063h3.064zm-6.127-4.595v6.127a3.067 3.067 0 01-3.064 3.064 3.067 3.067 0 01-3.064-3.064v-6.127a3.067 3.067 0 013.064-3.064 3.067 3.067 0 013.064 3.064zm-9.192 6.127v-6.127a3.067 3.067 0 00-3.064-3.064 3.067 3.067 0 00-3.063 3.064v6.127a3.067 3.067 0 003.063 3.064 3.067 3.067 0 003.064-3.064zm-9.191-6.127v6.127a3.067 3.067 0 01-3.064 3.064A3.067 3.067 0 0148 41.872v-6.127a3.067 3.067 0 013.064-3.064 3.067 3.067 0 013.064 3.064zm-9.192 6.127v-6.127a3.067 3.067 0 00-3.063-3.064 3.067 3.067 0 00-3.064 3.064v6.127a3.067 3.067 0 003.064 3.064 3.067 3.067 0 003.063-3.064zm-9.191-4.595v3.063H32.68v-3.063h3.064zm-6.128 4.595v-6.127a3.067 3.067 0 00-3.064-3.064 3.067 3.067 0 00-3.064 3.064v6.127a3.067 3.067 0 003.064 3.064 3.067 3.067 0 003.064-3.064zm-12.255-4.595h3.064v3.063h-3.064v-3.063zm3.257 6.127h-3.257v14.298h3.257a6.139 6.139 0 015.934-4.596c1.829 0 3.472.806 4.596 2.081a6.114 6.114 0 014.595-2.08 6.138 6.138 0 015.934 4.595h3.452a6.139 6.139 0 015.934-4.596 6.11 6.11 0 014.595 2.081 6.113 6.113 0 019.192 0 6.114 6.114 0 014.596-2.08 6.139 6.139 0 015.934 4.595h3.257V43.404h-3.257A6.139 6.139 0 0169.447 48a6.113 6.113 0 01-4.596-2.081 6.114 6.114 0 01-9.191 0 6.114 6.114 0 01-9.192 0A6.114 6.114 0 0141.872 48a6.138 6.138 0 01-5.933-4.596h-3.452A6.139 6.139 0 0126.553 48a6.139 6.139 0 01-5.934-4.596zm58.02 17.362v3.064h-3.064v-3.064h3.063zm-6.128 4.596v-6.128a3.067 3.067 0 00-3.064-3.064 3.067 3.067 0 00-3.064 3.064v6.128a3.067 3.067 0 003.064 3.064 3.067 3.067 0 003.064-3.064zm-9.192-6.128v6.128a3.067 3.067 0 01-3.064 3.064 3.067 3.067 0 01-3.063-3.064v-6.128a3.067 3.067 0 013.063-3.064 3.067 3.067 0 013.064 3.064zm-9.191 6.128v-6.128a3.067 3.067 0 00-3.064-3.064A3.067 3.067 0 0048 59.234v6.128a3.067 3.067 0 003.064 3.064 3.067 3.067 0 003.064-3.064zm-9.192-4.596v3.064h-3.063v-3.064h3.063zm-6.127 4.596v-6.128a3.067 3.067 0 00-3.064-3.064 3.067 3.067 0 00-3.064 3.064v6.128a3.067 3.067 0 003.064 3.064 3.067 3.067 0 003.064-3.064zm-9.192-6.128v6.128a3.067 3.067 0 01-3.064 3.064 3.067 3.067 0 01-3.064-3.064v-6.128a3.067 3.067 0 013.064-3.064 3.067 3.067 0 013.064 3.064zm-9.192 1.532h-3.063v3.064h3.064v-3.064zm-9.19-56.17a1.532 1.532 0 013.063 0v71.49a1.532 1.532 0 003.064 0v-9.192h3.257a6.139 6.139 0 005.934 4.596 6.114 6.114 0 004.596-2.081 6.113 6.113 0 004.596 2.08 6.139 6.139 0 005.933-4.595h3.452a6.138 6.138 0 005.934 4.596 6.114 6.114 0 004.596-2.081 6.113 6.113 0 009.191 0 6.113 6.113 0 004.596 2.08 6.139 6.139 0 005.934-4.595h3.257v9.191a1.532 1.532 0 003.064 0V4.595a1.533 1.533 0 013.064.001V80.68H11.234V4.596zm-8.171 88.34h89.872V88.34a4.601 4.601 0 00-4.596-4.595H7.66a4.601 4.601 0 00-4.596 4.595v4.596z" fill="#fff"></path>
    </mask>
    <g mask="url(#a)">
      <path fill="#0073E6" d="M-2.894-1.626h111.2v106.4h-111.2z"></path>
    </g>
  </symbol>
  <symbol fill="none" xmlns="http://www.w3.org/2000/svg" viewBox="0 0 96 96" id="Abacus">
    <mask id="a" maskUnits="userSpaceOnUse" x="0" y="0" width="96" height="96">
      <path fill-rule="evenodd" clip-rule="evenodd" d="M23.137 5.614a5.62 5.62 0 01-5.614 5.614 5.62 5.62 0 01-5.614-5.614A5.62 5.62 0 0117.523 0a5.62 5.62 0 015.614 5.614zm-3.743 0c0-1.032-.84-1.871-1.871-1.871-1.032 0-1.872.84-1.872 1.871 0 1.032.84 1.871 1.872 1.871s1.871-.84 1.871-1.871zm12.791 16.76c-.583-3.838-3.466-8.426-6.295-10.017a1.872 1.872 0 011.835-3.262c3.82 2.148 7.404 7.735 8.16 12.718a1.871 1.871 0 11-3.7.562zm29.443 5.18a1.872 1.872 0 01.977 3.006l-5.146 6.218.509 8.055a1.871 1.871 0 01-2.557 1.858l-7.504-2.973-7.504 2.973a1.872 1.872 0 01-2.557-1.858l.509-8.055-5.146-6.218a1.871 1.871 0 01.976-3.006l7.818-2.005 4.324-6.816a1.871 1.871 0 013.16 0l4.323 6.816 7.818 2.005zm-7.951 8.72a1.87 1.87 0 01.426-1.311l3.737-4.516-5.678-1.457a1.872 1.872 0 01-1.115-.81l-3.14-4.95-3.14 4.95a1.871 1.871 0 01-1.116.81l-5.678 1.457 3.738 4.516c.304.367.456.836.426 1.311l-.37 5.85 5.45-2.159a1.87 1.87 0 011.38 0l5.45 2.16-.37-5.851zm-5.77 15.877a1.871 1.871 0 00-1.872 1.87v39.92a1.871 1.871 0 003.743 0v-39.92a1.871 1.871 0 00-1.871-1.87zm26.673-7.07a1.87 1.87 0 112.463 2.819c-3.947 3.449-10.569 12.258-10.569 32.508a1.871 1.871 0 01-3.743 0c0-9.347 1.347-17.366 4.003-23.834 1.97-4.799 4.61-8.665 7.846-11.492zm19.44-11.456a1.87 1.87 0 011.58 2.737l-1.795 3.433 1.01 3.612a1.871 1.871 0 01-2.082 2.467l-3.82-.647-3.226 2.145a1.871 1.871 0 01-2.888-1.285l-.565-3.833-3.036-2.406a1.872 1.872 0 01.33-3.143l3.47-1.721 1.35-3.632a1.87 1.87 0 013.091-.657l2.71 2.769 3.871.16zm-3.57 8.065L90 40.088a1.871 1.871 0 01.144-1.372l.772-1.475-1.664-.07a1.87 1.87 0 01-1.259-.56l-1.165-1.19-.58 1.561a1.87 1.87 0 01-.922 1.025l-1.492.74 1.306 1.034c.373.295.62.722.689 1.194l.243 1.647 1.386-.922a1.87 1.87 0 011.349-.287l1.642.278zm-71.857 3.57a1.87 1.87 0 012.64-.178c3.236 2.828 5.876 6.694 7.846 11.493 2.656 6.468 4.003 14.487 4.003 23.834a1.871 1.871 0 01-3.742 0c0-20.25-6.622-29.06-10.57-32.508a1.871 1.871 0 01-.177-2.641zm-2.308-8.554a1.871 1.871 0 01.33 3.143l-3.036 2.406-.565 3.833a1.872 1.872 0 01-2.887 1.285L6.9 45.227l-3.82.647a1.87 1.87 0 01-2.115-2.348l1.043-3.731-1.796-3.433a1.871 1.871 0 011.58-2.737l3.871-.161 2.71-2.77a1.871 1.871 0 013.092.657l1.35 3.633 3.47 1.721zm-6.3 4.27c.07-.472.316-.899.69-1.194l1.304-1.034-1.491-.74a1.87 1.87 0 01-.922-1.025l-.58-1.56-1.165 1.19a1.87 1.87 0 01-1.26.56l-1.664.07.772 1.475c.221.422.272.912.144 1.37l-.448 1.604 1.642-.278a1.872 1.872 0 011.348.286l1.387.923.243-1.647zm51.796-17.01a1.871 1.871 0 01-1.853-2.152c.757-4.983 4.341-10.57 8.16-12.718a1.871 1.871 0 111.836 3.262c-2.83 1.591-5.713 6.179-6.296 10.018a1.871 1.871 0 01-1.847 1.59zM83.904 5.615a5.62 5.62 0 01-5.614 5.614 5.62 5.62 0 01-5.614-5.614A5.62 5.62 0 0178.29 0a5.62 5.62 0 015.614 5.614zm-3.743 0c0-1.032-.84-1.871-1.871-1.871-1.032 0-1.871.84-1.871 1.871 0 1.032.839 1.871 1.87 1.871 1.033 0 1.872-.84 1.872-1.871zM13.88 66.583c0-1.03.84-1.871 1.871-1.871 1.031 0 1.872.84 1.872 1.87a1.875 1.875 0 01-1.872 1.872c-1.03 0-1.871-.84-1.871-1.871zm7.86-39.018c0 1.031.84 1.872 1.87 1.872 1.032 0 1.872-.84 1.872-1.872 0-1.03-.84-1.871-1.871-1.871-1.03 0-1.872.84-1.872 1.871zM49.623 9.6a1.876 1.876 0 01-1.872 1.872c-1.03 0-1.871-.84-1.871-1.872 0-1.03.84-1.871 1.871-1.871 1.031 0 1.872.84 1.872 1.871zM73.95 27.004c0 1.03.84 1.871 1.871 1.871 1.031 0 1.872-.84 1.872-1.871 0-1.03-.84-1.872-1.872-1.872-1.03 0-1.87.841-1.87 1.872zm2.246 39.579c0-1.03.84-1.871 1.871-1.871 1.03 0 1.872.84 1.872 1.87a1.875 1.875 0 01-1.872 1.872c-1.03 0-1.871-.84-1.871-1.871zM31.21 83.957c-1.03 0-1.872.84-1.872 1.872 0 1.03.841 1.871 1.872 1.871 1.03 0 1.871-.84 1.871-1.871 0-1.031-.84-1.872-1.871-1.872zm31.52 1.872c0-1.031.841-1.872 1.872-1.872 1.03 0 1.871.84 1.871 1.872 0 1.03-.84 1.871-1.871 1.871a1.874 1.874 0 01-1.871-1.871zM37.523 53.834c-1.03 0-1.871.84-1.871 1.872 0 1.03.84 1.871 1.871 1.871 1.03 0 1.871-.84 1.871-1.871 0-1.031-.84-1.872-1.871-1.872zm19.041 1.03c0-1.031.84-1.872 1.871-1.872 1.031 0 1.872.84 1.872 1.872 0 1.03-.841 1.87-1.872 1.87-1.03 0-1.871-.84-1.871-1.87z" fill="#fff"></path>
    </mask>
    <g mask="url(#a)">
      <path fill="#0073E6" d="M-4.982-7.948h112.8v113.6h-112.8z"></path>
    </g>
  </symbol>
  <symbol fill="none" xmlns="http://www.w3.org/2000/svg" viewBox="0 0 96 96" id="Piggybank">
    <mask id="a" maskUnits="userSpaceOnUse" x="0" y="0" width="95" height="95">
      <path fill-rule="evenodd" clip-rule="evenodd" d="M57.45 2.031a1.846 1.846 0 00-3.692 0v3.138a1.846 1.846 0 003.692 0V2.031zM39.301 4.796a1.86 1.86 0 011.305-.54c.486 0 .962.197 1.305.54.344.344.541.82.541 1.306 0 .487-.197.962-.54 1.305a1.86 1.86 0 01-1.306.54 1.86 1.86 0 01-1.305-.54 1.86 1.86 0 01-.541-1.305c0-.486.198-.96.541-1.306zm3.151 8.004a1.846 1.846 0 00-3.692 0v7.323a1.846 1.846 0 003.692 0V12.8zM9.218 46.877l-4.289.537A5.386 5.386 0 00.22 52.75v9.308c0 2.706 2.026 5 4.71 5.336l3.838.481a29.286 29.286 0 008.251 12.126v9.354a5.36 5.36 0 005.354 5.353H33.08a5.36 5.36 0 005.353-5.353v-2.043h11.818v2.043a5.36 5.36 0 005.353 5.353h10.71a5.36 5.36 0 005.352-5.353v-6.131a29.346 29.346 0 0014.19-28.753h.67c4.53 0 8.216-3.685 8.216-8.215 0-4.53-3.686-8.216-8.216-8.216a1.846 1.846 0 000 3.692 4.528 4.528 0 014.523 4.523 4.528 4.528 0 01-4.523 4.524h-1.352c-3.213-12.721-14.753-22.164-28.457-22.164h-2.314a1.846 1.846 0 000 3.693h2.314c14.147 0 25.656 11.509 25.656 25.656A25.659 25.659 0 0168.94 80.527a1.846 1.846 0 00-.965 1.622v7.205c0 .916-.745 1.661-1.661 1.661h-10.71a1.663 1.663 0 01-1.66-1.66v-3.89c0-1.02-.827-1.846-1.846-1.846h-15.51c-1.02 0-1.847.827-1.847 1.846v3.89c0 .915-.745 1.66-1.66 1.66H22.37c-.915 0-1.66-.745-1.66-1.66V79.15c0-.55-.246-1.07-.669-1.422a25.615 25.615 0 01-8.133-12.092 1.846 1.846 0 00-1.532-1.28l-4.99-.625a1.688 1.688 0 01-1.475-1.673V52.75c0-.848.634-1.567 1.476-1.672l5.384-.674a1.846 1.846 0 001.505-1.202 25.694 25.694 0 015.548-8.96c.177-.127.327-.283.448-.46a25.563 25.563 0 0112.196-6.786 1.846 1.846 0 10-.85-3.593 29.043 29.043 0 00-4.037 1.277c-1.855-4.83-6.573-8.124-11.807-8.124h-.408a1.847 1.847 0 00-1.796 2.27l3.153 13.358a29.487 29.487 0 00-5.505 8.693zm13.009-14.612a29.44 29.44 0 00-4.404 2.981l-2.07-8.774a9.015 9.015 0 016.474 5.793zm-.974 14.8a1.86 1.86 0 011.305-.542c.486 0 .962.198 1.305.541.344.343.541.82.541 1.305 0 .486-.197.962-.54 1.306a1.86 1.86 0 01-1.306.54 1.86 1.86 0 01-1.305-.54 1.86 1.86 0 01-.541-1.306c0-.485.198-.962.541-1.305zm52.455 10.899a1.846 1.846 0 013.692 0v.098a1.846 1.846 0 01-1.846 1.834h-.011a1.846 1.846 0 01-1.835-1.858v-.074zM72.59 64.04a17.113 17.113 0 01-7.054 8.449 1.846 1.846 0 001.92 3.154 20.822 20.822 0 008.581-10.282 1.846 1.846 0 10-3.448-1.321zm-9.232-47.23c0-4.276-3.478-7.754-7.754-7.754-4.275 0-7.754 3.478-7.754 7.754 0 4.275 3.479 7.754 7.754 7.754 4.276 0 7.754-3.479 7.754-7.754zm-3.692 0a4.066 4.066 0 01-4.062 4.061 4.066 4.066 0 01-4.061-4.061 4.066 4.066 0 014.061-4.062 4.066 4.066 0 014.062 4.062zM32.343 39.323h1.661a7.706 7.706 0 01-1.152-4.061c0-4.276 3.478-7.754 7.754-7.754 4.275 0 7.754 3.478 7.754 7.754 0 1.488-.422 2.88-1.152 4.061h9.135a1.846 1.846 0 010 3.693h-24a1.846 1.846 0 010-3.693zm8.263 0a4.066 4.066 0 004.061-4.061 4.066 4.066 0 00-4.061-4.062 4.066 4.066 0 00-4.062 4.062 4.066 4.066 0 004.062 4.061z" fill="#fff"></path>
    </mask>
    <g mask="url(#a)">
      <path fill="#0073E6" d="M-23.631-23.631h147.692v147.692H-23.631z"></path>
    </g>
  </symbol>
</svg>